<?xml version="1.0" standalone="no"?>
<!DOCTYPE svg PUBLIC "-//W3C//DTD SVG 20010904//EN"
 "http://www.w3.org/TR/2001/REC-SVG-20010904/DTD/svg10.dtd">
<svg version="1.0" xmlns="http://www.w3.org/2000/svg"
 width="1056.000000pt" height="1056.000000pt" viewBox="0 0 1056.000000 1056.000000"
 preserveAspectRatio="xMidYMid meet">
<metadata>
Created by potrace 1.14, written by Peter Selinger 2001-2017
</metadata>
<g transform="translate(0.000000,1056.000000) scale(0.100000,-0.100000)"
fill="#000000" stroke="none">
<path d="M6625 10545 c-253 -32 -456 -82 -622 -156 -134 -59 -194 -93 -373
-213 -234 -157 -366 -312 -457 -539 -47 -116 -93 -279 -93 -328 0 -15 -6 -31
-12 -36 -7 -4 -64 -22 -125 -40 -199 -57 -314 -117 -427 -223 -27 -25 -123
-133 -214 -240 -318 -374 -674 -781 -679 -776 -3 3 -20 166 -39 363 -34 365
-44 421 -99 562 -81 207 -250 413 -447 544 -128 85 -280 153 -572 254 -228 78
-347 84 -676 29 -118 -19 -246 -46 -285 -59 -169 -58 -347 -169 -475 -297
-256 -254 -371 -594 -315 -935 21 -129 72 -506 89 -670 39 -361 54 -599 68
-1075 12 -438 7 -877 -28 -2110 -17 -616 -14 -1645 6 -1955 34 -534 88 -1035
151 -1405 28 -158 119 -376 227 -540 77 -116 262 -300 377 -375 50 -32 130
-85 178 -117 306 -207 689 -262 1082 -156 92 25 302 129 420 208 100 67 286
252 348 346 96 147 162 303 197 472 25 117 36 358 22 487 -5 50 -8 91 -7 93 2
2 122 -72 802 -493 177 -110 356 -221 399 -247 161 -99 354 -150 564 -150 145
0 237 16 382 67 57 20 148 42 202 50 160 23 278 69 411 158 125 85 249 233
312 375 35 78 147 476 167 591 60 354 -74 752 -336 997 -83 77 -307 256 -560
447 -550 416 -974 693 -1685 1103 -57 32 -103 63 -103 68 0 22 580 641 589
629 4 -4 27 -34 50 -66 132 -174 379 -351 612 -437 137 -51 229 -69 639 -125
291 -40 751 -61 985 -46 94 6 276 18 405 26 129 9 262 20 295 25 40 6 100 6
177 -1 214 -20 487 21 728 108 370 133 644 350 801 635 220 397 244 745 74
1102 -97 202 -261 403 -414 506 -174 117 -470 227 -716 266 -55 8 -101 17
-103 18 -1 2 29 52 67 111 176 271 292 588 342 940 21 153 3 630 -31 795 -26
124 -88 293 -173 468 -109 227 -226 377 -377 487 -45 33 -119 88 -165 122
-168 126 -304 197 -496 257 -303 97 -756 139 -1064 101z m505 -295 c343 -26
627 -120 835 -277 50 -38 122 -90 162 -116 91 -61 192 -169 252 -272 93 -160
186 -388 215 -526 18 -91 40 -536 32 -639 -17 -194 -87 -454 -170 -633 -58
-124 -117 -223 -227 -375 -50 -70 -127 -188 -171 -262 -45 -74 -90 -148 -100
-163 -11 -16 -18 -30 -16 -32 2 -3 51 0 109 5 142 13 401 12 495 -1 174 -24
467 -128 596 -211 79 -51 190 -163 246 -248 55 -83 129 -236 146 -303 34 -130
28 -291 -15 -422 -59 -180 -193 -395 -306 -492 -169 -145 -414 -261 -661 -313
-115 -25 -347 -36 -445 -23 -48 7 -96 6 -160 -3 -51 -6 -148 -15 -217 -18 -69
-4 -208 -14 -310 -22 -220 -19 -596 -14 -880 10 -227 19 -583 70 -687 97 -207
54 -424 186 -545 332 -97 116 -233 338 -251 407 -6 24 -7 24 -63 -30 -273
-267 -1079 -1150 -1071 -1173 1 -5 133 -86 292 -179 670 -390 910 -539 1246
-771 495 -342 1032 -761 1136 -886 118 -144 184 -330 186 -526 0 -118 -18
-205 -100 -480 -47 -155 -64 -195 -118 -271 -101 -141 -295 -244 -460 -244
-48 0 -79 -8 -150 -39 -209 -90 -408 -101 -614 -35 -79 25 -98 35 -358 198
-150 95 -912 567 -1113 691 -224 138 -372 225 -381 225 -15 0 -1 -272 27 -527
13 -123 24 -267 24 -322 0 -223 -69 -454 -186 -618 -129 -183 -406 -369 -629
-425 -127 -31 -393 -31 -506 0 -98 26 -206 78 -291 139 -36 26 -100 70 -142
96 -229 145 -409 398 -481 676 -20 77 -81 518 -105 759 -52 524 -71 954 -71
1632 1 514 5 756 32 1610 15 495 16 1483 1 1765 -26 480 -65 884 -123 1280
-56 388 -51 483 35 659 71 144 170 250 318 337 120 71 202 97 425 135 286 49
359 46 563 -24 275 -95 421 -163 531 -247 118 -91 228 -234 277 -361 36 -91
51 -178 76 -439 29 -292 86 -1015 86 -1081 0 -23 4 -45 10 -49 5 -3 44 36 87
87 43 51 157 182 254 293 96 110 359 414 583 675 224 261 429 492 454 513 115
93 289 151 586 195 l49 7 -2 135 c-2 115 2 149 23 230 63 248 175 412 357 527
33 21 97 62 142 91 158 102 337 177 505 212 53 11 115 25 137 31 46 13 275 35
385 38 41 0 136 -4 210 -9z"/>
<path d="M6940 9653 c-307 -33 -453 -62 -568 -112 -101 -44 -314 -179 -336
-214 -27 -41 -56 -139 -56 -189 0 -40 9 -66 48 -136 60 -111 142 -195 242
-247 70 -38 80 -40 160 -40 l86 0 90 62 c49 33 119 76 154 95 58 29 74 33 145
33 67 0 89 -4 136 -27 65 -32 179 -145 179 -178 0 -111 -129 -466 -223 -615
-17 -27 -122 -171 -233 -320 -110 -148 -255 -346 -322 -440 -161 -225 -265
-358 -408 -522 -124 -141 -345 -419 -369 -464 -46 -86 -68 -282 -42 -371 19
-61 115 -204 175 -260 92 -86 159 -110 391 -144 96 -13 178 -27 182 -30 17
-10 527 -44 669 -44 188 0 791 40 933 62 60 9 93 9 147 0 197 -34 424 9 603
113 99 58 141 102 182 187 63 131 57 206 -26 322 -34 48 -52 62 -122 95 -190
92 -346 114 -644 92 -186 -14 -602 -39 -791 -48 -118 -5 -315 5 -492 26 l-55
6 1 39 c2 47 7 54 330 469 279 359 288 372 435 615 57 95 148 232 202 305 156
211 227 376 273 630 16 86 16 112 6 225 -7 70 -12 164 -12 208 0 98 -21 172
-92 329 -61 133 -85 167 -152 210 -29 18 -83 59 -121 90 -87 72 -181 118 -308
150 -153 38 -279 51 -397 38z"/>
<path d="M2075 8855 c-5 -2 -75 -14 -154 -25 -88 -13 -161 -30 -185 -42 -93
-46 -136 -96 -136 -156 0 -17 11 -97 24 -178 29 -176 79 -597 100 -844 56
-646 63 -1470 24 -2701 -16 -538 -17 -1973 0 -2234 38 -592 109 -1177 162
-1330 46 -134 157 -252 297 -317 35 -15 63 -32 63 -38 0 -22 71 -61 128 -71
211 -37 463 107 522 299 32 102 32 163 6 422 -13 135 -27 324 -30 420 -19 562
-28 769 -41 975 -9 127 -18 242 -21 258 -3 15 -3 27 0 27 15 0 1007 -589 1441
-857 489 -301 1030 -636 1146 -709 169 -107 184 -108 394 -11 102 48 116 51
194 53 l84 2 19 58 c10 33 32 110 49 172 28 103 30 119 20 178 -5 36 -20 83
-33 104 -47 80 -731 601 -1188 907 -248 165 -334 218 -875 535 -363 213 -470
277 -762 451 l-302 181 17 29 c29 49 203 278 318 418 261 316 633 725 1160
1274 705 734 1119 1266 1386 1782 74 141 80 157 74 196 -16 107 -87 199 -192
249 -157 74 -429 77 -626 6 -30 -11 -104 -92 -408 -447 -205 -239 -467 -543
-584 -676 -116 -133 -281 -322 -365 -421 -91 -105 -329 -353 -575 -599 l-421
-420 -6 375 c-4 206 -12 472 -18 590 -12 232 -47 794 -56 900 -16 202 -76 851
-81 882 -7 48 -53 118 -98 153 -44 33 -177 92 -332 145 -118 41 -121 41 -139
35z"/>
</g>
</svg>
