<?xml version="1.0" encoding="UTF-8"?><svg id="Layer_2" xmlns="http://www.w3.org/2000/svg" viewBox="0 0 955.81 242.09"><defs><style>.cls-1{fill:#1d204e;stroke-width:0px;}</style></defs><path class="cls-1" d="m200.63,127.55l41.46-25.54-47.3-11.58c-11.43-27.52-37.53-46.54-67.24-48.97L102.02,0l-11.58,47.3c-27.53,11.43-46.54,37.53-48.97,67.24L0,140.07l47.3,11.58c11.43,27.53,37.53,46.54,67.24,48.97l25.54,41.46,11.58-47.3c27.53-11.43,46.54-37.53,48.97-67.24h0Zm-68.89,61.51c-37.51,5.9-72.82-19.82-78.72-57.33s19.82-72.82,57.33-78.72c37.51-5.9,72.82,19.82,78.72,57.33,5.9,37.51-19.82,72.82-57.33,78.72Z"/><path class="cls-1" d="m171.79,113.87c-.06-.05-.12-.1-.18-.15-.03-.21-.05-.41-.08-.62-4.38-27.88-30.54-46.93-58.41-42.55-27.88,4.38-46.93,30.54-42.55,58.41,4.38,27.88,30.54,46.93,58.41,42.55,27.57-4.33,46.49-29.96,42.67-57.49l.14-.16h0Zm-43.65,45.04c-1.52,1.74-3.31,4.07-4.21,6.95-1.37.09-2.72.11-4.07.08l-1.29-2.78c.87-2.25,2.28-4.63,4.35-7.3,10.1-13.04,25.81-20.83,40.63-20.36-.87,2.55-1.97,5-3.27,7.34-12.21.95-24.09,6.85-32.14,16.07Zm27.39-9.14c-6.05,7.27-14.4,12.67-24.15,14.97.46-.64.95-1.24,1.41-1.76,5.85-6.69,14.02-11.36,22.73-13.21h0Zm-26.37-8.79c-3.29,2.53-6.36,5.43-9.15,8.68-10.69-7.51-23.64-5.26-30.72-3.1-1.24.38-2.65.91-3.93,1.75-1.04-1.35-1.99-2.78-2.88-4.25,13.43-5.88,32.13-7.04,46.67-3.08h0Zm-16.3-8.51c5.72-4.93,12.96-7.91,21.07-8.54,8.56-.67,17.45,1.25,25.65,5.42-8.41.45-16.79,3.08-24.37,7.54l.16-.45c-6.79-2.47-14.57-3.77-22.51-3.97Zm-.39,29.42c-.11.31-.2.63-.29.95-.41-.11-.74-.38-.92-.77l1.3-.6-.08.42h-.01Zm-21.37-9.41c5.89-1.8,16.56-3.71,25.11,2.1-.54.8-1.09,1.68-1.61,2.6-.35-.17-.73-.3-1.12-.37l-.09.43c-7.25-2.47-13.93-2.54-19.22-.23-1.62-1.21-3.17-2.53-4.62-3.95.51-.23,1.07-.42,1.55-.56v-.02Zm20.93,10.83c-.14.54-.25,1.09-.35,1.65-3.49-.75-6.85-1.9-10.02-3.43,3.82-.21,7.66.8,10.38,1.77h-.01Zm5.82,2.25l.86.34c-.31-.02-.61-.04-.91-.07.02-.09.03-.18.05-.27h0Zm15.59-47.8c-11.89.92-22.21,6.2-29.42,14.93-3.56.27-7.08.77-10.51,1.48,6.47-9.26,15.92-16.27,26.54-19.56,3.53-1.1,7.43-1.88,12.63-2.56,14.71-1.91,25.56-.27,33.08,5,.26,2.92.24,5.8-.05,8.62-10.1-5.95-21.4-8.75-32.28-7.9h0Zm-19.37-41.09c22.76-3.58,44.27,10.7,50.26,32.4-8.29-3.88-19-4.92-32.44-3.17-5.57.73-9.78,1.59-13.66,2.79-13.71,4.25-25.66,13.99-32.8,26.74l1.01.56c-2.34.73-4.6,1.58-6.75,2.54-1.4-3.3-2.42-6.82-3.01-10.52-3.85-24.47,12.93-47.5,37.4-51.34h0Z"/><circle class="cls-1" cx="98.77" cy="99.69" r="7.62"/><path class="cls-1" d="m264.53,98.63v-55.14h35.09v11.58h-23.51v8.23h18.16v11.58h-18.16v12.17h23.51v11.58h-35.09Z"/><path class="cls-1" d="m305.28,98.63l20.17-27.73-19.93-27.41h14.3l12.8,17.61,12.84-17.61h14.3l-19.93,27.41,20.17,27.73h-14.38l-13-17.84-12.96,17.84s-14.38,0-14.38,0Z"/><path class="cls-1" d="m366,98.63v-55.14h20.68c3.02,0,5.76.77,8.21,2.3,2.45,1.54,4.4,3.58,5.85,6.13,1.44,2.55,2.17,5.34,2.17,8.39s-.74,5.92-2.23,8.47c-1.48,2.55-3.46,4.58-5.93,6.11-2.47,1.52-5.16,2.28-8.07,2.28h-9.1v21.47h-11.58Zm11.58-33.08h7.8c1.08,0,2.06-.28,2.95-.83s1.61-1.29,2.15-2.21.81-1.93.81-3.03-.27-2.15-.81-3.07-1.25-1.65-2.15-2.2c-.89-.55-1.88-.83-2.95-.83h-7.8v12.17Z"/><path class="cls-1" d="m409.29,98.63v-55.14h11.58v43.56h21.82v11.58s-33.4,0-33.4,0Z"/><path class="cls-1" d="m471.22,99.65c-3.73,0-7.23-.74-10.52-2.23-3.28-1.48-6.17-3.54-8.66-6.16-2.49-2.63-4.45-5.66-5.87-9.12-1.42-3.45-2.13-7.15-2.13-11.09s.71-7.63,2.13-11.09c1.42-3.45,3.38-6.49,5.87-9.12s5.38-4.68,8.66-6.16,6.79-2.23,10.52-2.23,7.27.74,10.55,2.23c3.28,1.48,6.17,3.54,8.67,6.16,2.49,2.63,4.44,5.67,5.85,9.12,1.4,3.45,2.11,7.15,2.11,11.09s-.7,7.63-2.11,11.09c-1.4,3.45-3.35,6.49-5.85,9.12-2.49,2.63-5.38,4.68-8.67,6.16-3.28,1.48-6.8,2.23-10.55,2.23h0Zm0-11.58c2.13,0,4.13-.45,6.01-1.34s3.54-2.12,4.98-3.68,2.57-3.37,3.39-5.42c.81-2.05,1.22-4.24,1.22-6.58s-.41-4.53-1.22-6.58c-.82-2.05-1.94-3.85-3.39-5.42-1.45-1.56-3.11-2.79-4.98-3.68-1.88-.89-3.88-1.34-6.01-1.34s-4.13.45-6.01,1.34-3.54,2.12-4.98,3.68-2.58,3.37-3.39,5.42c-.81,2.05-1.22,4.24-1.22,6.58s.41,4.53,1.22,6.58,1.94,3.85,3.39,5.42c1.44,1.56,3.1,2.79,4.98,3.68s3.88,1.34,6.01,1.34Z"/><path class="cls-1" d="m506.58,98.63v-55.14h22.33c2.99,0,5.71.76,8.15,2.28s4.38,3.56,5.81,6.1c1.43,2.55,2.15,5.36,2.15,8.43,0,2.39-.4,4.6-1.2,6.64-.8,2.03-1.94,3.83-3.41,5.4-1.47,1.56-3.2,2.8-5.2,3.72l13.11,22.57h-13.39l-12.44-21.47h-4.33v21.47h-11.58Zm11.58-33.08h9.33c1.1,0,2.1-.28,2.99-.83s1.61-1.29,2.15-2.21c.54-.92.81-1.93.81-3.03s-.27-2.15-.81-3.07-1.25-1.65-2.15-2.2c-.89-.55-1.89-.83-2.99-.83h-9.33v12.17Z"/><path class="cls-1" d="m555.82,98.63v-55.14h35.09v11.58h-23.51v8.23h18.16v11.58h-18.16v12.17h23.51v11.58h-35.09Z"/><path class="cls-1" d="m644,99.65c-3.73,0-7.23-.74-10.52-2.23-3.28-1.48-6.16-3.54-8.64-6.16-2.48-2.63-4.43-5.66-5.83-9.12-1.4-3.45-2.11-7.15-2.11-11.09s.7-7.67,2.11-11.13c1.4-3.45,3.35-6.48,5.83-9.1,2.48-2.61,5.36-4.66,8.64-6.14s6.79-2.23,10.52-2.23c4.46,0,8.57,1.03,12.33,3.09,3.75,2.06,6.87,4.81,9.33,8.25l-10.36,5.55c-1.39-1.6-3.07-2.89-5.02-3.86-1.96-.97-4.05-1.46-6.28-1.46s-4.13.44-6.01,1.32-3.53,2.1-4.96,3.66-2.55,3.37-3.35,5.42c-.8,2.05-1.2,4.25-1.2,6.62s.4,4.53,1.2,6.58,1.92,3.85,3.35,5.42c1.43,1.56,3.08,2.79,4.96,3.68s3.88,1.34,6.01,1.34c2.26,0,4.36-.49,6.3-1.48,1.94-.98,3.61-2.29,5-3.92l10.36,5.63c-2.47,3.41-5.58,6.16-9.33,8.23-3.76,2.07-7.86,3.11-12.33,3.11v.02Z"/><path class="cls-1" d="m673.12,98.63v-55.14h35.09v11.58h-23.51v8.23h18.16v11.58h-18.16v12.17h23.51v11.58h-35.09Z"/><path class="cls-1" d="m715.24,98.63v-55.14h12.52l20.48,34.19v-34.19h11.58v55.14h-12.53l-20.48-34.19v34.19h-11.58.01Z"/><path class="cls-1" d="m809.53,43.49v11.58h-15.87v43.56h-11.58v-43.56h-15.87v-11.58s43.32,0,43.32,0Z"/><path class="cls-1" d="m815.92,98.63v-55.14h22.33c2.99,0,5.71.76,8.15,2.28s4.38,3.56,5.81,6.1c1.43,2.55,2.15,5.36,2.15,8.43,0,2.39-.4,4.6-1.2,6.64-.8,2.03-1.94,3.83-3.41,5.4-1.47,1.56-3.2,2.8-5.2,3.72l13.11,22.57h-13.39l-12.44-21.47h-4.33v21.47h-11.58Zm11.58-33.08h9.33c1.1,0,2.1-.28,2.99-.83s1.61-1.29,2.15-2.21c.54-.92.81-1.93.81-3.03s-.27-2.15-.81-3.07-1.25-1.65-2.15-2.2c-.89-.55-1.89-.83-2.99-.83h-9.33v12.17Z"/><path class="cls-1" d="m882.94,43.49h13.08l20.01,55.14h-12.29l-3.19-8.78h-22.14l-3.19,8.78h-12.29l20.01-55.14h0Zm-.28,34.78h13.63l-6.85-18.75-6.77,18.75h-.01Z"/><path class="cls-1" d="m922.41,98.63v-55.14h11.58v43.56h21.82v11.58s-33.4,0-33.4,0Z"/><path class="cls-1" d="m264.53,198.38v-67.06h25.15c3.67,0,7,.93,9.99,2.8,2.98,1.87,5.36,4.35,7.11,7.45,1.76,3.1,2.63,6.5,2.63,10.2s-.9,7.2-2.71,10.3c-1.8,3.1-4.21,5.57-7.21,7.43-3,1.85-6.27,2.78-9.82,2.78h-11.06v26.11h-14.08Zm14.08-40.23h9.48c1.31,0,2.5-.34,3.59-1.01s1.96-1.56,2.61-2.68.98-2.35.98-3.69-.33-2.62-.98-3.74c-.65-1.12-1.52-2.01-2.61-2.68s-2.28-1.01-3.59-1.01h-9.48v14.8h0Z"/><path class="cls-1" d="m317.18,198.38v-67.06h42.68v14.08h-28.59v10.01h22.08v14.08h-22.08v14.8h28.59v14.08h-42.68Z"/><path class="cls-1" d="m368.39,198.38v-67.06h15.23l24.91,41.58v-41.58h14.08v67.06h-15.23l-24.91-41.58v41.58h-14.08Z"/><path class="cls-1" d="m435.51,198.38v-67.06h15.23l24.91,41.58v-41.58h14.08v67.06h-15.23l-24.91-41.58v41.58h-14.08Z"/><path class="cls-1" d="m525.79,199.62c-3.77,0-7.37-.6-10.8-1.8s-6.44-2.91-9.03-5.15c-2.59-2.24-4.45-4.92-5.6-8.05l13.27-4.89c.32.96,1.05,1.88,2.18,2.76,1.13.88,2.56,1.6,4.29,2.18,1.72.57,3.62.86,5.7.86,1.95,0,3.79-.29,5.53-.86,1.74-.58,3.15-1.37,4.22-2.39,1.07-1.02,1.6-2.22,1.6-3.59s-.56-2.51-1.68-3.43c-1.12-.91-2.56-1.63-4.31-2.15-1.76-.53-3.55-.94-5.37-1.22-4.86-.7-9.2-1.85-13.03-3.45-3.83-1.6-6.86-3.81-9.08-6.66-2.22-2.84-3.33-6.43-3.33-10.78s1.18-7.84,3.55-10.97c2.36-3.13,5.48-5.57,9.34-7.33,3.86-1.76,8.05-2.63,12.55-2.63,3.77,0,7.38.6,10.85,1.8,3.46,1.2,6.48,2.92,9.05,5.17s4.42,4.96,5.53,8.12l-13.22,4.79c-.35-.96-1.09-1.87-2.2-2.73-1.12-.86-2.54-1.57-4.26-2.13-1.72-.56-3.64-.84-5.75-.84-1.89-.03-3.69.25-5.41.84-1.73.59-3.15,1.4-4.26,2.42-1.12,1.02-1.68,2.19-1.68,3.5,0,1.76.53,3.08,1.58,3.95,1.05.88,2.43,1.5,4.14,1.87s3.59.69,5.63.98c4.6.67,8.82,1.87,12.67,3.59,3.85,1.73,6.94,4.02,9.27,6.87,2.33,2.86,3.5,6.33,3.5,10.42s-1.17,7.84-3.52,10.97c-2.35,3.13-5.44,5.57-9.29,7.33s-8.05,2.63-12.62,2.63h-.01Z"/><path class="cls-1" d="m598.72,131.32h16.62l-23.23,36.88v30.17h-14.13v-30.17l-23.23-36.88h16.62l13.7,21.55,13.65-21.55h0Z"/><path class="cls-1" d="m622.65,198.38v-67.06h14.08v52.98h26.54v14.08h-40.62Z"/><path class="cls-1" d="m685.35,198.38l-24.33-67.06h14.94l18.49,50.87,18.49-50.87h14.94l-24.33,67.06h-18.2,0Z"/><path class="cls-1" d="m752.44,131.32h15.9l24.33,67.06h-14.94l-3.88-10.68h-26.92l-3.88,10.68h-14.94l24.33-67.06h0Zm-.33,42.29h16.57l-8.34-22.8-8.24,22.8h.01Z"/><path class="cls-1" d="m800.44,198.38v-67.06h15.23l24.91,41.58v-41.58h14.08v67.06h-15.23l-24.91-41.58v41.58h-14.08Z"/><path class="cls-1" d="m868.24,198.38v-67.06h14.08v67.06h-14.08Z"/><path class="cls-1" d="m915.13,131.32h15.9l24.33,67.06h-14.94l-3.88-10.68h-26.92l-3.88,10.68h-14.94l24.33-67.06h0Zm-.33,42.29h16.57l-8.34-22.8-8.24,22.8h.01Z"/></svg>