<?xml version="1.0" encoding="UTF-8"?><svg id="Layer_2" xmlns="http://www.w3.org/2000/svg" viewBox="0 0 393.18 100"><defs><style>.cls-1{fill:none;}.cls-1,.cls-2{stroke-width:0px;}.cls-2{fill:#fff;}</style></defs><g id="Layer_1-2"><g id="Logo-2"><path id="Initiator" class="cls-2" d="m100,50C100,22.39,77.61,0,50,0S0,22.39,0,50c0,23.45,16.14,43.12,37.92,48.53v-33.25h-10.31v-15.28h10.31v-6.58c0-17.02,7.7-24.91,24.41-24.91,3.17,0,8.63.62,10.87,1.24v13.85c-1.18-.12-3.23-.19-5.78-.19-8.2,0-11.37,3.11-11.37,11.18v5.4h16.33l-2.81,15.28h-13.53v34.35c24.76-2.99,43.94-24.07,43.94-49.63h0Z"/><path id="F" class="cls-1" d="m69.58,65.28l2.81-15.28h-16.33v-5.4c0-8.07,3.17-11.18,11.37-11.18,2.55,0,4.6.06,5.78.19v-13.85c-2.24-.62-7.7-1.24-10.87-1.24-16.71,0-24.41,7.89-24.41,24.91v6.58h-10.31v15.28h10.31v33.25c3.87.96,7.91,1.47,12.08,1.47,2.05,0,4.07-.13,6.06-.37v-34.35h13.53Z"/></g><path class="cls-2" d="m391.09,25.93c-1.14-4.3-4.54-7.7-8.84-8.84-7.79-2.09-39.07-2.09-39.07-2.09,0,0-31.27,0-39.07,2.09-4.3,1.14-7.7,4.54-8.84,8.84-2.09,7.79-2.09,24.07-2.09,24.07,0,0,0,16.27,2.09,24.07,1.14,4.3,4.54,7.7,8.84,8.84,7.79,2.09,39.07,2.09,39.07,2.09,0,0,31.27,0,39.07-2.09,4.3-1.14,7.7-4.54,8.84-8.84,2.09-7.79,2.09-24.07,2.09-24.07,0,0,0-16.27-2.09-24.07h0Zm-57.91,39.07v-30l25.98,15-25.98,15h0Z"/><path class="cls-2" d="m175.88.35c-5.32.25-8.95,1.1-12.13,2.35-3.29,1.28-6.07,3-8.85,5.78-2.77,2.78-4.48,5.57-5.75,8.86-1.23,3.18-2.07,6.82-2.3,12.14-.24,5.32-.29,7.03-.26,20.61s.09,15.28.34,20.61c.25,5.32,1.1,8.95,2.35,12.13,1.28,3.29,3,6.07,5.78,8.85,2.78,2.77,5.57,4.48,8.87,5.75,3.18,1.23,6.82,2.07,12.14,2.3,5.32.23,7.04.29,20.61.26,13.57-.03,15.28-.09,20.62-.34,5.33-.25,8.95-1.11,12.12-2.35,3.29-1.29,6.07-3,8.85-5.78s4.48-5.57,5.75-8.87c1.23-3.18,2.07-6.82,2.3-12.14.23-5.34.29-7.04.26-20.62-.03-13.58-.09-15.28-.34-20.61s-1.1-8.95-2.35-12.13c-1.29-3.29-3-6.07-5.78-8.85s-5.57-4.48-8.87-5.75c-3.18-1.23-6.82-2.07-12.14-2.3S210.07-.02,196.49,0s-15.28.08-20.61.34m.58,90.39c-4.88-.21-7.52-1.02-9.29-1.7-2.34-.9-4-1.99-5.76-3.73s-2.84-3.41-3.75-5.74c-.69-1.76-1.51-4.41-1.74-9.28-.25-5.27-.3-6.85-.33-20.2s.02-14.93.25-20.2c.21-4.87,1.02-7.52,1.7-9.28.9-2.34,1.98-4,3.73-5.76s3.41-2.84,5.74-3.75c1.76-.69,4.41-1.51,9.28-1.74,5.27-.25,6.85-.3,20.2-.33,13.35-.03,14.93.02,20.21.25,4.87.21,7.52,1.02,9.28,1.7,2.34.9,4,1.98,5.76,3.73s2.84,3.41,3.75,5.75c.69,1.76,1.51,4.4,1.74,9.28.25,5.27.31,6.85.33,20.2.02,13.35-.02,14.93-.25,20.2-.21,4.88-1.02,7.52-1.7,9.29-.9,2.34-1.99,4-3.73,5.76s-3.41,2.84-5.74,3.75c-1.76.69-4.41,1.51-9.28,1.74-5.27.25-6.85.3-20.21.33s-14.93-.03-20.2-.25m40.76-67.46c0,3.31,2.7,6,6.01,5.99s6-2.7,5.99-6.01c0-3.31-2.7-6-6.01-5.99,0,0,0,0,0,0-3.31,0-5.99,2.7-5.99,6.01m-46.31,26.77c.03,14.18,11.54,25.65,25.72,25.62s25.65-11.54,25.63-25.72c-.03-14.18-11.55-25.65-25.73-25.62s-25.65,11.55-25.62,25.72m9.01-.02c-.02-9.21,7.43-16.68,16.63-16.7,9.21-.02,16.68,7.43,16.7,16.63.02,9.2-7.43,16.68-16.63,16.7-9.2.02-16.68-7.43-16.7-16.63h0"/></g></svg>