<?xml version="1.0" encoding="UTF-8"?><svg id="Layer_1" xmlns="http://www.w3.org/2000/svg" viewBox="0 0 1466.87 90.91"><defs><style>.cls-1{fill:#fff;stroke-width:0px;}</style></defs><path class="cls-1" d="m45.29,2.19c.82-1.5,1.09-1.78,1.64-1.78.41,0,.68.27,1.37,1.91,1.78,4.92,8.89,24.61,16.68,43.75,4.24,10.39,8.61,20.37,12.85,30.35,3.28,7.66,5.47,9.16,11.76,9.98.96,0,1.23,1.78.14,1.78-5.19-.14-13.12-.41-18.87-.41-3.28,0-8.75.27-12.03.41-1.09,0-1.09-1.78-.14-1.78,5.19-.55,6.42-2.19,4.24-8.2-2.32-6.42-5.33-13.67-8.75-22.42h-25.15c-2.05,5.47-5.88,14.76-7.93,22.01-2.19,7.52,1.37,8.07,5.88,8.61.96,0,1.09,1.78,0,1.78-4.37-.14-10.66-.41-13.26-.41-3.69,0-8.34.27-12.99.41-1.09,0-.82-1.78,0-1.78,3.42-.55,7.38-.82,11.07-7.66,4.24-7.79,8.75-18.59,13.4-29.53C43.1,7.52,44.47,3.96,45.29,2.19Zm-3.69,21.6c-1.64,3.69-3.01,6.97-4.92,11.62-2.73,6.83-4.51,11.62-6.02,15.58,2.87.14,5.6.14,9.98.14,5.06,0,9.57,0,11.76-.14-4.65-12.17-9.43-23.92-10.8-27.2Z"/><path class="cls-1" d="m154.23,62.34c.14-1.23,1.64-1.23,1.64,0-.14,8.2,0,17.22-.82,21.46-.68,3.42-3.55,4.51-8.2,4.51-13.94,0-19.55-.55-36.91-.55-3.01,0-10.8.27-15.45.41-1.09,0-.96-1.78,0-1.78,7.25-.82,8.75-2.05,9.02-13.81.27-9.57.27-19.82.27-29.53,0-8.34,0-15.86-.27-24.47-.27-11.35-.41-13.81-9.43-14.9-.96,0-1.23-1.78,0-1.78,4.51.14,11.48.41,15.99.41s11.89-.27,15.58-.41c.96,0,1.09,1.64,0,1.78-6.83.55-7.66,2.73-8.07,14.76-.27,7.52-.27,15.45-.27,25.84s.14,20.1.27,26.93c.14,9.98,1.78,11.21,9.98,11.35,1.91,0,6.01,0,8.2-.14,11.76-.68,16.13-8.34,18.46-20.1Z"/><path class="cls-1" d="m187.18,71.36c.27,12.03,1.5,14.49,8.34,15.04.96,0,1.09,1.78,0,1.78-4.1-.14-11.62-.41-15.99-.41s-11.35.27-14.9.41c-1.09,0-.82-1.78,0-1.78,8.07-1.09,7.93-3.42,8.48-15.04.27-4.65.27-19.14.27-23.79,0-10.66,0-24.06-.27-29.12-.68-11.62-.68-13.67-8.75-14.76-1.09-.14-1.09-1.78,0-1.78,3.55.14,11.07.41,15.31.41,4.51,0,11.89-.27,15.58-.41.96,0,1.09,1.64,0,1.78-6.83.55-7.79,2.73-8.07,14.76-.27,7.93-.27,18.87-.27,28.16,0,5.47.14,20.23.27,24.74Z"/><path class="cls-1" d="m282.32,3.55c3.69,1.37,5.47,3.42,5.47,7.93-.14,4.24-.82,9.16-1.09,14.22-.14,1.09-2.05.96-2.05,0-1.37-15.86-13.53-21.46-27.48-21.46-22.28,0-33.22,15.45-32.95,41.15.27,28.16,15.31,40.19,35.27,40.19,17.63,0,24.06-7.66,26.11-20.78,0-1.09,2.05-1.23,2.05,0,.14,3.14.14,7.11.14,9.43-.27,9.84-2.46,10.53-6.97,12.58-3.28,1.5-10.39,3.42-21.74,3.42-30.07,0-50.17-15.72-50.44-43.34-.27-29.39,20.92-46.89,49.76-46.89,8.34,0,16.68.82,23.92,3.55Z"/><path class="cls-1" d="m322.91,73.55c.27,8.2,1.91,8.61,9.02,8.75,5.74.14,7.52.14,10.94,0,11.48-.27,16.13-8.2,17.77-16.81.14-.96,1.78-1.09,1.78,0,0,5.19,0,14.63-.68,18.04-.55,3.01-2.87,4.78-8.07,4.78-6.83,0-25.15-.55-38.14-.55-3.01,0-10.8.27-15.45.41-1.09,0-.96-1.78,0-1.78,7.25-.82,8.75-2.05,9.02-13.81.27-9.57.27-19.82.27-29.53,0-8.34,0-15.86-.27-24.47-.27-11.35-.41-13.81-9.43-14.9-.96,0-1.23-1.78,0-1.78,4.51.14,11.48.41,15.99.41,8.61,0,27.48-.27,34.72-.41,3.96,0,5.88.14,5.88,3.42,0,3.55-.96,11.21-1.64,15.86-.14.96-1.91.96-1.78,0-.14-6.83-3.96-11.89-10.8-12.99-6.7-1.09-11.62-.82-19.28-.68-.14,11.35-.14,20.23-.14,32.67,5.6.27,16.95.41,25.29-.14,3.96-.27,4.24-2.05,5.33-1.37.41.27.14,1.37-.14,4.1-.27,2.73-.96,7.38-1.37,8.75-.27.96-1.78.96-1.78,0-.14-4.78-3.55-5.47-9.16-5.74-2.46-.14-13.81-.14-18.18,0-.14,6.7,0,19.14.27,27.75Z"/><path class="cls-1" d="m414.3,66.09c.16,7.22.9,8.69,5,9.02.57,0,.66,1.07,0,1.07-2.46-.08-6.97-.25-9.59-.25s-6.81.16-8.94.25c-.66,0-.49-1.07,0-1.07,4.84-.66,4.76-2.05,5.08-9.02.16-2.79.16-11.48.16-14.27,0-6.4,0-14.43-.16-17.47-.41-6.97-.41-8.2-5.25-8.86-.66-.08-.66-1.07,0-1.07,2.13.08,6.64.25,9.18.25,2.71,0,7.13-.16,9.35-.25.57,0,.66.98,0,1.07-4.1.33-4.67,1.64-4.84,8.86-.16,4.76-.16,11.32-.16,16.89,0,3.28.08,12.14.16,14.84Z"/><path class="cls-1" d="m478.92,56.49c-.08,4.35-.08,12.38-.08,18.86,0,1.48-.08,1.72-.25,1.8-.41.16-.57-.16-1.8-1.39-4.76-4.92-13.12-12.79-21.98-20.99-7.71-7.13-13.69-12.71-17.63-16.07.08,6.31.25,19.02.74,30.5.16,3.28,1.56,5.41,6.56,5.9.57,0,.74,1.07,0,1.07-3.28-.08-7.71-.25-9.27-.25-1.39,0-4.26.16-6.48.25-.66,0-.57-1.07,0-1.07,2.95-.57,4.02-1.31,4.35-5.49.66-9.1.82-22.8.82-29.52,0-4.51,0-11.56-.08-14.76,0-1.23,0-1.56.33-1.64.25-.08.57.08,1.72,1.31,5.66,6.07,13.86,14.19,21.32,20.99,7.13,6.56,12.71,11.56,18.29,16.15,0-9.68.16-17.71-.41-29.11-.33-5.99-.98-6.89-5.58-7.54-.57,0-.66-1.07,0-1.07,2.21.08,6.4.25,7.87.25,1.23,0,4.1-.16,6.31-.25.66,0,.49,1.07,0,1.07-3.12.49-3.94,2.71-4.1,6.48-.16,4.35-.49,13.53-.66,24.52Z"/><path class="cls-1" d="m581.63,52.9c-4.65-11.07-9.02-21.74-11.35-27.07-2.05,4.51-6.29,13.94-10.66,24.33-4.65,10.94-9.98,24.2-15.45,38.28-.68,1.91-.96,2.46-1.64,2.46s-1.09-.68-1.64-2.46c-4.92-14.49-9.57-28.71-15.45-46.34-4.1-12.58-8.75-25.02-10.94-30.76-2.73-6.84-4.24-7.11-8.61-7.66-.96-.14-1.09-1.78,0-1.78,3.42.14,10.25.41,14.22.41,2.32,0,11.07-.27,15.99-.41,1.09,0,1.09,1.78,0,1.78-5.88.68-7.52,1.5-6.15,7.11,2.32,9.02,5.19,17.36,8.61,28.71,3.42,11.21,5.47,17.5,8.61,26.38l10.8-25.43c6.83-16.27,11.48-27.61,13.12-31.72,2.46-6.15,2.73-6.97,3.55-6.97.96,0,.96.68,3.55,7.93,1.64,4.65,5.06,13.4,11.76,29.53l11.48,26.93c2.73-7.66,5.19-15.17,8.89-27.07,2.73-8.89,5.06-17.22,6.97-25.56,1.64-7.52.96-9.3-4.1-9.84-.96,0-1.09-1.78,0-1.78,3.14.14,10.12.41,12.44.41,2.73,0,7.66-.27,10.94-.41,1.23,0,1.09,1.78,0,1.78-6.29.68-8.2,4.92-9.71,8.61-5.06,11.89-9.02,23.38-13.4,35.68-4.38,12.17-11.48,32.13-14.35,40.6-.55,1.78-.82,2.32-1.37,2.32-.82,0-1.09-.68-1.78-2.32-4.38-11.21-8.75-22.28-14.35-35.68Z"/><path class="cls-1" d="m687.16,90.09c-27.48,0-47.98-15.45-47.98-44.16,0-27.07,20.23-45.93,49.62-45.93s45.79,21.19,45.79,42.92c0,27.2-20.5,47.16-47.44,47.16Zm-32.54-45.25c0,24.06,12.71,41.01,32.95,41.01s31.71-16.54,31.71-37.73c0-22.42-10.8-44.43-35.54-43.75-19.68.55-29.12,17.09-29.12,40.46Z"/><path class="cls-1" d="m830.69,55.37c-.14,7.25-.14,20.64-.14,31.44,0,2.46-.14,2.87-.41,3.01-.68.27-.96-.27-3.01-2.32-7.93-8.2-21.87-21.33-36.64-35-12.85-11.89-22.83-21.19-29.39-26.79.14,10.53.41,31.72,1.23,50.85.27,5.47,2.6,9.02,10.94,9.84.96,0,1.23,1.78,0,1.78-5.47-.14-12.85-.41-15.45-.41-2.32,0-7.11.27-10.8.41-1.09,0-.96-1.78,0-1.78,4.92-.96,6.7-2.19,7.25-9.16,1.09-15.17,1.37-38,1.37-49.21,0-7.52,0-19.28-.14-24.61,0-2.05,0-2.6.55-2.73.41-.14.96.14,2.87,2.19,9.43,10.12,23.1,23.65,35.54,35,11.89,10.94,21.19,19.27,30.48,26.93,0-16.13.27-29.53-.68-48.53-.55-9.98-1.64-11.48-9.3-12.58-.96,0-1.09-1.78,0-1.78,3.69.14,10.66.41,13.12.41,2.05,0,6.83-.27,10.53-.41,1.09,0,.82,1.78,0,1.78-5.2.82-6.56,4.51-6.84,10.8-.27,7.25-.82,22.56-1.09,40.87Z"/><path class="cls-1" d="m891.93,89.27c-10.94,0-20.1-1.5-25.02-1.5-2.05,0-10.53.27-16,.41-1.09,0-.96-1.64,0-1.78,10.94-1.09,10.8-4.24,11.21-18.32.14-4.65.27-19.41.27-24.06,0-10.66-.14-22.56-.27-27.2-.27-10.12-2.73-12.44-9.98-13.12-.96,0-.96-1.78,0-1.78,3.42.14,10.94.41,14.35.41,4.78,0,18.18-.41,23.24-.41,30.62,0,50.44,15.31,50.44,43.75,0,26.38-20.23,43.61-48.26,43.61Zm-1.78-82.84c-7.11-.55-12.03-.27-14.35-.14v44.02c0,13.81,0,23.1.55,28.43.41,3.42,2.19,4.1,3.55,4.65,3.01,1.09,7.66,1.91,12.3,1.91,24.06,0,32.54-17.22,32.54-38.82,0-24.88-14.9-38.55-34.59-40.05Z"/><path class="cls-1" d="m976.54,73.55c.27,8.2,1.91,8.61,9.02,8.75,5.74.14,7.52.14,10.94,0,11.48-.27,16.13-8.2,17.77-16.81.14-.96,1.78-1.09,1.78,0,0,5.19,0,14.63-.68,18.04-.55,3.01-2.87,4.78-8.07,4.78-6.83,0-25.15-.55-38.14-.55-3.01,0-10.8.27-15.45.41-1.09,0-.96-1.78,0-1.78,7.25-.82,8.75-2.05,9.02-13.81.27-9.57.27-19.82.27-29.53,0-8.34,0-15.86-.27-24.47-.27-11.35-.41-13.81-9.43-14.9-.96,0-1.23-1.78,0-1.78,4.51.14,11.48.41,15.99.41,8.61,0,27.48-.27,34.72-.41,3.96,0,5.88.14,5.88,3.42,0,3.55-.96,11.21-1.64,15.86-.14.96-1.91.96-1.78,0-.14-6.83-3.96-11.89-10.8-12.99-6.7-1.09-11.62-.82-19.27-.68-.14,11.35-.14,20.23-.14,32.67,5.6.27,16.95.41,25.29-.14,3.96-.27,4.24-2.05,5.33-1.37.41.27.14,1.37-.14,4.1-.27,2.73-.96,7.38-1.37,8.75-.27.96-1.78.96-1.78,0-.14-4.78-3.55-5.47-9.16-5.74-2.46-.14-13.81-.14-18.18,0-.14,6.7,0,19.14.27,27.75Z"/><path class="cls-1" d="m1037.51,43.2c0-10.12.14-18.04-.27-28.57-.27-7.66-2.46-10.25-9.57-10.94-1.09,0-1.23-1.78,0-1.78,3.14.14,9.98.41,13.4.41,4.37,0,14.63-.82,24.33-.55,23.51.68,27.75,14.08,27.75,22.28,0,10.12-6.7,18.18-16.95,23.1,2.05,3.28,8.07,12.3,14.08,19.82,6.56,8.34,10.53,12.44,15.31,16.13,3.42,2.6,7.25,3.01,9.84,3.28,1.09,0,1.23,1.78,0,1.78-2.87.27-14.22.14-17.36-.41-9.71-1.64-13.94-5.47-24.2-20.64-4.1-6.15-7.25-11.48-9.84-15.99-4.24.41-9.3.27-13.4-.14,0,9.16.14,17.5.27,20.64.55,12.85,1.64,13.94,9.57,14.76,1.09,0,1.37,1.78,0,1.78-5.19-.14-15.31-.68-18.04-.68-3.28,0-9.3.55-14.08.68-1.23,0-.96-1.78,0-1.78,7.11-.96,8.75-1.23,9.02-14.63.27-9.84.14-18.87.14-28.57Zm23.1-36.91c-4.51-.41-7.11-.41-9.84-.27,0,3.01-.14,4.51-.14,40.05,5.33.96,10.39,1.09,15.86.55,8.75-.82,12.58-7.93,12.58-18.87,0-12.3-6.15-20.37-18.46-21.46Z"/><path class="cls-1" d="m1174.89,62.34c.14-1.23,1.64-1.23,1.64,0-.14,8.2,0,17.22-.82,21.46-.68,3.42-3.55,4.51-8.2,4.51-13.94,0-19.55-.55-36.91-.55-3.01,0-10.8.27-15.45.41-1.09,0-.96-1.78,0-1.78,7.25-.82,8.75-2.05,9.02-13.81.27-9.57.27-19.82.27-29.53,0-8.34,0-15.86-.27-24.47-.27-11.35-.41-13.81-9.43-14.9-.96,0-1.23-1.78,0-1.78,4.51.14,11.48.41,15.99.41s11.89-.27,15.58-.41c.96,0,1.09,1.64,0,1.78-6.84.55-7.66,2.73-8.07,14.76-.27,7.52-.27,15.45-.27,25.84s.14,20.1.27,26.93c.14,9.98,1.78,11.21,9.98,11.35,1.91,0,6.02,0,8.2-.14,11.76-.68,16.13-8.34,18.46-20.1Z"/><path class="cls-1" d="m1224.23,2.19c.82-1.5,1.09-1.78,1.64-1.78.41,0,.68.27,1.37,1.91,1.78,4.92,8.89,24.61,16.68,43.75,4.24,10.39,8.61,20.37,12.85,30.35,3.28,7.66,5.47,9.16,11.76,9.98.96,0,1.23,1.78.14,1.78-5.2-.14-13.12-.41-18.87-.41-3.28,0-8.75.27-12.03.41-1.09,0-1.09-1.78-.14-1.78,5.2-.55,6.43-2.19,4.24-8.2-2.32-6.42-5.33-13.67-8.75-22.42h-25.15c-2.05,5.47-5.88,14.76-7.93,22.01-2.19,7.52,1.37,8.07,5.88,8.61.96,0,1.09,1.78,0,1.78-4.37-.14-10.66-.41-13.26-.41-3.69,0-8.34.27-12.99.41-1.09,0-.82-1.78,0-1.78,3.42-.55,7.38-.82,11.07-7.66,4.24-7.79,8.75-18.59,13.4-29.53,17.91-41.69,19.28-45.25,20.1-47.03Zm-3.69,21.6c-1.64,3.69-3.01,6.97-4.92,11.62-2.73,6.83-4.51,11.62-6.01,15.58,2.87.14,5.6.14,9.98.14,5.06,0,9.57,0,11.76-.14-4.65-12.17-9.43-23.92-10.8-27.2Z"/><path class="cls-1" d="m1357.38,55.37c-.14,7.25-.14,20.64-.14,31.44,0,2.46-.14,2.87-.41,3.01-.68.27-.96-.27-3.01-2.32-7.93-8.2-21.87-21.33-36.64-35-12.85-11.89-22.83-21.19-29.39-26.79.14,10.53.41,31.72,1.23,50.85.27,5.47,2.6,9.02,10.94,9.84.96,0,1.23,1.78,0,1.78-5.47-.14-12.85-.41-15.45-.41-2.32,0-7.11.27-10.8.41-1.09,0-.96-1.78,0-1.78,4.92-.96,6.7-2.19,7.25-9.16,1.09-15.17,1.37-38,1.37-49.21,0-7.52,0-19.28-.14-24.61,0-2.05,0-2.6.55-2.73.41-.14.96.14,2.87,2.19,9.43,10.12,23.1,23.65,35.54,35,11.89,10.94,21.19,19.27,30.48,26.93,0-16.13.27-29.53-.68-48.53-.55-9.98-1.64-11.48-9.3-12.58-.96,0-1.09-1.78,0-1.78,3.69.14,10.66.41,13.12.41,2.05,0,6.83-.27,10.53-.41,1.09,0,.82,1.78,0,1.78-5.2.82-6.56,4.51-6.84,10.8-.27,7.25-.82,22.56-1.09,40.87Z"/><path class="cls-1" d="m1418.62,89.27c-10.94,0-20.1-1.5-25.02-1.5-2.05,0-10.53.27-16,.41-1.09,0-.96-1.64,0-1.78,10.94-1.09,10.8-4.24,11.21-18.32.14-4.65.27-19.41.27-24.06,0-10.66-.14-22.56-.27-27.2-.27-10.12-2.73-12.44-9.98-13.12-.96,0-.96-1.78,0-1.78,3.42.14,10.94.41,14.35.41,4.78,0,18.18-.41,23.24-.41,30.62,0,50.44,15.31,50.44,43.75,0,26.38-20.23,43.61-48.26,43.61Zm-1.78-82.84c-7.11-.55-12.03-.27-14.35-.14v44.02c0,13.81,0,23.1.55,28.43.41,3.42,2.19,4.1,3.55,4.65,3.01,1.09,7.66,1.91,12.3,1.91,24.06,0,32.54-17.22,32.54-38.82,0-24.88-14.9-38.55-34.59-40.05Z"/></svg>