<svg width="61" height="61" viewBox="0 0 61 61" fill="none" xmlns="http://www.w3.org/2000/svg">
<circle cx="30.2138" cy="30.6561" r="30.2138" fill="#FFFBDB"/>
<path d="M19.2449 44.9401C18.9249 43.4467 18.7649 41.5267 18.7649 39.1801C18.7649 36.8334 19.6716 34.3001 21.4849 31.5801C23.3516 28.8601 25.0583 27.0201 26.6049 26.0601C27.5116 26.4334 28.3649 27.0467 29.1649 27.9001C28.5783 29.6601 26.9249 32.1134 24.2049 35.2601C23.5116 36.0601 23.1116 36.5134 23.0049 36.6201C24.8716 36.6201 26.1516 36.6734 26.8449 36.7801C27.1649 37.7934 27.3249 39.1801 27.3249 40.9401C27.3249 42.7001 27.2716 43.9534 27.1649 44.7001C25.9916 44.9667 24.7383 45.1001 23.4049 45.1001C22.1249 45.1001 20.7383 45.0467 19.2449 44.9401ZM32.7649 44.9401C32.4449 43.4467 32.2849 41.5267 32.2849 39.1801C32.2849 36.8334 33.1916 34.3001 35.0049 31.5801C36.8716 28.8601 38.5783 27.0201 40.1249 26.0601C41.0316 26.4334 41.8849 27.0467 42.6849 27.9001C42.0983 29.6601 40.4183 32.1134 37.6449 35.2601C37.0049 36.0601 36.6316 36.5134 36.5249 36.6201C38.3916 36.6201 39.6716 36.6734 40.3649 36.7801C40.6849 37.7934 40.8449 39.1801 40.8449 40.9401C40.8449 42.7001 40.7916 43.9534 40.6849 44.7001C39.5116 44.9667 38.2583 45.1001 36.9249 45.1001C35.6449 45.1001 34.2583 45.0467 32.7649 44.9401Z" fill="black"/>
</svg>
