<svg width="561" height="806" viewBox="0 0 561 806" fill="none" xmlns="http://www.w3.org/2000/svg">
<rect y="34" width="561" height="772" rx="25" fill="#F4E8FF"/>
<circle cx="280.55" cy="40.5502" r="40.5502" fill="#FFFBDB"/>
<path d="M268.57 48.0639C268.25 46.5706 268.09 44.6506 268.09 42.304C268.09 39.9573 268.996 37.4239 270.81 34.7039C272.676 31.9839 274.383 30.1439 275.93 29.1839C276.836 29.5573 277.69 30.1706 278.49 31.0239C277.903 32.7839 276.25 35.2373 273.53 38.3839C272.836 39.1839 272.436 39.6373 272.33 39.7439C274.196 39.7439 275.476 39.7973 276.17 39.9039C276.49 40.9173 276.65 42.3039 276.65 44.064C276.65 45.824 276.596 47.0773 276.49 47.824C275.316 48.0906 274.063 48.224 272.73 48.224C271.45 48.224 270.063 48.1706 268.57 48.0639ZM282.09 48.0639C281.77 46.5706 281.61 44.6506 281.61 42.304C281.61 39.9573 282.516 37.4239 284.33 34.7039C286.196 31.9839 287.903 30.1439 289.45 29.1839C290.356 29.5573 291.21 30.1706 292.01 31.0239C291.423 32.7839 289.743 35.2373 286.97 38.3839C286.33 39.1839 285.956 39.6373 285.85 39.7439C287.716 39.7439 288.996 39.7973 289.69 39.9039C290.01 40.9173 290.17 42.3039 290.17 44.064C290.17 45.824 290.116 47.0773 290.01 47.824C288.836 48.0906 287.583 48.224 286.25 48.224C284.97 48.224 283.583 48.1706 282.09 48.0639Z" fill="black"/>
</svg>
