<?xml version="1.0" standalone="no"?>
<!DOCTYPE svg PUBLIC "-//W3C//DTD SVG 20010904//EN"
 "http://www.w3.org/TR/2001/REC-SVG-20010904/DTD/svg10.dtd">
<svg version="1.0" xmlns="http://www.w3.org/2000/svg"
 width="1056.000000pt" height="1056.000000pt" viewBox="0 0 1056.000000 1056.000000"
 preserveAspectRatio="xMidYMid meet">
<metadata>
Created by potrace 1.14, written by Peter Selinger 2001-2017
</metadata>
<g transform="translate(0.000000,1056.000000) scale(0.100000,-0.100000)"
fill="#000000" stroke="none">
<path d="M6709 10555 c-2 -2 -35 -6 -74 -10 -80 -7 -170 -20 -170 -25 0 -2
-31 -8 -80 -15 -22 -3 -58 -10 -80 -16 -22 -5 -50 -12 -62 -14 -12 -3 -35 -10
-50 -16 -16 -6 -39 -13 -52 -15 -13 -3 -36 -11 -52 -19 -15 -8 -33 -15 -39
-15 -16 0 -267 -126 -280 -141 -3 -3 -22 -15 -43 -28 -21 -13 -43 -28 -50 -34
-16 -15 -47 -35 -67 -44 -8 -4 -17 -9 -20 -12 -3 -3 -26 -21 -51 -38 -146
-102 -287 -280 -354 -448 -15 -39 -32 -76 -37 -82 -6 -7 -8 -13 -5 -13 3 0 -1
-17 -9 -37 -9 -20 -18 -45 -20 -55 -2 -10 -6 -27 -9 -38 -16 -65 -27 -126 -27
-152 1 -15 -23 -30 -53 -33 -14 -1 -91 -24 -145 -42 -25 -8 -49 -16 -55 -17
-42 -11 -110 -44 -188 -93 -81 -51 -171 -139 -297 -288 -170 -202 -185 -219
-202 -237 -10 -10 -18 -20 -18 -23 0 -2 -10 -15 -22 -27 -13 -13 -42 -46 -65
-74 -24 -28 -53 -62 -65 -76 -13 -14 -46 -51 -74 -84 -57 -66 -203 -234 -240
-276 -13 -16 -28 -28 -32 -28 -5 0 -9 12 -9 28 -2 55 -18 250 -29 342 -3 30
-8 80 -10 110 -20 243 -28 286 -89 445 -15 39 -32 76 -37 83 -6 6 -7 12 -4 12
4 0 0 7 -8 16 -9 8 -16 22 -16 30 0 8 -4 14 -10 14 -5 0 -10 5 -10 12 0 6 -11
26 -25 44 -14 18 -25 36 -25 39 0 4 -6 12 -12 20 -7 7 -29 32 -48 55 -19 24
-54 61 -79 84 -24 23 -55 51 -68 64 -12 13 -23 20 -23 17 0 -4 -8 1 -18 11
-30 31 -134 94 -227 139 -89 42 -215 95 -228 95 -4 0 -26 8 -50 19 -23 10 -62
24 -87 31 -25 8 -49 17 -55 20 -10 7 -106 35 -115 33 -3 0 -15 3 -28 8 -30 12
-121 22 -202 22 -60 1 -177 -10 -190 -18 -3 -1 -27 -5 -55 -9 -48 -6 -82 -11
-135 -21 -14 -3 -43 -8 -65 -11 -22 -3 -44 -7 -50 -9 -5 -1 -29 -6 -53 -10
-23 -4 -45 -12 -48 -16 -3 -5 -13 -9 -23 -9 -10 0 -50 -16 -90 -35 -39 -19
-76 -35 -81 -35 -6 0 -10 -4 -10 -10 0 -5 -4 -10 -10 -10 -13 0 -113 -64 -170
-108 -75 -59 -189 -182 -245 -267 -46 -70 -114 -201 -119 -230 -1 -5 -4 -14
-8 -20 -3 -5 -9 -26 -13 -45 -4 -19 -10 -39 -13 -45 -3 -5 -7 -16 -8 -25 -1
-8 -5 -37 -10 -65 -11 -61 -11 -277 -1 -325 4 -19 10 -48 12 -65 9 -72 24
-164 29 -193 3 -13 8 -50 11 -83 4 -33 8 -68 10 -78 8 -45 27 -212 29 -263 0
-21 3 -38 6 -38 3 0 6 -24 7 -53 1 -28 4 -74 7 -102 10 -88 19 -216 31 -410
14 -231 19 -470 19 -950 0 -499 -4 -758 -20 -1280 -4 -121 -7 -298 -8 -392 -1
-95 -3 -173 -6 -173 -9 0 -13 -1048 -5 -1320 7 -213 14 -396 19 -470 3 -36 8
-110 11 -165 4 -55 8 -120 10 -145 3 -25 7 -74 10 -110 3 -36 7 -84 10 -107 3
-24 8 -71 11 -105 7 -84 12 -126 18 -168 5 -41 14 -111 21 -177 3 -27 8 -59
10 -73 9 -42 12 -63 19 -115 4 -27 10 -63 13 -80 3 -16 6 -46 8 -65 1 -19 3
-35 5 -35 1 0 4 -13 6 -30 5 -34 59 -201 82 -254 9 -20 16 -38 16 -41 5 -33
136 -246 197 -317 105 -126 276 -271 387 -330 26 -14 49 -28 52 -32 24 -35
250 -155 340 -180 25 -8 52 -16 60 -19 26 -9 74 -18 155 -30 66 -9 293 -9 375
1 124 14 377 92 388 119 2 4 8 8 13 8 6 0 44 19 85 43 42 23 84 47 95 53 11 6
31 21 45 33 13 11 26 21 29 21 8 0 118 94 159 136 64 65 146 167 146 183 0 6
4 11 9 11 14 0 126 228 152 310 27 86 23 74 34 125 4 22 10 49 12 60 12 55 14
80 19 205 3 74 6 140 5 145 0 6 -3 33 -6 60 -14 141 -15 133 6 128 10 -3 24
-11 30 -19 6 -8 18 -14 25 -14 8 0 14 -4 14 -9 0 -5 10 -13 23 -17 12 -4 24
-10 27 -13 6 -8 123 -80 163 -100 15 -8 27 -18 27 -23 0 -4 5 -8 10 -8 6 0 52
-26 103 -57 50 -32 100 -62 109 -68 10 -5 89 -55 178 -110 88 -55 172 -107
187 -115 15 -8 32 -18 38 -23 42 -31 102 -67 112 -67 6 0 13 -4 15 -8 9 -21
207 -135 283 -163 47 -17 82 -28 110 -35 17 -4 35 -8 40 -10 107 -30 331 -35
450 -10 38 8 73 12 77 10 4 -3 8 -1 8 3 0 5 8 9 18 10 11 1 63 18 118 38 58
22 121 39 154 41 30 1 55 3 55 4 0 1 9 3 20 5 11 2 36 7 55 10 19 4 40 11 45
15 6 5 12 8 15 9 30 1 217 94 258 129 89 74 212 205 212 226 0 3 9 15 20 26
12 12 18 25 15 30 -4 6 -3 10 2 10 8 0 49 82 63 129 5 14 20 64 35 111 14 47
28 92 30 100 2 8 11 42 20 75 25 92 46 177 50 207 2 15 6 32 9 37 3 5 8 43 11
86 2 42 7 81 10 86 4 5 2 9 -2 9 -5 0 -9 26 -9 58 -1 54 -5 89 -19 172 -18
103 -131 368 -175 410 -3 3 -21 25 -40 50 -30 40 -167 179 -202 205 -7 6 -47
37 -88 70 -41 33 -81 65 -90 72 -8 7 -44 35 -80 64 -36 28 -98 76 -137 105
-40 30 -81 60 -90 68 -10 8 -43 33 -73 55 -30 22 -60 44 -66 49 -6 5 -35 27
-65 48 -30 21 -55 42 -57 46 -2 5 -10 8 -17 8 -7 0 -15 4 -17 8 -3 8 -67 54
-238 170 -52 36 -105 74 -117 85 -13 11 -23 17 -23 12 0 -5 -10 0 -22 11 -23
20 -241 163 -305 200 -18 10 -33 22 -33 26 0 4 -4 8 -9 8 -5 0 -42 20 -83 44
-77 47 -98 60 -468 276 -96 56 -178 105 -182 108 -4 4 12 28 35 53 23 25 80
88 127 139 113 125 130 142 286 307 134 140 136 141 155 122 10 -10 19 -22 19
-26 0 -8 9 -18 112 -125 83 -87 183 -167 268 -216 25 -14 53 -32 64 -41 10 -9
19 -14 20 -12 0 2 20 -6 44 -18 23 -12 42 -18 42 -14 0 5 4 3 8 -4 4 -6 16
-13 27 -15 11 -1 22 -6 25 -9 3 -4 43 -18 90 -33 85 -26 98 -29 161 -40 19 -3
43 -8 55 -10 11 -2 45 -7 76 -10 30 -3 79 -11 109 -16 77 -15 149 -24 187 -25
17 0 32 -2 32 -5 0 -5 53 -10 171 -15 37 -1 71 -5 75 -8 5 -2 29 -5 54 -5 25
-1 74 -4 110 -8 143 -14 593 -7 760 12 19 2 80 6 135 9 180 10 249 15 305 22
30 4 78 7 105 5 284 -10 403 -4 575 33 14 3 34 7 45 10 11 2 52 13 90 25 88
26 86 25 110 35 11 5 43 17 70 27 87 34 205 91 205 100 0 4 6 8 13 8 12 0 122
68 179 112 104 78 209 188 275 289 24 35 46 69 51 74 16 20 112 226 112 240 0
8 5 15 12 15 6 0 9 3 5 6 -3 4 0 23 8 43 66 172 79 424 31 606 -34 130 -111
294 -194 415 -44 64 -66 92 -120 155 -28 32 -116 107 -173 148 -56 40 -233
135 -264 142 -5 1 -21 7 -35 12 -52 22 -243 83 -273 88 -18 3 -39 8 -48 11
-10 2 -30 6 -45 8 -16 2 -42 7 -58 12 -16 4 -43 8 -60 9 -17 2 -37 3 -44 4 -8
1 5 27 32 65 26 35 46 68 46 74 0 6 3 12 8 14 9 4 70 108 101 173 13 28 27 57
32 65 5 8 14 26 19 40 6 14 13 32 17 40 3 8 7 20 9 25 1 6 18 53 37 105 19 52
35 98 36 103 1 4 1 8 2 10 2 6 11 44 14 62 8 37 13 60 15 63 4 4 6 15 15 67 7
46 10 63 20 105 17 78 22 260 11 445 -4 66 -9 154 -11 196 -4 82 -19 185 -34
236 -5 17 -7 34 -3 37 3 3 1 6 -4 6 -5 0 -11 11 -12 24 -1 21 -16 64 -47 141
-4 11 -9 25 -10 30 -6 23 -125 275 -135 285 -3 3 -16 28 -30 55 -14 28 -31 56
-38 64 -7 8 -21 26 -30 40 -64 98 -200 222 -356 324 -11 6 -26 20 -35 30 -8 9
-19 17 -24 17 -4 0 -20 11 -35 25 -15 14 -32 25 -39 25 -7 0 -13 5 -13 10 0 6
-7 10 -15 10 -8 0 -15 5 -15 10 0 6 -7 10 -15 10 -8 0 -15 3 -15 8 0 4 -15 13
-32 21 -18 8 -45 23 -60 33 -16 11 -28 17 -28 14 0 -4 -21 4 -47 17 -27 14
-66 30 -88 36 -22 7 -46 14 -53 16 -7 3 -16 5 -20 6 -4 1 -18 6 -32 11 -14 5
-33 12 -42 14 -10 2 -26 6 -35 9 -117 30 -178 42 -268 51 -27 3 -57 8 -65 11
-33 11 -532 28 -541 18z"/>
</g>
</svg>
