<?xml version="1.0" standalone="no"?>
<!DOCTYPE svg PUBLIC "-//W3C//DTD SVG 20010904//EN"
 "http://www.w3.org/TR/2001/REC-SVG-20010904/DTD/svg10.dtd">
<svg version="1.0" xmlns="http://www.w3.org/2000/svg"
 width="700.000000pt" height="700.000000pt" viewBox="0 0 700.000000 700.000000"
 preserveAspectRatio="xMidYMid meet">
<metadata>
Created by potrace 1.14, written by Peter Selinger 2001-2017
</metadata>
<g transform="translate(0.000000,700.000000) scale(0.100000,-0.100000)"
fill="#000000" stroke="none">
<path d="M0 3500 l0 -3500 3500 0 3500 0 0 3500 0 3500 -3500 0 -3500 0 0
-3500z m1629 2276 l22 -24 -34 -21 c-52 -32 -122 -112 -138 -157 -7 -21 -14
-70 -14 -109 0 -58 5 -81 32 -138 36 -75 150 -247 164 -247 5 0 170 155 366
345 196 190 362 345 368 345 6 0 51 -27 99 -60 218 -148 362 -293 461 -464 22
-36 43 -66 48 -66 5 0 148 133 317 295 170 162 314 295 320 295 37 0 308 -205
416 -316 243 -246 348 -515 361 -926 l6 -167 30 -7 30 -6 -6 -149 c-4 -82 -5
-149 -2 -149 14 0 391 320 521 443 97 91 69 95 254 -31 428 -291 634 -569 722
-975 18 -86 22 -134 22 -307 1 -235 -9 -286 -89 -437 -90 -171 -203 -297 -599
-673 l-240 -227 -150 73 c-146 70 -285 126 -393 158 l-53 15 1 -77 c0 -42 4
-135 8 -207 9 -150 24 -190 92 -248 22 -20 39 -41 37 -47 -1 -5 -116 -61 -253
-123 -138 -62 -305 -139 -373 -172 -110 -53 -124 -57 -138 -43 -14 13 -12 22
20 80 58 104 76 194 86 428 5 113 10 275 10 361 l0 157 -137 26 c-76 14 -171
31 -210 37 -40 7 -73 17 -73 23 0 6 37 43 82 81 46 39 138 126 206 195 l124
125 -1 265 c0 146 -4 346 -7 445 l-6 180 -117 -120 c-63 -66 -185 -190 -270
-276 l-153 -157 -142 72 c-187 96 -401 186 -588 247 l-153 51 -182 -185 -183
-185 -98 56 c-289 167 -661 294 -1044 357 -56 9 -50 34 18 79 74 50 191 167
239 240 21 33 52 91 69 130 30 68 31 77 31 206 0 195 -30 292 -195 640 -155
326 -181 418 -161 567 29 207 173 348 480 469 103 40 111 41 140 10z"/>
<path d="M1906 5143 l-178 -175 52 -111 c76 -162 94 -243 87 -392 -12 -258
-105 -437 -314 -604 -55 -45 -76 -67 -65 -69 273 -53 564 -144 842 -264 l115
-49 22 28 c72 89 133 258 157 432 19 130 21 395 5 526 -47 383 -211 657 -494
823 l-51 29 -178 -174z"/>
<path d="M3186 5187 l-137 -132 26 -73 c89 -251 120 -559 75 -738 -37 -145
-144 -328 -254 -433 -20 -19 -36 -38 -36 -42 0 -4 17 -10 37 -14 115 -21 516
-157 697 -236 l91 -40 31 36 c66 75 141 272 159 419 l7 54 -58 22 c-71 26
-233 66 -308 75 -30 4 -57 12 -59 19 -6 15 378 482 394 478 15 -4 6 45 -28
153 -77 243 -225 426 -454 558 l-45 27 -138 -133z"/>
<path d="M4598 4003 l-128 -105 0 -458 c0 -251 -3 -539 -7 -638 -5 -160 -4
-182 9 -182 24 0 259 -82 388 -134 63 -26 191 -84 283 -129 l169 -81 29 34
c45 54 117 206 139 295 56 221 39 477 -45 701 -114 302 -369 611 -633 765 -37
21 -69 39 -72 38 -3 0 -62 -48 -132 -106z"/>
</g>
</svg>
