<?xml version="1.0" standalone="no"?>
<!DOCTYPE svg PUBLIC "-//W3C//DTD SVG 20010904//EN"
 "http://www.w3.org/TR/2001/REC-SVG-20010904/DTD/svg10.dtd">
<svg version="1.0" xmlns="http://www.w3.org/2000/svg"
 width="1000.000000pt" height="1000.000000pt" viewBox="0 0 1000.000000 1000.000000"
 preserveAspectRatio="xMidYMid meet">
<metadata>
Created by potrace 1.14, written by Peter Selinger 2001-2017
</metadata>
<g transform="translate(0.000000,1000.000000) scale(0.100000,-0.100000)"
fill="#000000" stroke="none">
<path d="M2820 9789 c-149 -13 -218 -20 -242 -25 -13 -2 -48 -7 -78 -10 -65
-7 -95 -12 -95 -14 0 -1 -11 -3 -25 -5 -14 -1 -37 -5 -52 -9 -16 -3 -40 -8
-55 -11 -16 -3 -39 -8 -53 -11 -14 -3 -36 -8 -50 -11 -13 -2 -29 -8 -36 -14
-6 -5 -13 -6 -17 -3 -5 5 -159 -35 -217 -57 -14 -5 -34 -11 -45 -14 -20 -4
-97 -30 -125 -42 -8 -3 -17 -7 -20 -8 -148 -51 -462 -201 -582 -278 -31 -21
-60 -37 -63 -37 -3 0 -11 -5 -18 -10 -7 -6 -57 -42 -112 -81 -55 -39 -101 -75
-103 -80 -2 -5 -8 -9 -14 -9 -6 0 -18 -8 -27 -18 -9 -9 -36 -33 -61 -53 -48
-39 -199 -186 -240 -234 -91 -107 -138 -168 -195 -254 -83 -125 -189 -337
-201 -400 -3 -14 -8 -29 -12 -35 -4 -6 -7 -13 -8 -16 0 -3 -6 -25 -13 -50 -7
-25 -15 -53 -17 -63 -2 -10 -5 -26 -8 -35 -37 -121 -43 -474 -11 -616 3 -12 7
-34 9 -49 5 -30 33 -132 43 -157 3 -8 8 -24 10 -35 2 -10 9 -23 16 -27 6 -4 9
-8 4 -8 -4 0 0 -15 10 -32 9 -18 18 -39 19 -46 1 -7 32 -57 68 -111 103 -155
280 -309 425 -370 72 -30 84 -33 172 -37 71 -3 80 -1 129 29 67 41 110 101
125 174 13 63 3 136 -21 164 -8 8 -14 20 -14 25 0 6 -38 50 -85 100 -126 132
-170 192 -213 294 -12 28 -26 70 -28 85 -1 6 -3 12 -4 15 -9 23 -23 113 -24
155 -1 22 -5 45 -9 52 -4 6 -3 14 2 18 7 3 7 15 1 29 -5 13 -7 26 -5 27 2 2 6
40 9 84 14 184 42 283 129 465 18 36 34 67 37 70 3 3 13 21 24 40 10 19 31 52
47 72 16 20 29 40 29 43 0 4 6 13 12 20 7 7 31 35 53 61 80 96 217 226 310
296 17 12 32 25 35 28 10 11 177 118 235 150 130 73 396 193 452 203 18 4 39
11 78 27 22 9 169 49 200 55 11 2 20 4 20 5 0 1 7 3 15 5 8 1 41 8 72 14 32 7
70 14 85 16 16 2 28 4 28 5 0 3 23 7 180 27 28 3 71 7 97 7 27 1 48 4 48 7 0
8 587 3 655 -5 28 -4 66 -8 85 -11 19 -2 35 -4 35 -5 0 -1 16 -3 35 -5 93 -10
260 -48 374 -86 83 -27 264 -105 276 -120 3 -3 31 -22 62 -43 125 -82 239
-226 282 -357 39 -116 47 -212 31 -351 -8 -67 -8 -71 -25 -133 -6 -22 -12 -47
-14 -55 -3 -8 -10 -28 -17 -45 -7 -16 -11 -36 -10 -42 1 -7 -3 -13 -9 -13 -5
0 -10 -6 -10 -13 0 -25 -117 -234 -153 -273 -7 -7 -23 -27 -37 -45 -27 -36
-170 -182 -210 -214 -68 -54 -112 -85 -180 -126 -72 -43 -89 -52 -191 -97 -51
-23 -185 -63 -191 -56 -8 8 -129 15 -333 19 -181 3 -220 1 -281 -15 -200 -52
-295 -154 -289 -310 3 -87 55 -170 124 -201 17 -8 31 -17 31 -21 0 -5 3 -7 8
-7 4 1 9 0 12 -1 3 -1 12 -3 20 -5 8 -2 29 -8 46 -13 30 -10 276 -8 339 1 83
13 154 21 187 21 21 1 38 4 38 7 0 16 354 0 400 -18 8 -3 23 -8 33 -10 50 -9
218 -95 225 -114 2 -5 9 -9 15 -9 10 0 109 -92 144 -134 37 -44 98 -152 109
-191 1 -5 11 -35 21 -66 26 -75 25 -274 -1 -398 -15 -67 -38 -120 -54 -119
-19 0 -60 -9 -147 -32 -22 -6 -51 -13 -65 -16 -13 -3 -71 -20 -129 -39 -57
-19 -108 -32 -113 -29 -4 3 -8 0 -8 -5 0 -6 -9 -11 -19 -11 -11 0 -23 -5 -26
-10 -4 -6 -10 -8 -15 -5 -5 3 -11 1 -14 -4 -6 -9 -21 -6 -78 15 -10 4 -18 10
-18 15 0 5 -3 8 -7 7 -5 -1 -30 9 -58 22 -27 13 -52 24 -55 25 -3 1 -16 6 -30
12 -14 6 -68 27 -120 48 -52 20 -104 40 -115 45 -22 9 -138 41 -230 64 -67 17
-113 25 -165 31 -19 2 -35 4 -35 5 0 7 -126 13 -250 14 -134 0 -253 -7 -310
-20 -11 -2 -31 -6 -45 -8 -108 -20 -223 -57 -317 -103 -51 -25 -93 -49 -93
-54 0 -5 -5 -9 -11 -9 -23 0 -145 -109 -184 -165 -11 -16 -24 -33 -30 -39 -15
-16 -61 -114 -80 -171 -35 -103 -52 -315 -31 -405 17 -78 30 -119 59 -180 24
-52 77 -138 98 -160 8 -8 31 -34 52 -58 20 -23 37 -40 37 -37 0 2 10 -6 23
-18 13 -12 32 -29 43 -37 70 -54 94 -70 94 -63 0 4 4 3 8 -3 6 -9 137 -78 152
-80 3 0 22 -8 44 -17 21 -9 42 -14 47 -11 21 13 19 -30 -5 -93 -35 -92 -73
-226 -70 -246 1 -9 -1 -17 -4 -17 -4 0 -8 -10 -9 -22 -1 -13 -5 -52 -9 -88
-10 -86 -10 -311 0 -380 5 -30 9 -68 11 -85 8 -82 68 -268 120 -368 111 -218
318 -413 514 -485 83 -30 189 -37 246 -14 95 37 159 134 157 237 -1 79 -4 95
-14 95 -5 0 -7 4 -4 8 8 13 -48 86 -121 161 -103 105 -131 142 -172 226 -124
255 -112 643 27 933 18 37 34 57 47 58 11 2 45 6 75 9 94 10 159 19 210 30 14
3 39 8 56 10 48 7 304 82 356 104 25 11 49 17 52 14 3 -4 6 -1 6 5 0 7 3 11 8
10 4 -1 21 3 37 8 17 6 34 11 39 12 5 0 12 5 16 12 4 6 13 12 21 13 30 5 259
132 357 198 l102 69 75 -51 c41 -28 75 -52 75 -53 0 -2 -35 -75 -78 -162 -43
-87 -87 -180 -98 -206 -10 -27 -22 -48 -26 -48 -5 0 -8 -6 -8 -13 0 -8 -6 -27
-14 -43 -21 -43 -71 -153 -138 -304 -33 -74 -68 -153 -78 -175 -10 -22 -37
-85 -60 -140 -23 -55 -50 -118 -60 -140 -10 -22 -28 -65 -40 -95 -12 -30 -26
-64 -31 -75 -31 -73 -99 -235 -99 -239 0 -2 -9 -24 -20 -50 -12 -25 -21 -49
-21 -53 -1 -5 -6 -17 -12 -28 -6 -11 -12 -22 -13 -25 -1 -7 -10 -29 -71 -180
-30 -74 -56 -142 -58 -150 -4 -15 -119 -309 -135 -345 -5 -11 -36 -90 -69
-175 -92 -240 -105 -275 -106 -282 0 -3 -3 -10 -7 -14 -5 -4 -8 -16 -8 -26 0
-10 -4 -18 -8 -18 -5 0 -9 -6 -9 -12 0 -7 -17 -58 -38 -113 -120 -317 -195
-576 -195 -670 0 -95 53 -189 131 -233 109 -61 281 -39 367 48 26 26 71 95 77
120 1 3 8 19 15 35 7 17 14 35 16 40 3 14 104 316 111 335 4 8 7 17 8 20 7 30
30 88 38 97 5 7 7 13 4 13 -3 0 6 30 20 68 13 37 26 72 27 77 2 6 8 24 15 40
6 17 19 50 28 75 8 25 18 52 21 60 3 8 4 18 4 23 -1 4 2 7 6 7 5 0 9 6 9 13 1
14 38 118 59 164 8 18 31 76 50 130 19 54 39 102 44 108 4 5 9 13 9 18 1 4 1
8 2 10 0 1 2 9 4 17 3 15 98 257 115 295 5 11 23 54 38 95 37 96 153 379 186
454 14 32 26 65 26 72 0 8 5 14 10 14 6 0 9 3 8 8 -1 6 8 34 29 82 3 8 7 17 7
20 1 3 5 11 9 18 5 6 5 12 0 12 -4 0 -3 4 2 8 6 4 26 43 44 87 18 44 42 100
53 125 23 51 38 85 66 150 22 50 58 131 99 217 15 32 26 61 25 65 -1 5 3 8 10
8 6 0 8 3 5 6 -4 4 0 19 8 33 7 14 31 64 53 111 21 47 59 127 83 178 l45 93
119 -83 c66 -46 158 -108 205 -138 47 -30 90 -58 95 -63 34 -26 102 -67 112
-67 6 0 13 -4 15 -8 7 -18 311 -193 535 -308 92 -48 168 -86 168 -84 0 2 17
-6 38 -16 l37 -20 -40 -24 c-23 -14 -47 -30 -53 -35 -7 -6 -34 -21 -62 -35
-27 -14 -51 -28 -53 -32 -2 -5 -11 -8 -21 -8 -9 0 -22 -5 -27 -10 -6 -6 -19
-12 -30 -14 -10 -3 -50 -16 -89 -31 -55 -21 -80 -25 -120 -21 -199 22 -492 26
-571 7 -29 -7 -58 -14 -65 -15 -8 -2 -31 -10 -51 -20 -21 -9 -42 -16 -48 -16
-5 0 -10 -4 -10 -10 0 -5 -6 -10 -12 -10 -20 0 -120 -112 -114 -127 3 -7 1
-13 -5 -13 -6 0 -9 -7 -6 -15 4 -8 2 -17 -2 -19 -13 -9 -4 -118 14 -159 32
-76 120 -142 215 -162 59 -13 395 -8 395 6 0 1 11 3 25 4 14 1 54 6 90 10 36
4 98 8 137 9 40 1 73 3 73 6 0 10 197 -8 230 -20 3 -1 9 -2 14 -1 4 1 14 -4
22 -10 8 -6 14 -9 14 -6 0 8 109 -36 165 -67 123 -69 253 -201 301 -306 64
-139 69 -164 69 -325 -1 -107 -5 -145 -25 -215 -13 -47 -23 -88 -22 -92 1 -5
-2 -8 -8 -8 -5 0 -10 -6 -10 -14 0 -19 -64 -140 -118 -221 -49 -73 -228 -258
-303 -311 -68 -49 -179 -115 -179 -106 0 4 -4 2 -8 -4 -14 -21 -216 -99 -311
-119 -11 -3 -31 -7 -43 -10 -61 -14 -136 -19 -278 -19 -146 1 -179 3 -275 19
-155 25 -338 102 -432 182 -105 89 -133 108 -193 136 -56 26 -77 30 -150 30
-122 1 -202 -39 -246 -123 -26 -49 -25 -179 2 -235 30 -62 68 -117 110 -161
50 -51 164 -139 192 -148 12 -4 22 -12 22 -17 0 -5 6 -9 13 -9 7 0 39 -13 73
-29 33 -17 82 -37 109 -46 28 -9 56 -18 63 -20 7 -3 14 -5 17 -5 3 -1 19 -6
37 -11 39 -12 66 -19 93 -24 11 -2 31 -6 45 -9 217 -46 687 -57 870 -21 120
24 185 38 225 48 6 1 16 6 23 10 6 5 12 6 12 2 0 -3 9 -1 21 5 11 7 33 14 47
16 15 3 33 11 41 17 8 7 16 10 18 9 10 -10 270 112 363 170 72 45 78 49 181
126 102 76 283 247 334 317 17 22 37 47 46 55 9 8 18 20 20 25 2 6 30 49 62
97 31 47 57 91 57 97 0 6 5 11 11 11 5 0 7 4 4 10 -3 5 -1 10 4 10 6 0 11 3
10 8 -2 16 14 52 24 52 6 0 7 3 4 7 -4 3 -3 11 2 17 13 16 82 218 77 224 -3 2
-1 13 4 23 6 10 12 33 14 51 3 18 5 33 6 33 4 0 12 118 12 185 1 72 -6 149
-17 198 -3 12 -7 30 -9 40 -24 105 -74 219 -144 325 -64 98 -219 252 -322 319
-78 51 -229 136 -248 139 -4 1 -18 6 -32 11 -14 6 -34 13 -44 17 -16 6 -11 13
35 37 71 40 103 58 109 64 3 3 38 27 78 54 83 55 56 55 242 6 100 -26 109 -28
175 -40 28 -5 61 -12 75 -15 14 -3 37 -6 53 -7 15 -1 27 -5 27 -8 0 -3 26 -6
58 -8 31 -1 68 -5 82 -8 91 -18 548 -25 720 -11 172 15 197 17 235 22 22 3 65
10 95 15 30 5 73 12 95 15 22 2 55 9 74 15 19 5 37 8 39 5 3 -3 11 0 19 6 7 6
13 9 13 6 0 -15 292 73 450 135 95 37 292 139 303 155 4 7 12 13 17 13 25 0
179 122 269 212 123 124 198 265 198 371 0 159 -135 290 -290 282 -98 -5 -171
-56 -302 -210 -130 -152 -275 -264 -446 -344 -88 -42 -288 -111 -374 -130
-106 -24 -166 -35 -197 -35 -16 -1 -28 -3 -28 -6 0 -3 -8 -6 -17 -6 -10 -1
-52 -4 -93 -9 -41 -5 -93 -9 -115 -10 -22 0 -45 -3 -50 -6 -13 -6 -396 -3
-465 5 -116 12 -156 17 -180 22 -14 3 -38 7 -55 10 -16 3 -53 10 -82 17 l-52
12 39 60 c22 33 43 65 48 70 15 19 122 243 122 257 0 8 3 18 8 22 4 4 8 12 8
17 1 5 2 10 4 12 1 1 3 9 5 17 1 8 10 42 18 75 24 92 31 150 30 270 -1 110 -7
187 -17 215 -3 8 -8 26 -10 40 -20 100 -70 218 -139 330 -47 73 -44 69 -95
129 -80 95 -252 243 -315 272 -15 7 -27 15 -27 18 0 4 -44 29 -97 56 -54 28
-99 53 -101 58 -2 4 -11 7 -21 7 -9 0 -27 7 -39 16 -12 8 -22 13 -22 10 0 -3
-21 4 -47 15 -27 12 -93 36 -148 54 -86 28 -130 40 -217 61 -44 10 -147 31
-188 38 -14 3 -25 5 -25 6 0 2 -43 8 -87 11 -21 2 -38 5 -38 8 0 4 -19 6 -43
7 -23 0 -76 4 -117 8 -167 16 -203 17 -397 19 -195 1 -203 2 -197 21 21 66 26
302 9 400 -17 93 -55 210 -90 280 -26 51 -82 143 -100 162 -5 7 -32 39 -60 71
-27 33 -83 86 -123 119 -40 32 -79 64 -85 69 -46 41 -308 175 -341 175 -30 0
-12 25 34 48 58 28 256 159 289 190 10 9 37 33 61 52 72 59 193 181 262 265
67 82 178 247 178 265 0 5 5 10 10 10 6 0 10 4 10 9 0 5 15 42 34 83 31 69 70
176 82 229 33 141 44 294 29 401 -16 121 -43 222 -85 316 -16 34 -26 62 -22
62 4 0 2 4 -4 8 -6 4 -18 21 -27 38 -28 55 -132 188 -198 253 -70 69 -223 188
-279 216 -19 10 -37 21 -40 24 -6 7 -174 95 -177 93 -2 -1 -24 8 -50 19 -53
23 -273 98 -304 104 -10 2 -23 6 -28 10 -5 3 -22 7 -38 10 -15 2 -50 9 -78 15
-27 6 -61 13 -75 15 -14 3 -36 7 -50 10 -57 12 -87 17 -120 20 -19 2 -44 6
-56 9 -11 2 -54 7 -95 11 -41 4 -92 9 -114 12 -72 8 -598 10 -685 2z m90
-4513 c14 -3 51 -11 84 -17 32 -6 104 -26 160 -45 55 -20 109 -38 119 -41 9
-3 17 -8 17 -12 -1 -3 -38 -29 -83 -58 -45 -29 -91 -59 -102 -67 -36 -29 -91
-71 -125 -96 -76 -57 -243 -218 -345 -332 l-50 -56 -66 21 c-63 21 -194 96
-184 105 3 3 -3 11 -13 18 -23 16 -59 88 -71 141 -18 87 6 225 50 277 18 22
55 58 71 71 58 45 165 87 231 90 26 1 50 5 53 8 6 6 221 0 254 -7z m2620 -101
c136 -6 215 -12 215 -15 0 -1 11 -3 25 -4 103 -11 183 -25 335 -61 125 -30
325 -115 433 -185 56 -36 151 -124 203 -187 55 -67 112 -200 126 -292 12 -84
7 -243 -10 -311 -2 -8 -7 -33 -12 -55 -11 -57 -50 -158 -96 -250 -63 -126 -54
-121 -138 -80 -39 19 -76 35 -82 35 -5 0 -15 4 -22 10 -10 8 -240 128 -314
164 -13 6 -23 14 -23 19 0 4 -5 7 -10 7 -6 0 -63 32 -127 70 -64 39 -120 70
-125 70 -4 0 -8 4 -8 8 0 5 -15 16 -32 26 -18 9 -42 22 -53 29 -39 23 -480
320 -485 326 -3 3 -31 23 -62 43 -68 45 -79 64 -68 113 6 27 4 43 -12 82 -50
124 -179 177 -323 132 -30 -9 -55 -13 -55 -8 0 5 -5 9 -10 9 -6 0 -20 8 -31
19 -20 19 -20 19 48 109 37 50 80 108 94 130 18 26 34 38 50 39 48 1 243 14
245 16 4 3 191 -1 324 -8z m-1795 -395 c-3 -5 -12 -10 -18 -10 -7 0 -6 4 3 10
19 12 23 12 15 0z"/>
<path d="M2678 8974 c-90 -32 -158 -93 -242 -219 -58 -87 -146 -250 -146 -270
0 -8 -4 -15 -8 -17 -10 -3 -92 -172 -92 -188 0 -5 -4 -10 -10 -10 -5 0 -10 -5
-10 -12 0 -6 -22 -58 -50 -115 -27 -57 -50 -110 -50 -118 0 -8 -4 -15 -10 -15
-5 0 -10 -5 -10 -12 0 -6 -11 -34 -24 -62 -37 -78 -86 -187 -86 -191 0 -3 -11
-28 -24 -57 -57 -122 -124 -278 -120 -278 2 0 -5 -16 -16 -35 -11 -20 -20 -42
-20 -50 0 -7 -7 -20 -15 -29 -9 -8 -15 -18 -15 -21 2 -14 -24 -85 -32 -85 -4
0 -8 -6 -8 -14 0 -11 -78 -207 -122 -306 -6 -14 -13 -29 -14 -35 -3 -11 -165
-415 -194 -485 -10 -25 -53 -135 -95 -245 -42 -110 -84 -215 -92 -234 -8 -18
-19 -45 -23 -60 -5 -14 -23 -62 -40 -106 -17 -44 -47 -123 -66 -175 -19 -52
-38 -104 -43 -115 -5 -11 -26 -67 -46 -125 -20 -58 -39 -112 -42 -120 -3 -8
-7 -19 -8 -25 -2 -5 -12 -38 -24 -71 -12 -34 -24 -70 -26 -80 -11 -48 -27
-110 -32 -124 -8 -22 -15 -70 -16 -110 -1 -42 23 -140 35 -140 4 0 8 -6 8 -12
1 -17 35 -58 49 -58 6 0 11 -4 11 -9 0 -18 103 -53 159 -53 122 0 195 30 259
107 14 16 82 158 87 179 1 6 8 25 15 41 7 17 12 38 12 48 0 9 3 17 7 17 4 0 8
6 9 13 1 20 10 56 17 67 3 5 8 18 10 27 3 17 22 73 82 238 23 64 32 91 33 98
0 1 14 38 31 82 17 44 37 100 46 125 8 25 22 60 30 78 8 18 16 40 18 50 3 14
110 296 140 367 4 11 9 25 11 30 4 17 76 199 82 210 4 6 7 15 8 20 3 12 187
471 213 529 17 39 32 75 36 86 3 10 26 65 40 95 7 16 28 64 45 105 18 41 41
94 51 117 11 24 19 48 19 55 0 6 7 19 16 29 8 9 16 26 17 38 1 11 4 21 8 21 4
0 10 10 14 23 9 27 8 23 25 70 8 20 18 37 22 37 4 0 8 8 8 18 0 10 3 22 8 26
4 4 7 11 8 14 0 4 15 38 32 75 18 38 32 70 32 72 0 2 21 47 46 102 25 54 60
127 76 163 17 36 56 119 88 185 122 254 135 280 135 285 1 3 10 25 22 50 93
205 112 321 63 390 -11 15 -20 32 -20 37 -1 12 -76 63 -94 63 -8 0 -17 4 -20
9 -9 13 -135 10 -178 -5z"/>
</g>
</svg>
