<svg width="1440" height="1491" viewBox="0 0 1440 1491" fill="none" xmlns="http://www.w3.org/2000/svg">
<rect width="1440" height="1360" fill="white"/>
<g opacity="0.4">
<path d="M469.171 1144.01C534.753 1126.69 588.267 1064.13 588.267 1001.57C588.267 939.001 524.981 900.57 407.393 900.57C240.095 900.57 121.786 996.253 121.786 1098.04C121.786 1142.5 137.591 1159.81 147.429 1169.65C161.004 1183.23 168.546 1190.77 168.546 1204.34C168.546 1217.13 157.987 1233.72 139.887 1233.72C124.803 1233.72 109.719 1226.18 98.4394 1217.13C85.651 1207.36 45.7119 1177.19 45.7119 1098.04C45.7119 968.381 197.205 841.809 407.459 841.809C572.527 841.809 664.473 909.62 664.473 1001.57C664.473 1064.13 615.483 1128.92 546.164 1165.13C607.941 1186.96 643.355 1233.72 643.355 1287.24C643.355 1380.69 540.852 1477.88 418.018 1477.88C295.184 1477.88 262.786 1425.88 262.786 1403.25C262.786 1380.63 280.887 1375.38 294.462 1375.38C307.251 1375.38 317.809 1381.41 330.663 1392.69C346.468 1406.99 373.619 1419.06 418.083 1419.06C499.47 1419.06 567.281 1352.75 567.281 1287.17C567.281 1242.71 528.063 1203.49 476.057 1203.49C447.398 1203.49 426.346 1209.52 406.738 1209.52C376.57 1209.52 361.552 1196.74 361.552 1177.13C361.552 1155.29 382.669 1140.93 418.805 1140.93C436.118 1140.93 451.989 1142.43 469.302 1143.94L469.171 1144.01ZM268.689 1258.58C244.555 1320.36 224.946 1373.15 211.436 1416.11C202.386 1442.47 196.352 1456.04 169.267 1456.04C147.429 1456.04 133.853 1435.71 140.608 1412.3C144.412 1394.99 156.413 1358.79 195.631 1259.3C240.095 1144.01 286.068 1039.27 317.744 978.219C333.549 948.838 347.124 935.263 367.454 935.263C382.538 935.263 394.605 946.543 394.605 961.626C394.605 972.185 386.342 990.286 372.766 1018.88C343.386 1078.43 303.447 1169.59 268.754 1258.51L268.689 1258.58Z" fill="#E9E9E9"/>
<path d="M-33.5027 931.459C-33.5027 874.928 7.9448 834.268 96.1518 834.268C154.913 834.268 212.231 859.91 270.205 895.324C289.027 870.468 300.372 841.088 300.372 812.429C300.372 767.965 261.155 728.747 209.214 728.747C180.555 728.747 159.503 734.781 139.895 734.781C109.727 734.781 94.709 721.992 94.709 702.383C94.709 680.545 115.826 666.182 151.962 666.182C169.275 666.182 185.146 667.691 202.459 669.199C268.041 651.886 321.555 589.321 321.555 526.756C321.555 464.192 258.269 425.761 140.682 425.761C-26.6166 425.761 -144.925 521.444 -144.925 623.227C-144.925 667.691 -129.12 685.004 -119.283 694.841C-105.708 708.417 -98.1659 715.959 -98.1659 729.534C-98.1659 742.322 -108.725 758.915 -126.825 758.915C-141.909 758.915 -156.992 751.373 -168.272 742.322C-181.061 732.551 -221 702.383 -221 623.227C-221.131 493.572 -69.638 367 140.616 367C305.684 367 397.629 434.811 397.629 526.756C397.629 589.321 348.64 654.115 279.321 690.316C341.098 712.155 376.512 758.915 376.512 812.429C376.512 854.598 357.69 896.832 327.523 933.033C439.077 1009.17 553.582 1101.84 685.466 1101.84C806.792 1101.84 849.748 1058.88 866.34 1037.77C881.424 1019.67 888.965 1013.63 903.262 1013.63C920.576 1013.63 934.938 1029.44 934.938 1046.82C934.938 1075.48 874.669 1159.88 685.466 1159.88C523.415 1159.88 392.317 1055.15 280.763 975.989C233.282 1011.4 171.505 1034.03 105.202 1034.03C22.3071 1034.03 -33.4371 990.286 -33.4371 931.525L-33.5027 931.459ZM1.91129 783.77C-22.2227 845.548 -41.8315 898.341 -55.3413 941.296C-64.3915 967.66 -70.425 981.236 -97.5757 981.236C-119.414 981.236 -132.99 960.905 -126.235 937.493C-122.497 920.179 -110.43 883.978 -71.212 784.491C-26.7478 669.199 19.2248 564.466 50.9006 503.409C66.7057 474.029 80.2811 460.454 100.611 460.454C115.695 460.454 127.762 471.734 127.762 486.817C127.762 497.376 119.499 515.476 105.923 544.07C76.5429 603.618 36.6039 694.776 1.91129 783.704V783.77ZM224.954 938.28C178.981 908.899 136.025 888.569 96.0862 888.569C59.1639 888.569 38.0467 905.161 38.0467 931.525C38.0467 960.905 62.902 975.989 105.136 975.989C150.322 975.989 191.769 960.905 224.954 938.28Z" fill="#F2EBDA"/>
<mask id="mask0_407_197" style="mask-type:luminance" maskUnits="userSpaceOnUse" x="33" y="828" width="645" height="663">
<path d="M33.0112 828.693V1491H677.939V828.693H33.0112ZM216.574 959.331C185.291 979.793 161.223 1005.04 146.205 1032.78C137.548 1033.57 128.826 1033.96 119.972 1033.96C95.9694 1033.96 74.3931 1030.22 55.6368 1023.6C63.3754 1005.7 73.7373 988.318 86.6568 971.792C96.035 974.546 107.184 975.923 119.972 975.923C156.042 975.923 189.62 966.217 218.607 950.871L216.574 959.266V959.331ZM590.978 1144.07C564.942 1136.66 539.759 1127.02 515.363 1115.74V1115.61C533.594 1103.22 549.071 1087.35 560.614 1069.38C585.928 1080.59 611.833 1089.51 638.328 1095.15C625.605 1112.92 609.406 1129.65 590.978 1144.14V1144.07Z" fill="white"/>
</mask>
<g mask="url(#mask0_407_197)">
<path d="M469.652 1144.01C535.233 1126.69 588.747 1064.13 588.747 1001.57C588.747 939.001 525.461 900.57 407.874 900.57C240.576 900.57 122.267 996.253 122.267 1098.04C122.267 1142.5 138.072 1159.81 147.909 1169.65C161.485 1183.23 169.026 1190.77 169.026 1204.34C169.026 1217.13 158.468 1233.72 140.367 1233.72C125.284 1233.72 110.2 1226.18 98.9198 1217.13C86.1315 1207.36 46.1924 1177.19 46.1924 1098.04C46.1924 968.381 197.685 841.809 407.939 841.809C573.008 841.809 664.953 909.62 664.953 1001.57C664.953 1064.13 615.964 1128.92 546.644 1165.13C608.422 1186.96 643.836 1233.72 643.836 1287.24C643.836 1380.69 541.332 1477.88 418.498 1477.88C295.664 1477.88 263.267 1425.88 263.267 1403.25C263.267 1380.63 281.367 1375.38 294.943 1375.38C307.731 1375.38 318.29 1381.41 331.144 1392.69C346.949 1406.99 374.099 1419.06 418.564 1419.06C499.95 1419.06 567.761 1352.75 567.761 1287.17C567.761 1242.71 528.544 1203.49 476.538 1203.49C447.878 1203.49 426.827 1209.52 407.218 1209.52C377.051 1209.52 362.032 1196.74 362.032 1177.13C362.032 1155.29 383.15 1140.93 419.285 1140.93C436.599 1140.93 452.469 1142.43 469.783 1143.94L469.652 1144.01ZM269.169 1258.58C245.035 1320.36 225.426 1373.15 211.917 1416.11C202.866 1442.47 196.833 1456.04 169.748 1456.04C147.909 1456.04 134.334 1435.71 141.089 1412.3C144.892 1394.99 156.894 1358.79 196.111 1259.3C240.576 1144.01 286.548 1039.27 318.224 978.219C334.029 948.838 347.605 935.263 367.935 935.263C383.019 935.263 395.085 946.543 395.085 961.626C395.085 972.185 386.822 990.286 373.247 1018.88C343.866 1078.43 303.927 1169.59 269.235 1258.51L269.169 1258.58Z" fill="#E5F9F5"/>
</g>
</g>
</svg>
