<?xml version="1.0" encoding="UTF-8"?><svg id="Layer_2" xmlns="http://www.w3.org/2000/svg" xmlns:xlink="http://www.w3.org/1999/xlink" viewBox="0 0 250 240.22"><defs><style>.cls-1{clip-path:url(#clippath);}.cls-2{fill:none;}.cls-2,.cls-3,.cls-4{stroke-width:0px;}.cls-3{fill:#E2A700;}.cls-4{fill:#155D4C;}</style><clipPath id="clippath"><path class="cls-2" d="m52.6,100.67v141.55h137.8V100.67H52.6Zm38.63,27.07c-6.91,4.52-12.22,10.12-15.49,16.28-1.71.14-3.43.21-5.17.21-5.01,0-9.56-.74-13.52-2.08,1.68-3.89,3.94-7.66,6.76-11.25,1.94.51,4.2.78,6.76.78,7.64,0,14.78-2,20.96-5.2l-.3,1.26Zm80.72,40.17c-5.31-1.54-10.46-3.51-15.45-5.79,3.92-2.71,7.26-6.17,9.76-10.06,5.21,2.28,10.53,4.11,15.97,5.3-2.77,3.84-6.28,7.45-10.28,10.55Z"/></clipPath></defs><g id="Layer_1-2"><path class="cls-4" d="m146.19,168.02c14.18-3.75,25.75-17.27,25.75-30.8s-13.69-21.84-39.11-21.84c-36.18,0-61.77,20.7-61.77,42.7,0,9.62,3.42,13.36,5.54,15.48,2.93,2.93,4.56,4.56,4.56,7.5,0,2.77-2.28,6.36-6.19,6.36-3.26,0-6.52-1.63-8.96-3.59-2.77-2.12-11.41-8.64-11.41-25.75,0-28.03,32.76-55.41,78.23-55.41,35.69,0,55.57,14.67,55.57,34.55,0,13.53-10.59,27.54-25.59,35.37,13.36,4.73,21.02,14.83,21.02,26.4,0,20.21-22.16,41.23-48.73,41.23s-33.57-11.25-33.57-16.13,3.91-6.03,6.84-6.03c2.77,0,5.05,1.3,7.82,3.75,3.42,3.1,9.29,5.7,18.9,5.7,17.6,0,32.27-14.34,32.27-28.52,0-9.62-8.47-18.09-19.72-18.09-6.19,0-10.76,1.3-14.99,1.3-6.52,0-9.78-2.77-9.78-7.01,0-4.73,4.56-7.82,12.39-7.82,3.75,0,7.17.33,10.92.65Zm-43.35,24.77c-5.22,13.36-9.45,24.77-12.39,34.06-1.96,5.7-3.26,8.64-9.13,8.64-4.73,0-7.66-4.4-6.19-9.45.82-3.75,3.42-11.57,11.9-33.08,9.62-24.94,19.56-47.59,26.4-60.79,3.42-6.36,6.36-9.29,10.76-9.29,3.26,0,5.87,2.44,5.87,5.7,0,2.28-1.79,6.19-4.73,12.39-6.36,12.88-14.99,32.6-22.49,51.83Z"/><path class="cls-3" d="m40.58,122.07c0-12.22,8.96-21.02,28.03-21.02,12.71,0,25.1,5.54,37.65,13.2,4.07-5.38,6.52-11.73,6.52-17.93,0-9.62-8.47-18.09-19.72-18.09-6.19,0-10.76,1.3-14.99,1.3-6.52,0-9.78-2.77-9.78-7.01,0-4.73,4.56-7.82,12.39-7.82,3.75,0,7.17.33,10.92.65,14.18-3.75,25.75-17.27,25.75-30.8s-13.69-21.84-39.11-21.84c-36.18,0-61.77,20.7-61.77,42.7,0,9.62,3.42,13.36,5.54,15.48,2.93,2.93,4.56,4.56,4.56,7.5,0,2.77-2.28,6.36-6.19,6.36-3.26,0-6.52-1.63-8.96-3.59-2.77-2.12-11.41-8.64-11.41-25.75C0,27.38,32.76,0,78.23,0c35.69,0,55.57,14.67,55.57,34.55,0,13.53-10.59,27.54-25.59,35.37,13.36,4.73,21.02,14.83,21.02,26.4,0,9.13-4.07,18.25-10.59,26.07,24.12,16.46,48.89,36.51,77.41,36.51,26.24,0,35.53-9.29,39.11-13.85,3.26-3.91,4.89-5.22,7.98-5.22,3.75,0,6.85,3.42,6.85,7.17,0,6.19-13.04,24.44-53.94,24.44-35.04,0-63.4-22.65-87.52-39.77-10.27,7.66-23.63,12.55-37.97,12.55-17.93,0-29.99-9.45-29.99-22.16Zm7.66-31.94c-5.22,13.36-9.45,24.77-12.39,34.06-1.96,5.7-3.26,8.64-9.13,8.64-4.73,0-7.66-4.4-6.19-9.45.81-3.75,3.42-11.57,11.9-33.08,9.61-24.94,19.56-47.59,26.4-60.79,3.42-6.36,6.36-9.29,10.76-9.29,3.26,0,5.87,2.44,5.87,5.7,0,2.28-1.79,6.19-4.73,12.39-6.36,12.88-14.99,32.6-22.49,51.83Zm48.24,33.41c-9.94-6.36-19.23-10.76-27.87-10.76-7.99,0-12.55,3.58-12.55,9.29,0,6.36,5.38,9.61,14.5,9.61,9.78,0,18.74-3.26,25.91-8.15Z"/><g class="cls-1"><path class="cls-4" d="m146.19,168.02c14.18-3.75,25.75-17.27,25.75-30.8s-13.69-21.84-39.11-21.84c-36.18,0-61.77,20.7-61.77,42.7,0,9.62,3.42,13.36,5.54,15.48,2.93,2.93,4.56,4.56,4.56,7.5,0,2.77-2.28,6.36-6.19,6.36-3.26,0-6.52-1.63-8.96-3.59-2.77-2.12-11.41-8.64-11.41-25.75,0-28.03,32.76-55.41,78.23-55.41,35.69,0,55.57,14.67,55.57,34.55,0,13.53-10.59,27.54-25.59,35.37,13.36,4.73,21.02,14.83,21.02,26.4,0,20.21-22.16,41.23-48.73,41.23s-33.57-11.25-33.57-16.13,3.91-6.03,6.84-6.03c2.77,0,5.05,1.3,7.82,3.75,3.42,3.1,9.29,5.7,18.9,5.7,17.6,0,32.27-14.34,32.27-28.52,0-9.62-8.47-18.09-19.72-18.09-6.19,0-10.76,1.3-14.99,1.3-6.52,0-9.78-2.77-9.78-7.01,0-4.73,4.56-7.82,12.39-7.82,3.75,0,7.17.33,10.92.65Zm-43.35,24.77c-5.22,13.36-9.45,24.77-12.39,34.06-1.96,5.7-3.26,8.64-9.13,8.64-4.73,0-7.66-4.4-6.19-9.45.82-3.75,3.42-11.57,11.9-33.08,9.62-24.94,19.56-47.59,26.4-60.79,3.42-6.36,6.36-9.29,10.76-9.29,3.26,0,5.87,2.44,5.87,5.7,0,2.28-1.79,6.19-4.73,12.39-6.36,12.88-14.99,32.6-22.49,51.83Z"/></g></g></svg>