<?xml version="1.0" encoding="UTF-8"?><svg id="Layer_2" xmlns="http://www.w3.org/2000/svg" viewBox="0 0 160 98.05"><defs><style>.cls-1{fill:#fff;stroke-width:0px;}</style></defs><g id="Layer_1-2"><path class="cls-1" d="m0,0h15.19l2.93,2.87v17.38l-2.99,2.87,2.99,2.93v17.45l-2.93,2.87H0l.73-2.87V2.81L0,0Zm6.53,19.58l.67.67h4.45l.67-.67V6.4l-.67-.67h-4.45l-.67.67v13.18Zm5.12,6.47h-4.45l-.67.67v13.11l.67.67h4.45l.67-.67v-13.11l-.67-.67Z"/><path class="cls-1" d="m22.02,46.36l.73-2.81V2.87l-.73-2.87h15.19l2.93,2.87v20.31l-2.93,2.93,2.5,17.32.92,2.93h-7.2l.49-2.75-2.44-16.96-.49-.55h-1.83l-.67.67v16.77l.73,2.81h-7.2Zm11.65-26.05l.67-.67V6.53l-.67-.67h-4.51l-.67.67v13.12l.67.67h4.51Z"/><path class="cls-1" d="m44.04,46.36l.73-2.87V2.81l-.73-2.81h17.38l1.04,6.4-2.99-.67h-8.3l-.67.67v13.18l.67.67h2.32l2.87-.73v7.26l-2.87-.73h-2.32l-.67.67v13.11l.67.67h8.3l2.99-.67-1.04,6.53h-17.38Z"/><path class="cls-1" d="m92.53,43.19l.55,3.17h-7.93l.55-3.17-3.96-24.7-3.84,24.7.55,3.17h-7.93l.55-3.17-6.22-39.16-1.34-4.03h7.2l-.43,1.95,4.15,28.3,4.15-28.3-.49-1.95h7.26l-.49,1.95,4.21,28.3,4.15-28.3-.49-1.95h7.26l-1.34,3.96-6.1,39.22Z"/><path class="cls-1" d="m120.77,11.59h-7.26l.67-2.81v-2.26l-.67-.67h-4.45l-.67.67v13.12l.67.67h8.05l2.87,2.87v20.31l-2.87,2.87h-11.59l-2.99-2.87v-5.86l-.67-2.81h7.26l-.73,2.81v2.26l.67.67h4.45l.67-.67v-13.12l-.67-.67h-7.99l-2.99-2.93V2.87l2.99-2.87h11.59l2.87,2.87v5.92l.79,2.81Z"/><path class="cls-1" d="m44.19,51.69h15.19l2.93,2.87v17.38l-2.99,2.87,2.99,2.93v17.45l-2.93,2.87h-15.19l.73-2.87v-40.69l-.73-2.81Zm6.53,19.58l.67.67h4.45l.67-.67v-13.18l-.67-.67h-4.45l-.67.67v13.18Zm5.12,6.47h-4.45l-.67.67v13.12l.67.67h4.45l.67-.67v-13.12l-.67-.67Z"/><path class="cls-1" d="m83.96,64.01v31.8l-2.87,2.24h-11.59l-2.93-2.24v-31.8l2.93-2.24h11.59l2.87,2.24Zm-6.53,2.34h-4.39l-.67.52v26.12l.67.52h4.39l.67-.52v-26.12l-.67-.52Z"/><path class="cls-1" d="m95.06,98.05h-7.2l.73-2.81v-40.69l-.73-2.87h6.47l7.2,27.21v-24.34l-.73-2.87h7.26l-.73,2.87v40.69l.73,2.81h-6.53l-7.2-27.27v24.46l.73,2.81Z"/><path class="cls-1" d="m111.52,51.69h15.19l2.93,2.87v40.63l-2.93,2.87h-15.19l.67-2.87v-40.69l-.67-2.81Zm6.47,39.83l.67.67h4.45l.67-.67v-33.43l-.67-.67h-4.45l-.67.67v33.43Z"/><path class="cls-1" d="m152.27,63.28h-7.26l.67-2.81v-2.26l-.67-.67h-4.45l-.67.67v13.12l.67.67h8.05l2.87,2.87v20.31l-2.87,2.87h-11.59l-2.99-2.87v-5.86l-.67-2.81h7.26l-.73,2.81v2.26l.67.67h4.45l.67-.67v-13.12l-.67-.67h-7.99l-2.99-2.93v-20.31l2.99-2.87h11.59l2.87,2.87v5.92l.79,2.81Z"/><rect class="cls-1" x="66.54" y="52.08" width="17.39" height="4.7"/><path class="cls-1" d="m146.33,18.23c1.97,0,2.98.69,2.98,1.86,0,1.38-1.12,2.18-3.4,2.18-.96,0-2.02-.37-3.62-.37-4.63,0-9.52,4.41-9.52,9.79,0,3.62,2.71,5.8,6.76,5.8,6.33,0,10.37-4.74,10.37-8.72,0-.43-.05-.85-.11-1.22-3.3,1.92-4.04,3.03-4.63,3.88-.74,1.06-1.33,1.38-2.45,1.38-1.49,0-2.18-.96-2.18-2.18,0-1.54,1.38-3.03,7.87-6.44,4.36-2.34,5.48-3.3,6.22-4.2.96-1.12,1.86-1.92,3.3-1.92s2.07.96,2.07,2.18c0,1.33-1.54,2.61-5.64,4.84.53.9.9,2.07.9,3.67,0,5.9-6.17,12.39-15.85,12.39-7.02,0-12.4-3.51-12.4-9.47s5.59-10.85,11.65-11.86c-1.97-1.22-3.24-3.4-3.24-6.12,0-5.96,6.44-10.27,13.14-10.27,5.85,0,9.42,2.66,9.42,6.28,0,3.09-2.18,5.48-3.94,5.48-1.65,0-2.61-.96-2.61-2.34,0-.8.43-2.02,1.44-3.72-.53-1.22-2.13-1.97-4.47-1.97-3.83,0-7.23,2.71-7.23,6.6,0,2.82,1.22,4.79,2.29,4.79,1.06-.11,2.13-.32,2.87-.32Z"/></g></svg>