<?xml version="1.0" encoding="UTF-8"?><svg id="Layer_2" xmlns="http://www.w3.org/2000/svg" viewBox="0 0 65 40.21"><defs><style>.cls-1{fill:#e1a600;stroke-width:0px;}</style></defs><g id="Layer_1-2"><path class="cls-1" d="m0,0h13.17l2.54,2.49v15.08l-2.59,2.49,2.59,2.54v15.13l-2.54,2.49H0l.63-2.49V2.43L0,0Zm5.66,16.98l.58.58h3.86l.58-.58V5.55l-.58-.58h-3.86l-.58.58v11.43Zm4.44,5.61h-3.86l-.58.58v11.37l.58.58h3.86l.58-.58v-11.37l-.58-.58Z"/><path class="cls-1" d="m34.55,16.97c1.06,0,1.6.37,1.6,1,0,.74-.6,1.17-1.83,1.17-.51,0-1.09-.2-1.94-.2-2.48,0-5.11,2.37-5.11,5.25,0,1.94,1.46,3.11,3.63,3.11,3.4,0,5.57-2.54,5.57-4.68,0-.23-.03-.46-.06-.66-1.77,1.03-2.17,1.63-2.48,2.08-.4.57-.71.74-1.31.74-.8,0-1.17-.51-1.17-1.17,0-.83.74-1.63,4.23-3.45,2.34-1.26,2.94-1.77,3.34-2.26.51-.6,1-1.03,1.77-1.03s1.11.51,1.11,1.17c0,.71-.83,1.4-3.03,2.6.29.48.49,1.11.49,1.97,0,3.17-3.31,6.65-8.51,6.65-3.77,0-6.65-1.88-6.65-5.08s3-5.82,6.25-6.37c-1.06-.66-1.74-1.83-1.74-3.28,0-3.2,3.45-5.51,7.05-5.51,3.14,0,5.05,1.43,5.05,3.37,0,1.66-1.17,2.94-2.11,2.94-.88,0-1.4-.51-1.4-1.26,0-.43.23-1.09.77-2-.29-.66-1.14-1.06-2.4-1.06-2.06,0-3.88,1.46-3.88,3.54,0,1.51.66,2.57,1.23,2.57.57-.06,1.14-.17,1.54-.17Z"/><path class="cls-1" d="m49.29,0h13.17l2.54,2.49v15.08l-2.59,2.49,2.59,2.54v15.13l-2.54,2.49h-13.17l.63-2.49V2.43l-.63-2.43Zm5.66,16.98l.58.58h3.86l.58-.58V5.55l-.58-.58h-3.86l-.58.58v11.43Zm4.44,5.61h-3.86l-.58.58v11.37l.58.58h3.86l.58-.58v-11.37l-.58-.58Z"/></g></svg>