<?xml version="1.0" standalone="no"?>
<!DOCTYPE svg PUBLIC "-//W3C//DTD SVG 20010904//EN"
 "http://www.w3.org/TR/2001/REC-SVG-20010904/DTD/svg10.dtd">
<svg version="1.0" xmlns="http://www.w3.org/2000/svg"
 width="417.000000pt" height="417.000000pt" viewBox="0 0 417.000000 417.000000"
 preserveAspectRatio="xMidYMid meet">
<metadata>
Created by potrace 1.14, written by Peter Selinger 2001-2017
</metadata>
<g transform="translate(0.000000,417.000000) scale(0.100000,-0.100000)"
fill="#000000" stroke="none">
<path d="M2020 4028 c-123 -141 -453 -464 -621 -609 -13 -11 -35 -30 -49 -42
-14 -12 -57 -49 -95 -82 -39 -33 -72 -62 -75 -65 -3 -3 -34 -30 -70 -60 -349
-295 -567 -524 -687 -720 -96 -157 -156 -321 -180 -492 -10 -68 -10 -288 -1
-353 49 -335 277 -621 595 -746 285 -112 585 -71 854 117 74 51 227 207 274
277 21 31 42 57 46 57 10 0 5 -66 -16 -240 -28 -225 -110 -434 -225 -574 -109
-133 -285 -256 -435 -301 -40 -12 -40 -12 -43 -67 l-3 -55 794 0 795 0 0 53 0
53 -52 17 c-178 58 -376 210 -481 369 -63 95 -148 317 -159 415 -1 8 -5 35 -9
60 -12 72 -16 109 -22 205 l-6 90 28 -46 c15 -25 46 -68 68 -95 22 -27 45 -54
50 -61 20 -26 172 -151 226 -186 174 -114 382 -167 566 -145 137 16 182 28
299 82 107 50 177 98 260 181 201 199 289 419 288 725 -2 322 -110 592 -354
885 -44 52 -263 268 -340 335 -41 36 -97 85 -125 110 -28 25 -76 66 -106 91
-116 99 -224 192 -229 198 -3 3 -39 35 -80 71 -149 129 -364 339 -490 480 -41
46 -87 96 -101 112 l-25 28 -64 -72z"/>
</g>
</svg>
