<svg width="377" height="123" viewBox="0 0 377 123" fill="none" xmlns="http://www.w3.org/2000/svg">
<g clip-path="url(#clip0_652_91)">
<path d="M373.516 55.7181C372.035 51.1691 369.687 47.2196 366.53 43.9801C364.641 42.0415 362.616 40.0859 360.518 38.177L360.033 37.7136C359.676 37.3735 359.297 37.0546 358.902 36.757C358.838 36.7018 358.693 36.5742 358.438 36.3404C358.025 35.9578 357.574 35.5114 357.111 35.0182C357.111 35.0182 357.106 35.014 357.102 35.0097C358.485 31.9063 358.698 28.3946 357.647 25.0446C357.157 23.4886 356.379 22.0431 355.345 20.7805C354.379 19.6029 353.222 18.506 351.805 17.4262C349.138 15.394 346.015 14.3227 342.773 14.3227C341.62 14.3227 340.472 14.4587 339.348 14.7351C338.732 14.8456 338.11 14.9944 337.502 15.1815C334.656 16.053 332.146 17.4474 330.074 19.2883C330.01 19.0884 329.942 18.8844 329.878 18.6846C329.742 18.2722 329.512 17.541 329.214 16.3888C328.861 15.0369 328.376 13.6892 327.772 12.3798C326.802 10.2754 325.475 8.42181 323.837 6.87432C321.816 4.96122 319.378 3.62204 316.592 2.88231C315.226 2.52094 313.797 2.33813 312.346 2.33813C310.895 2.33813 309.253 2.53795 307.666 2.93757C305.526 3.47324 303.616 4.38303 301.961 5.64993C301.067 6.27488 299.132 7.68633 297.672 10.1904C297.081 9.91829 296.477 9.66746 295.843 9.45489C294.954 9.1573 294.052 8.90222 293.154 8.6939C291.908 8.40906 290.67 8.26451 289.478 8.26451C288.496 8.26451 287.517 8.3623 286.573 8.55361C282.446 9.39537 278.851 11.6954 276.456 15.0284C275.639 16.1678 274.894 17.3411 274.243 18.5145C274.218 18.557 273.95 19.0587 273.95 19.0587C272.61 21.482 271.823 24.2623 271.546 27.5529C271.38 29.5595 271.346 31.7234 271.448 33.9894C271.537 36.0258 271.712 38.1132 271.959 40.2049C272.005 40.6045 272.057 40.9914 272.103 41.374C271.81 41.255 271.508 41.1402 271.193 41.0254C269.802 40.511 268.355 40.1029 266.892 39.818C265.717 39.5884 264.543 39.4141 263.403 39.3036C262.62 39.2271 261.846 39.1846 261.106 39.1846C260.195 39.1846 259.298 39.2441 258.438 39.3631C254.499 39.903 250.772 41.442 247.453 43.8525C246.636 43.2871 245.773 42.794 244.862 42.3773C242.454 41.2762 239.766 40.715 236.873 40.715C236.162 40.715 235.426 40.7491 234.686 40.8171C232.078 41.0552 229.691 41.7906 227.598 43.0023C227.33 43.1596 227.066 43.3254 226.807 43.4997C225.637 43.0363 224.403 42.7132 223.118 42.5219C222.361 38.3981 219.97 34.8014 216.451 32.5525C213.784 30.8477 210.631 29.9846 207.079 29.9846C206.807 29.9846 206.53 29.9889 206.245 30.0017C204.246 30.0739 202.22 30.4821 200.046 31.2558C198.574 31.7787 197.217 32.5652 196.039 33.5685C194.516 31.6299 192.486 30.0697 190.061 29.0196C189.083 28.5987 188.079 28.2161 187.062 27.8802C185.645 27.3361 184.131 27.0427 182.569 27.0215C182.51 27.0215 182.454 27.0215 182.395 27.0215C181.787 27.0215 181.174 27.064 180.57 27.1533C179.676 27.2808 179.23 27.3446 178.332 27.4721C177.575 27.5784 176.826 27.7527 176.098 27.9908C173.129 28.9686 170.666 30.7201 168.917 32.9606C168.896 31.3833 168.708 29.7636 168.355 28.1311C168.275 27.7569 168.177 27.3828 168.062 27.0172C166.909 23.3185 164.288 20.2278 160.676 18.3104C159.566 17.7195 158.375 17.2986 157.145 17.0563C156.345 16.899 155.945 16.8225 155.158 16.6609C153.703 16.3676 152.355 16.2273 151.031 16.2273C143.561 16.2273 137.519 21.1631 136.349 28.2288C136.205 29.0919 135.962 30.0144 135.622 30.971C135.107 32.4207 134.448 34.0149 133.661 35.707C133.525 36.0003 133.393 36.2851 133.257 36.5742C131.521 35.3158 129.525 34.4528 127.364 34.0617C126.76 33.9129 126.135 33.7981 125.505 33.7216C124.633 33.6153 123.756 33.56 122.901 33.56C121.693 33.56 120.502 33.6791 119.34 33.8959C119.579 32.7225 119.8 31.5151 120 30.2822C120.587 26.6176 119.966 22.9147 118.204 19.5816C115.886 15.19 111.695 12.197 106.718 11.3637C105.692 11.1937 104.641 11.1044 103.591 11.1044C102.472 11.1044 101.331 11.2022 100.213 11.3935C97.4429 11.8654 94.8562 13.0175 92.5206 14.8158C89.5127 17.1371 87.5217 20.4701 86.9388 24.1135C86.892 24.2708 86.8494 24.4239 86.8154 24.5642C86.6835 25.0786 86.5857 25.559 86.5134 25.9969C86.3262 24.7257 85.9858 23.4673 85.4753 22.2514C84.6925 20.3809 83.5736 18.6336 82.1483 17.0563C80.8592 15.6321 79.3702 14.4077 77.7152 13.4129C76.0135 12.3883 74.2011 11.6443 72.3292 11.1979C71.006 10.8833 69.6957 10.7218 68.4321 10.7218C66.6878 10.7218 64.9775 11.0279 63.3907 11.6146C61.6889 12.163 60.2679 12.8772 59.0809 13.668C58.8172 13.5872 58.5576 13.5064 58.2896 13.4342C56.6729 13.0048 54.9839 12.7965 53.1163 12.7965C52.7589 12.7965 52.393 12.805 52.0101 12.822C50.3892 12.89 48.8065 13.2683 47.3388 13.9273C46.4454 11.5721 44.9308 9.43363 42.8589 7.69058C42.0335 6.99761 41.1699 6.33015 40.2807 5.70945C39.098 4.79541 37.7493 4.08544 36.2816 3.61354C35.6519 3.41373 35.0095 3.26068 34.3586 3.15864C33.4567 3.01835 33.0057 2.94608 32.0995 2.80153C31.4273 2.69525 30.7508 2.63998 30.0701 2.63998C29.9936 2.63998 29.9127 2.63998 29.8361 2.63998C23.4758 2.75477 18.1663 6.52146 16.3114 12.2353C16.0859 12.9325 15.92 13.6467 15.8136 14.3737C15.5073 16.5206 15.0904 18.7228 14.5756 20.925C14.0438 23.191 13.3376 25.7035 12.4739 28.3861C12.1889 29.2747 11.8017 30.4225 11.3295 31.7957C10.819 33.2667 10.2276 34.9587 9.55965 36.8166C8.84491 38.8104 8.23228 40.5535 7.71749 42.0372L7.68346 42.135C7.16442 43.6357 6.71345 44.9324 6.36034 46.0632C4.73515 51.3094 3.1355 56.9935 2.42927 63.0006C2.4165 63.1026 2.40799 63.2004 2.39523 63.3025C1.92725 68.3361 3.71835 73.1613 7.26653 76.7282C9.04487 78.9602 11.5507 80.665 14.5756 81.6045C16.3752 82.1657 18.0472 82.4378 19.6894 82.4378C20.5743 82.4378 21.4422 82.357 22.2846 82.204C26.0327 81.6853 29.3043 79.9805 31.7166 77.3872C32.4696 78.1057 33.2184 78.8156 33.9587 79.5128C35.8008 81.4855 38.2046 82.9182 40.9189 83.6324C42.1101 83.947 43.3694 84.1043 44.6585 84.1043C45.0797 84.1043 45.5094 84.0873 45.9433 84.0533C46.6198 84.1638 47.3047 84.2191 47.994 84.2191C48.2024 84.2191 48.4109 84.2021 48.6151 84.1936C50.1382 85.588 51.8952 86.7316 53.8693 87.5862C55.4987 88.2961 57.2813 88.8701 59.1618 89.2995C60.102 89.512 61.055 89.6183 62.0037 89.6183C63.5651 89.6183 65.1179 89.3292 66.5857 88.768C69.2107 90.6429 72.3632 91.9778 75.9199 92.6793C77.3281 92.9556 78.7831 93.0959 80.2424 93.0959C82.1824 93.0959 84.1607 92.8493 86.1347 92.3604C87.3898 92.0501 88.6363 91.6377 89.8616 91.136C90.4572 91.7312 91.0954 92.2711 91.7846 92.7558C92.7078 93.4062 93.6905 94.0142 94.7031 94.5669C96.6261 95.6425 98.4767 96.0421 100.204 96.3057L100.6 96.3652C101.361 97.7766 102.314 99.1158 103.459 100.34C106.556 103.652 110.512 105.693 114.903 106.245C115.954 106.377 117.013 106.445 118.056 106.445C120.293 106.445 122.51 106.139 124.641 105.535C127.751 104.655 130.568 103.227 133.01 101.293C135.401 99.3964 137.379 97.0964 138.894 94.4563C140.485 91.6845 141.463 88.632 141.804 85.3925C142.301 80.6522 141.774 76.1075 140.238 71.8817C139.583 70.0876 138.872 68.2638 138.115 66.4357C139.383 66.8566 140.71 67.1329 142.093 67.2477C142.582 67.2902 143.08 67.3115 143.569 67.3115C148.253 67.3115 156.873 65.4239 161.94 52.7931C161.974 52.7124 162.004 52.6273 162.038 52.5466C162.106 52.4063 162.263 52.0789 162.574 51.4795C163.174 50.3316 163.99 48.7586 165.028 46.803C165.496 45.9272 165.913 45.0684 166.296 44.2224C166.556 46.0717 166.756 47.9806 166.883 49.915C167.037 52.249 167.096 54.8593 167.054 57.6779C167.041 58.6132 167.007 59.8249 166.956 61.2746C166.9 62.8008 166.828 64.5906 166.734 66.593C166.637 68.7102 166.556 70.5553 166.5 72.1283V72.2941C166.437 73.8501 166.386 75.1977 166.381 76.3669C166.36 81.8511 166.488 87.7435 167.556 93.6868C167.573 93.7846 167.594 93.8867 167.611 93.9844C168.619 98.916 171.704 103.002 176.094 105.387C178.455 107.032 181.37 107.942 184.56 107.963H184.684C187.504 107.963 190.015 107.385 192.18 106.237C195.537 104.655 198.111 102.113 199.647 98.9883C200.489 99.4134 201.323 99.8343 202.144 100.247C204.335 101.548 206.836 102.224 209.5 102.224C209.695 102.224 209.895 102.224 210.095 102.211C211.359 102.164 212.618 101.943 213.89 101.543C216.66 103.38 219.932 104.349 223.429 104.349C223.837 104.349 224.25 104.336 224.662 104.311C228.002 104.098 230.98 103.133 233.516 101.446C235.554 100.089 237.234 98.3803 238.528 96.3652C239.838 97.343 241.293 98.1635 242.888 98.814C245.211 99.7663 247.755 100.247 250.457 100.247C251.355 100.247 252.282 100.191 253.218 100.085C257.655 99.5792 261.808 97.7979 265.556 94.7879C268.747 97.8107 272.767 99.4602 277.026 99.4602C277.898 99.4602 278.778 99.3879 279.646 99.2519C280.527 99.1116 281.42 98.899 282.31 98.6227C282.51 99.592 282.739 100.642 283.012 101.807C283.577 104.251 284.39 106.607 285.42 108.817C286.773 111.713 288.551 114.2 290.708 116.215C293.788 119.089 297.813 120.67 302.042 120.67C303.195 120.67 304.369 120.555 305.534 120.322C307.725 119.888 309.814 119.131 311.742 118.068C317.451 114.922 320.25 108.567 318.881 101.866C318.595 100.476 318.123 98.6524 317.396 96.1271C316.792 94.0227 316.128 91.6207 315.426 88.9891C314.677 86.1875 313.899 83.2158 313.116 80.1591C312.992 79.6744 312.869 79.1855 312.746 78.7008C312.775 78.6838 312.801 78.6626 312.831 78.6456C313.358 79.5129 313.962 80.3716 314.686 81.1836C316.549 83.2795 318.991 84.9376 321.939 86.1067C323.977 86.9144 326.109 87.3268 328.27 87.3268C329.708 87.3268 331.15 87.144 332.55 86.7827C332.95 86.6806 334.175 86.366 336.145 85.3967C337.608 84.6782 338.983 83.7259 340.212 82.5951C341.484 83.5686 342.901 84.3976 344.445 85.0439C346.853 86.0514 349.351 86.5616 351.878 86.5616C353.707 86.5616 355.528 86.2895 357.294 85.7581C360.497 84.7888 363.399 83.2455 365.909 81.1666C368.402 79.1047 370.406 76.6644 371.865 73.9053C373.299 71.2015 374.184 68.2893 374.507 65.2538C374.843 62.0568 374.503 58.8556 373.49 55.7351L373.516 55.7181Z" fill="white"/>
<path d="M302.063 123C297.238 123 292.648 121.193 289.134 117.915C286.756 115.696 284.798 112.967 283.318 109.8C282.22 107.444 281.357 104.932 280.753 102.33C280.684 102.037 280.616 101.748 280.553 101.463C280.378 101.497 280.208 101.527 280.034 101.552C279.042 101.709 278.038 101.79 277.043 101.79C272.873 101.79 268.832 100.379 265.479 97.7768C261.795 100.362 257.775 101.913 253.503 102.402C249.351 102.874 245.475 102.385 242.016 100.97C241.004 100.557 240.034 100.077 239.11 99.5326C237.889 101.008 236.456 102.296 234.826 103.38C231.946 105.297 228.581 106.394 224.824 106.632C224.36 106.662 223.897 106.675 223.441 106.675C219.889 106.675 216.485 105.774 213.541 104.056C212.427 104.328 211.308 104.49 210.202 104.532C209.976 104.541 209.747 104.545 209.517 104.545C206.496 104.545 203.569 103.763 201.042 102.283C200.889 102.207 200.736 102.13 200.578 102.049C198.787 104.724 196.286 106.862 193.244 108.307C190.751 109.617 187.879 110.28 184.701 110.28H184.569C180.987 110.259 177.643 109.251 174.877 107.359C169.93 104.626 166.454 99.9238 165.33 94.431C165.305 94.312 165.284 94.1929 165.262 94.0782C164.165 87.952 164.033 81.9363 164.054 76.3415C164.058 75.1384 164.109 73.7822 164.165 72.2092L164.173 72.0264C164.233 70.4492 164.309 68.5956 164.407 66.4699C164.501 64.4718 164.573 62.6905 164.629 61.177C164.68 59.74 164.714 58.5454 164.726 57.6271C164.752 55.8245 164.739 54.107 164.684 52.5C164.675 52.5127 164.667 52.5297 164.663 52.5425C164.42 53.0101 164.28 53.295 164.203 53.448C164.178 53.516 164.152 53.5798 164.126 53.6478C158.545 67.5583 148.862 69.6329 143.582 69.6329C143.029 69.6329 142.467 69.6074 141.91 69.5606C141.901 69.5606 141.897 69.5606 141.889 69.5606C142.08 70.0665 142.267 70.5725 142.45 71.0699C144.11 75.6316 144.68 80.5291 144.144 85.6265C143.769 89.1934 142.689 92.5562 140.936 95.6086C139.272 98.5123 137.098 101.038 134.473 103.117C131.789 105.246 128.7 106.815 125.292 107.78C121.867 108.75 118.238 109.013 114.622 108.562C109.683 107.942 105.233 105.65 101.757 101.935C100.766 100.872 99.885 99.7197 99.1362 98.4996C97.4599 98.2062 95.5455 97.7131 93.5672 96.6077C92.4993 96.0295 91.44 95.3706 90.4402 94.6691C90.0658 94.4055 89.7042 94.1292 89.3553 93.8358C88.4789 94.1462 87.5897 94.414 86.7048 94.6351C82.9184 95.5746 79.0937 95.6894 75.4732 94.9794C72.0441 94.3035 68.9427 93.0876 66.2369 91.3573C63.7821 92.0758 61.1486 92.1565 58.647 91.5826C56.6262 91.1235 54.7074 90.4985 52.9418 89.7333C51.0486 88.9128 49.3128 87.8457 47.7685 86.5575C47.1261 86.549 46.4836 86.498 45.8497 86.4045C43.9353 86.5235 42.0761 86.3535 40.3275 85.8943C37.2218 85.0781 34.4522 83.4413 32.3037 81.1668C32.108 80.9798 31.908 80.7927 31.7081 80.6056C29.1682 82.6931 26.0838 84.0322 22.6632 84.5169C21.6932 84.6912 20.6934 84.7805 19.6936 84.7805C17.8089 84.7805 15.9072 84.4744 13.8821 83.8409C10.4999 82.7866 7.61113 80.8692 5.52222 78.2887C1.54435 74.2244 -0.442462 68.6934 0.0808305 63.0858C0.0935937 62.9668 0.106357 62.8478 0.11912 62.7287C0.846624 56.5345 2.48032 50.7272 4.13953 45.3705C4.50116 44.2013 4.95638 42.8877 5.48393 41.3657L5.51796 41.2722C6.037 39.7799 6.65389 38.0326 7.36863 36.0303C8.02806 34.1809 8.62368 32.5016 9.12995 31.0307C9.59794 29.6745 9.98084 28.5436 10.2616 27.6678C11.1083 25.0448 11.7975 22.596 12.3123 20.3895C12.81 18.2554 13.2142 16.1212 13.512 14.0423C13.6354 13.1835 13.8311 12.3332 14.0991 11.5127C16.2731 4.84236 22.4377 0.442216 29.8106 0.306173C30.6998 0.289168 31.606 0.352938 32.4909 0.497484C33.3886 0.642029 33.8396 0.714302 34.7372 0.854597C35.5073 0.973635 36.2731 1.15644 37.0133 1.39452C38.7108 1.93869 40.2807 2.7592 41.6847 3.83054C42.6121 4.481 43.5183 5.17822 44.382 5.9052C46.1093 7.35916 47.5345 9.09796 48.5811 11.0153C49.6702 10.7177 50.7849 10.5434 51.925 10.4924C52.342 10.4754 52.7419 10.4669 53.1333 10.4669C55.1414 10.4669 56.9793 10.688 58.7448 11.1429C59.9446 10.4456 61.2507 9.86745 62.6376 9.41681C65.8157 8.25194 69.3043 8.08189 72.8822 8.93216C74.9882 9.43382 77.026 10.2713 78.9363 11.4192C80.7869 12.5331 82.4547 13.9062 83.8969 15.5005C84.8116 16.5081 85.6114 17.5837 86.2964 18.7145C87.4366 16.5038 89.066 14.5482 91.0996 12.9794C93.7373 10.9473 96.6729 9.64213 99.8254 9.10221C102.259 8.68558 104.735 8.67283 107.113 9.0682C112.818 10.0205 117.622 13.4598 120.285 18.4977C122.284 22.2814 122.991 26.4902 122.323 30.6608C122.293 30.8564 122.259 31.0477 122.229 31.2432C123.412 31.205 124.603 31.2645 125.807 31.409C126.505 31.4941 127.198 31.6216 127.87 31.7832C129.402 32.068 130.857 32.5527 132.227 33.2286C132.691 32.1615 133.091 31.1455 133.431 30.2017C133.725 29.3769 133.937 28.5904 134.056 27.8592C135.422 19.6413 142.408 13.902 151.048 13.902C152.529 13.902 154.031 14.0593 155.639 14.3824C156.422 14.5397 156.817 14.6162 157.613 14.7735C159.072 15.0584 160.48 15.56 161.791 16.2572C165.952 18.4637 168.977 22.0433 170.312 26.3372C170.449 26.7708 170.563 27.213 170.657 27.6551C170.687 27.7996 170.717 27.9399 170.746 28.0845C172.142 27.1152 173.699 26.3372 175.375 25.7845C176.235 25.4997 177.119 25.2956 178.017 25.1681C178.911 25.0448 179.353 24.981 180.246 24.8535C180.957 24.7514 181.684 24.7004 182.403 24.7004H182.612C184.42 24.7259 186.181 25.0618 187.858 25.6952C188.921 26.0481 189.981 26.452 191.002 26.8899C193.022 27.7614 194.848 28.9773 196.375 30.461C197.285 29.8956 198.255 29.4322 199.272 29.0708C201.672 28.2205 203.926 27.7656 206.169 27.6849C206.479 27.6721 206.785 27.6678 207.087 27.6678C211.095 27.6678 214.673 28.6542 217.724 30.6055C221.293 32.8885 223.909 36.4469 225.062 40.5324C225.564 40.6472 226.058 40.7833 226.539 40.9406C228.904 39.5929 231.58 38.7766 234.486 38.513C238.647 38.1347 242.476 38.7299 245.849 40.2773C246.377 40.5197 246.896 40.7875 247.407 41.0808C250.716 38.9424 254.316 37.5947 258.128 37.0718C259.868 36.8338 261.71 36.8082 263.641 36.9996C264.854 37.1186 266.1 37.3057 267.347 37.548C268.032 37.6798 268.708 37.8371 269.381 38.0199C269.261 36.7062 269.172 35.4053 269.117 34.1214C269.01 31.7576 269.044 29.4917 269.223 27.3873C269.525 23.7566 270.406 20.6744 271.908 17.9535C271.908 17.9535 272.18 17.4519 272.205 17.4051C272.899 16.1509 273.694 14.9011 274.562 13.6894C277.302 9.87596 281.403 7.24862 286.109 6.28782C288.521 5.79466 291.082 5.84568 293.682 6.44087C294.652 6.66194 295.63 6.93828 296.592 7.26138C296.664 7.28689 296.732 7.30814 296.804 7.33365C298.315 5.39079 299.927 4.24717 300.582 3.78803C302.476 2.34257 304.667 1.30524 307.1 0.693046C310.584 -0.182732 314.026 -0.195486 317.196 0.646281C320.361 1.4838 323.139 3.01428 325.449 5.19947C327.304 6.95528 328.802 9.0512 329.899 11.4234C330.504 12.7329 331.001 14.0805 331.376 15.4325C333.035 14.3951 334.856 13.5704 336.821 12.9709C337.494 12.7669 338.179 12.5968 338.868 12.4735C340.148 12.1674 341.463 12.0144 342.773 12.0144C346.53 12.0144 350.146 13.2515 353.222 15.5983C354.788 16.7886 356.073 18.013 357.153 19.331C358.378 20.8317 359.297 22.528 359.876 24.3773C360.918 27.7019 360.893 31.2262 359.825 34.4658C359.893 34.5295 359.961 34.5933 360.025 34.6528C360.191 34.8059 360.306 34.9079 360.37 34.9674C360.812 35.3033 361.242 35.6689 361.646 36.0515L362.114 36.4936C364.241 38.4323 366.292 40.4091 368.21 42.3775C371.618 45.8764 374.154 50.1277 375.745 55.0253C376.86 58.4604 377.238 61.989 376.864 65.5091C376.511 68.8422 375.536 72.0392 373.962 75.0109C372.358 78.0378 370.159 80.7204 367.432 82.9821C364.679 85.2566 361.505 86.9487 358.004 88.0115C356.017 88.6109 353.971 88.917 351.912 88.917C349.074 88.917 346.27 88.3473 343.577 87.2165C342.458 86.7488 341.391 86.1919 340.378 85.55C339.378 86.3109 338.319 86.9657 337.213 87.5098C335.026 88.5854 333.626 88.9468 333.167 89.0616C331.576 89.4697 329.938 89.678 328.304 89.678C325.845 89.678 323.424 89.2104 321.11 88.2921C319.685 87.7266 318.366 87.0592 317.158 86.2897C317.345 87.0039 317.532 87.7096 317.719 88.4026C318.417 91.0214 319.076 93.4107 319.676 95.4981C320.421 98.0872 320.906 99.9663 321.203 101.416C322.786 109.141 319.527 116.487 312.903 120.135C310.763 121.312 308.444 122.154 306.019 122.634C304.705 122.894 303.378 123.026 302.071 123.026L302.063 123ZM284.105 95.6214L284.624 98.1467C284.828 99.133 285.049 100.153 285.313 101.271C285.845 103.559 286.602 105.761 287.564 107.819C288.789 110.442 290.393 112.686 292.329 114.493C294.975 116.959 298.43 118.319 302.063 118.319C303.063 118.319 304.088 118.217 305.105 118.018C307.058 117.631 308.921 116.955 310.64 116.011C315.43 113.371 317.779 108.001 316.613 102.326C316.341 100.999 315.885 99.2308 315.175 96.7608C314.567 94.6436 313.899 92.2288 313.192 89.5802C312.444 86.7701 311.665 83.7942 310.878 80.7289C310.75 80.2358 310.627 79.7426 310.504 79.2495L310.091 77.5744L313.652 75.4275L314.864 77.4214C315.371 78.2589 315.898 78.9774 316.468 79.6193C318.089 81.4389 320.229 82.8886 322.837 83.9217C325.773 85.0866 328.968 85.2864 332.001 84.5041C332.346 84.4148 333.392 84.147 335.149 83.284C336.404 82.6675 337.587 81.8513 338.668 80.8607L340.114 79.5301L341.676 80.7247C342.807 81.5919 344.054 82.3104 345.39 82.8716C349.036 84.3978 352.971 84.6189 356.655 83.5051C359.561 82.625 362.186 81.2306 364.458 79.3515C366.713 77.4851 368.525 75.283 369.84 72.8002C371.133 70.3599 371.933 67.7326 372.222 64.9947C372.524 62.1293 372.218 59.2511 371.303 56.4452C369.938 52.2406 367.768 48.5972 364.866 45.617C363.007 43.7124 361.02 41.7908 358.953 39.9117L358.43 39.4186C358.136 39.1422 357.825 38.8787 357.506 38.6363L357.391 38.547C357.319 38.4833 357.149 38.3387 356.855 38.0666C356.409 37.6543 355.932 37.1824 355.439 36.6595L355.388 36.6084L354.341 35.4776L354.966 34.0704C356.124 31.4771 356.281 28.5224 355.417 25.7547C355.017 24.4793 354.384 23.306 353.537 22.2729C352.69 21.2398 351.661 20.2663 350.389 19.2969C348.134 17.5794 345.5 16.6696 342.773 16.6696C341.808 16.6696 340.842 16.7844 339.902 17.014L339.761 17.0437C339.234 17.1373 338.706 17.2648 338.191 17.4221C335.677 18.1916 333.469 19.4075 331.635 21.04L328.951 23.4293L327.853 20.0112C327.789 19.8199 327.73 19.6243 327.666 19.433C327.517 18.9866 327.27 18.2001 326.955 16.9885C326.636 15.7683 326.198 14.5524 325.649 13.3663C324.803 11.534 323.654 9.92272 322.229 8.5793C320.497 6.93828 318.396 5.78616 315.996 5.14846C313.588 4.51076 310.955 4.52776 308.236 5.21223C306.411 5.67137 304.781 6.44512 303.386 7.51221L303.301 7.57598C302.658 8.02662 300.952 9.217 299.689 11.3767L298.621 13.209L296.694 12.3247C296.107 12.0569 295.583 11.8443 295.094 11.6785C294.277 11.4064 293.448 11.1684 292.627 10.9813C290.678 10.5349 288.798 10.4924 287.036 10.8538C283.488 11.5807 280.404 13.5491 278.353 16.4018C277.592 17.4646 276.894 18.5615 276.29 19.6583L276.005 20.1812C274.813 22.3324 274.12 24.8024 273.873 27.7614C273.716 29.6702 273.682 31.7321 273.78 33.9003C273.869 35.8772 274.035 37.9136 274.273 39.9457C274.32 40.3369 274.367 40.7152 274.418 41.0894L274.928 45.0346L271.231 43.5636C270.955 43.4531 270.67 43.3426 270.376 43.2363C269.104 42.7644 267.781 42.3945 266.436 42.1309C265.335 41.9141 264.233 41.7526 263.165 41.6463C261.599 41.489 260.127 41.506 258.749 41.6973C255.201 42.1862 251.861 43.5509 248.827 45.7616L247.487 46.7394L246.122 45.7999C245.407 45.3067 244.654 44.8773 243.884 44.5287C241.259 43.3256 238.234 42.8664 234.894 43.1725C232.627 43.3766 230.563 44.01 228.764 45.0516C228.547 45.1791 228.33 45.3152 228.117 45.4555L227.092 46.1527L225.939 45.6978C224.952 45.3067 223.884 45.0261 222.765 44.8603L221.11 44.6137L220.808 42.9684C220.17 39.4951 218.119 36.4256 215.184 34.5465C212.899 33.0883 210.168 32.3443 207.07 32.3443C206.828 32.3443 206.577 32.3486 206.322 32.3571C204.565 32.4209 202.765 32.7865 200.825 33.4752C199.625 33.9003 198.523 34.538 197.553 35.3628L195.698 36.9443L194.192 35.0269C192.886 33.3647 191.18 32.068 189.125 31.1837C188.215 30.7883 187.27 30.4312 186.317 30.1166L186.211 30.0784C185.041 29.6277 183.799 29.3939 182.527 29.3726H182.382C181.884 29.3726 181.382 29.4066 180.893 29.4789C179.995 29.6065 179.544 29.6745 178.643 29.7978C178.026 29.8828 177.413 30.0273 176.822 30.2229C174.354 31.0349 172.257 32.4846 170.755 34.4105L167.815 38.1772L168.619 43.8952C168.891 45.8381 169.096 47.8107 169.223 49.7621C169.381 52.1599 169.44 54.834 169.398 57.7121C169.385 58.6644 169.351 59.8888 169.296 61.3598C169.24 62.8903 169.168 64.6886 169.074 66.7037C168.977 68.8124 168.9 70.649 168.84 72.2177V72.3835C168.777 73.9268 168.73 75.2489 168.726 76.3755C168.704 81.7492 168.828 87.5141 169.861 93.2704C169.878 93.3554 169.891 93.4362 169.908 93.517C170.772 97.7513 173.367 101.237 177.217 103.329L177.439 103.465C179.442 104.86 181.91 105.604 184.582 105.621H184.701C187.117 105.621 189.27 105.132 191.091 104.167L191.189 104.12C194.031 102.781 196.23 100.651 197.553 97.9554L198.6 95.8297L200.714 96.9011C201.553 97.3262 202.382 97.7428 203.203 98.1552L203.348 98.236C205.33 99.4094 207.581 99.9705 210.01 99.877C211.074 99.8345 212.12 99.6517 213.201 99.3158L214.265 98.9842L215.192 99.6007C217.575 101.182 220.425 102.015 223.433 102.015C223.79 102.015 224.156 102.003 224.522 101.981C227.445 101.794 230.036 100.961 232.223 99.5029C233.98 98.3295 235.439 96.8543 236.558 95.107L237.915 92.9941L239.927 94.4948C241.084 95.3578 242.378 96.0848 243.777 96.6545C246.505 97.7726 249.598 98.1467 252.959 97.7683C256.949 97.3134 260.697 95.7022 264.092 92.9728L265.683 91.6932L267.168 93.1003C269.951 95.7362 273.358 97.1306 277.026 97.1306C277.774 97.1306 278.532 97.0711 279.276 96.9521C280.042 96.8288 280.829 96.646 281.62 96.3994L284.084 95.6384L284.105 95.6214ZM90.4359 88.3771L91.5378 89.4825C92.0313 89.9799 92.5759 90.4348 93.1545 90.8429C94.0054 91.4423 94.9116 92.0035 95.8433 92.5094C97.4812 93.4235 99.0894 93.7636 100.583 93.9931L102.131 94.227L102.684 95.2558C103.361 96.5099 104.203 97.6833 105.194 98.7419C107.913 101.65 111.38 103.44 115.222 103.92C118.217 104.294 121.208 104.077 124.033 103.278C126.845 102.483 129.385 101.195 131.585 99.4519C133.742 97.7428 135.528 95.6682 136.894 93.2832C138.319 90.7961 139.2 88.054 139.506 85.1333C139.966 80.7502 139.485 76.5541 138.068 72.6684C137.439 70.9466 136.741 69.144 135.984 67.3117L134.031 62.5842L138.885 64.1997C139.983 64.5653 141.14 64.7991 142.318 64.9012C142.744 64.9352 143.174 64.9564 143.595 64.9564C153.133 64.9564 157.838 56.7811 159.796 51.909C159.821 51.841 159.847 51.773 159.876 51.705L159.944 51.5392C160.017 51.3861 160.187 51.0333 160.523 50.3828C161.123 49.2307 161.944 47.6534 162.986 45.6893C163.42 44.8731 163.824 44.0483 164.186 43.2448L166.654 37.7648L166.586 32.9905C166.564 31.5621 166.394 30.0911 166.079 28.6159C166.015 28.3098 165.935 28.0037 165.841 27.7061C164.875 24.6026 162.654 21.9966 159.596 20.3683C158.689 19.8879 157.719 19.5435 156.711 19.3437C155.907 19.1864 155.507 19.1056 154.716 18.9483C153.414 18.6848 152.214 18.5572 151.048 18.5572C144.743 18.5572 139.655 22.6895 138.672 28.6031C138.506 29.6022 138.226 30.6608 137.839 31.7449C137.298 33.2626 136.609 34.9249 135.796 36.6765L134.193 40.1158L131.895 38.4493C130.419 37.3779 128.76 36.6722 126.96 36.3448L126.82 36.3151C126.305 36.1875 125.773 36.0898 125.233 36.026C123.395 35.8007 121.604 35.8347 119.783 36.1748L116.362 36.8125L117.06 33.4072C117.298 32.2423 117.515 31.0604 117.702 29.8913C118.209 26.7283 117.673 23.5355 116.145 20.6531C114.167 16.9119 110.593 14.3611 106.339 13.6512C104.48 13.3408 102.535 13.3536 100.617 13.6809C98.2257 14.089 95.9837 15.0881 93.9586 16.6526C91.4229 18.6082 89.751 21.3844 89.2575 24.4708L89.1936 24.7514C89.1553 24.8875 89.1171 25.0193 89.0873 25.1383C88.9852 25.5337 88.9001 25.9333 88.8278 26.3627L86.3942 41.1956L84.2032 26.3244C84.0415 25.2191 83.7437 24.1477 83.3226 23.1402C82.6419 21.5119 81.6676 19.9899 80.421 18.6125C79.2851 17.3583 77.9748 16.2785 76.5155 15.4027C75.0222 14.5014 73.4311 13.851 71.7931 13.4598C69.0958 12.8179 66.5389 12.9369 64.2075 13.7957L64.1096 13.8297C62.744 14.2676 61.4889 14.8628 60.3828 15.6025L59.4596 16.2147L58.2088 15.8321C58.0386 15.7811 57.8684 15.7258 57.694 15.679C56.2773 15.3007 54.7797 15.1179 53.1248 15.1179C52.8014 15.1179 52.4653 15.1264 52.1207 15.1391C50.7976 15.1944 49.5128 15.5005 48.3045 16.0404L46.0369 17.0565L45.1563 14.7352C44.4032 12.7414 43.0886 10.9133 41.3571 9.45932C40.587 8.80887 39.7744 8.18817 38.9448 7.60574L38.8555 7.54197C37.8727 6.78523 36.7708 6.20704 35.5753 5.82442C35.0648 5.66287 34.5373 5.53533 34.0055 5.45456C33.0993 5.31426 32.6441 5.24199 31.7379 5.09319C31.1933 5.00391 30.6317 4.9614 30.0787 4.9614H29.8872C24.5394 5.05918 20.0893 8.19242 18.545 12.9412C18.362 13.5066 18.2259 14.0975 18.1408 14.6885C17.826 16.9034 17.3963 19.1737 16.8645 21.4396C16.3199 23.7694 15.5967 26.3414 14.7117 29.0878C14.4224 29.9891 14.031 31.154 13.5503 32.5399C13.0355 34.0236 12.4399 35.7242 11.7719 37.5862C11.0615 39.5716 10.4488 41.3062 9.93404 42.7856L9.9 42.8792C9.38522 44.3629 8.94276 45.6383 8.60241 46.7351C7.01126 51.875 5.44138 57.4315 4.76068 63.2516C4.75217 63.3324 4.74366 63.4132 4.73515 63.4982C4.33098 67.8261 5.82428 71.9329 8.93425 75.0576L9.10443 75.2489C10.6147 77.145 12.7462 78.5607 15.2776 79.3515C17.6728 80.0955 19.8213 80.2613 21.8676 79.8829L21.974 79.8659C25.1521 79.428 27.9302 78.0123 30.0106 75.7719L31.6273 74.0331L33.3418 75.6741C34.0948 76.3926 34.8351 77.0983 35.5711 77.7912L35.6732 77.8975C37.2261 79.5598 39.2469 80.7502 41.5187 81.3496C42.8461 81.6982 44.2799 81.813 45.7689 81.7025L46.0497 81.6812L46.3262 81.728C46.9814 81.8343 47.6536 81.8895 48.3215 81.8513L49.4873 81.7918L50.2063 82.4507C51.5421 83.6751 53.0907 84.6784 54.8095 85.4224C56.3113 86.0729 57.9535 86.6043 59.6936 87.0039C61.7059 87.4631 63.8246 87.3143 65.7561 86.5703L66.9303 86.1196L67.9556 86.8509C70.3424 88.5557 73.18 89.7375 76.3836 90.371C79.3277 90.9534 82.4547 90.8514 85.5816 90.0776C86.7218 89.7928 87.8663 89.4187 88.9809 88.9595L90.4274 88.3643L90.4359 88.3771Z" fill="#C3325D"/>
<path d="M129.325 67.4306L129.04 66.7291C128.972 66.559 128.891 66.3932 128.798 66.2317C128.751 66.1467 128.564 65.8023 128.194 64.9265C127.9 64.2378 127.607 63.4726 127.326 62.6563C127.045 61.8528 126.798 61.0748 126.594 60.3478C126.539 60.1523 126.509 60.0205 126.492 59.9354L126.722 58.0818C126.815 57.3294 127.024 56.5811 127.343 55.8584C127.573 55.3355 127.875 54.8763 128.258 54.4512C128.415 54.3449 128.577 54.2386 128.743 54.1409C130.24 53.2438 131.219 51.7133 131.423 49.9405C131.487 49.4049 131.444 48.8649 131.304 48.342C131.083 47.5258 130.721 46.6542 130.193 45.6849C129.189 43.8271 127.56 42.6622 125.603 42.3901C125.25 42.2881 124.875 42.2116 124.484 42.1648C123.952 42.101 123.425 42.067 122.918 42.067C120.966 42.067 119.191 42.5432 117.643 43.487C115.975 44.4988 114.554 45.889 113.41 47.6108C112.389 49.1498 111.585 50.8588 111.01 52.6869C110.483 54.3704 110.1 56.0497 109.874 57.6737C109.555 59.9907 109.755 62.3545 110.47 64.7097C111.053 66.6186 111.78 68.655 112.64 70.7679C113.431 72.7065 114.252 74.8364 115.09 77.0896C115.809 79.0367 116.362 81.2177 116.732 83.5729C116.724 83.6197 116.72 83.658 116.711 83.6877C115.924 82.9565 114.886 82.5441 113.81 82.5441C113.691 82.5441 113.567 82.5484 113.448 82.5611C112.38 82.6504 111.551 82.8204 110.849 83.0968C111.07 82.3656 111.163 81.6003 111.108 80.8521C111.053 80.1421 110.887 79.5214 110.742 78.973C110.691 78.7859 110.619 78.5011 110.602 78.4075C110.466 77.349 110.185 76.2989 109.768 75.2828C109.738 75.1765 109.636 74.8109 109.474 73.9606C109.287 72.9658 109.087 71.937 108.879 70.8784C108.7 69.9686 108.568 69.1098 108.492 68.3276C108.445 67.8472 108.428 67.5751 108.419 67.4391L108.436 67.3285C108.509 66.8609 108.5 66.3805 108.415 65.9128C108.241 64.9648 108.139 63.8722 108.109 62.6521C108.075 61.2874 108.079 59.8674 108.121 58.439C108.164 56.9935 108.236 55.5395 108.338 54.1153L108.373 53.6179C108.466 52.3043 108.555 51.0629 108.606 49.915L108.662 48.6651C108.717 47.4492 108.772 46.1866 108.849 44.8389C108.951 43.1341 109.1 41.6546 109.291 40.443C109.619 38.4194 109.989 36.5573 110.398 34.912C110.861 33.0499 111.266 31.0433 111.602 28.9389C111.895 27.1065 111.576 25.2444 110.683 23.5524C109.598 21.499 107.692 20.1471 105.318 19.7517C104.756 19.6582 104.173 19.6114 103.595 19.6114C102.957 19.6114 102.301 19.6667 101.651 19.7815C100.264 20.0195 98.9405 20.6147 97.7195 21.5585C96.2942 22.6596 95.4306 24.1944 95.2902 25.8906C95.2732 25.9672 95.2306 26.1032 95.2009 26.1967C95.1413 26.3838 95.0902 26.5624 95.052 26.7154C94.886 27.3574 94.8307 27.9653 94.7882 28.4542C94.7712 28.6243 94.7542 28.8581 94.7371 28.9431L94.4223 30.7372C94.1075 32.5228 93.8437 34.1042 93.6395 35.4349C93.4481 36.6806 93.3374 37.3948 93.3077 37.5733C92.9545 39.5757 92.6865 41.6674 92.5163 43.7888C92.5036 43.9249 92.4951 44.0609 92.4823 44.1969C92.2823 44.1502 92.0824 44.1077 91.8824 44.0737C91.1294 43.9334 90.4061 43.8653 89.7339 43.8653C88.4704 43.8653 87.3132 44.1119 86.3092 44.6051C85.8412 44.8347 85.6114 44.9282 85.5349 44.9579C85.3902 45.0005 85.2498 45.0472 85.1094 45.1025C82.8716 45.9995 80.6891 47.3387 78.6129 49.086C76.6602 50.7313 74.8776 52.5636 73.3162 54.532C72.1079 56.0582 71.0358 57.644 70.1041 59.268C70.2062 58.3284 70.3168 57.3761 70.436 56.4068C70.7295 54.0388 71.1209 51.7941 71.5932 49.7407C71.7208 49.1795 71.8612 48.6481 72.0016 48.1592C72.1505 47.649 72.3079 47.1516 72.4738 46.6755C72.878 45.5149 72.7546 44.2352 72.1462 43.1724C71.8357 42.6325 71.4996 42.0713 71.1422 41.5016C70.4147 40.3367 69.3 39.3462 67.828 38.5554C67.2877 38.2663 66.6963 38.0963 66.0837 38.058C65.403 38.0155 64.7904 37.9687 64.233 37.9262C63.7268 37.8837 63.1992 37.8624 62.6547 37.8624C62.4036 37.8624 62.1484 37.8624 61.8889 37.8752C61.506 37.8879 61.1273 37.9517 60.7614 38.0665C58.1195 38.8913 56.3028 40.8129 55.6434 43.4785C54.8691 46.6117 54.3288 49.6727 54.0437 52.5764C53.7927 55.1229 53.329 57.7843 52.6653 60.4881C52.3505 61.7763 52.1803 63.1154 52.1633 64.4589C52.1633 64.5311 52.159 64.6034 52.1548 64.6714C50.9465 63.209 49.5766 61.6317 48.0663 59.9609C46.0752 57.763 44.3692 55.9817 42.6972 54.3534C41.6421 53.3246 40.5658 52.3085 39.5277 51.3265C38.8683 50.7015 38.2131 50.0808 37.5707 49.4686C37.1793 49.0945 36.7921 48.7204 36.4092 48.3463C38.4513 47.1346 40.5828 45.9953 42.676 44.8814C44.0161 44.1672 45.403 43.4275 46.7432 42.6792C51.8144 39.8521 57.1197 36.6848 61.323 31.8425C61.6634 31.4472 61.9229 30.9965 62.0973 30.5076C62.493 31.0178 62.961 31.5152 63.5013 31.9998C64.1905 32.612 64.9988 33.1817 65.9008 33.6919C66.8963 34.2573 67.9429 34.6697 69.0022 34.9163C69.8233 35.1076 70.6146 35.2053 71.3549 35.2053C72.2866 35.2053 73.1673 35.0523 73.9756 34.7547C75.1498 34.3168 77.2388 33.0839 78.0088 29.6956C78.3194 28.3224 78.1875 26.8812 77.6259 25.5335C77.2175 24.5557 76.6176 23.6247 75.8391 22.7659C75.1115 21.9624 74.2692 21.2694 73.3332 20.704C72.3802 20.1301 71.3804 19.7177 70.3636 19.4754C69.6744 19.3138 69.0448 19.233 68.4364 19.233C67.6238 19.233 66.8665 19.3776 66.1773 19.6624C64.1479 20.2746 62.761 21.2694 61.9442 22.6936C61.6038 23.2846 61.3188 23.952 61.0848 24.6748C60.102 23.3909 58.5109 22.2983 56.1114 21.6606C55.2179 21.4225 54.2394 21.3077 53.1248 21.3077C52.8865 21.3077 52.6398 21.3119 52.3845 21.3247C51.6187 21.3587 50.8742 21.5968 50.2318 22.0177C48.5683 23.1103 46.8538 24.2071 45.1307 25.287C44.0331 25.9714 42.8674 26.6729 41.74 27.3531C41.1061 27.7357 40.4722 28.1184 39.8383 28.501C39.1448 28.9219 38.362 29.3938 37.5409 29.8699C38.3194 26.5836 39.0001 23.3186 39.6638 20.1131C39.6894 19.9813 39.7106 19.8452 39.7276 19.7134C39.9574 17.6218 39.1235 15.6662 37.3877 14.1994C36.6858 13.6085 35.9497 13.0473 35.1925 12.5287C34.7585 12.1715 34.2565 11.8952 33.7034 11.7209C33.4949 11.6529 33.278 11.6019 33.061 11.5679C32.142 11.4233 31.6826 11.351 30.7636 11.2022C30.5381 11.1682 30.3127 11.147 30.0872 11.147C30.0616 11.147 30.0361 11.147 30.0106 11.147C25.9221 11.2235 24.7011 14.0124 24.4203 14.8669C24.3437 15.1007 24.2884 15.3388 24.2544 15.5811C23.914 17.9704 23.4503 20.4234 22.8802 22.8637C22.2973 25.355 21.5273 28.0928 20.5913 30.9965C20.285 31.9403 19.8808 33.1434 19.3873 34.5719C18.8683 36.0726 18.2642 37.7902 17.5877 39.682C16.8857 41.6461 16.2774 43.3637 15.7711 44.8261L15.7371 44.9239C15.2435 46.3524 14.8138 47.5853 14.5033 48.5801C13.1036 53.1035 11.5507 58.4007 10.8955 63.9955C10.8955 64.0295 10.887 64.0635 10.8828 64.0975C10.6275 66.8354 11.6401 69.3012 13.746 71.1462C14.3544 72.039 15.3839 72.9488 17.1197 73.493C18.0855 73.7948 18.9321 73.9394 19.7022 73.9394C20.1233 73.9394 20.5318 73.8969 20.9232 73.8076C23.9566 73.4547 26.2582 71.5671 27.1389 68.672C27.3261 68.0598 27.4877 67.2563 27.6707 66.0744C27.8196 65.0966 27.9472 64.6247 27.9812 64.5014C28.1854 63.7914 28.3726 63.1069 28.5471 62.4522C28.9044 62.8008 33.1631 66.9544 33.1631 66.9544C35.4988 69.2331 37.8132 71.4523 40.0425 73.5525C40.6466 74.2582 41.6081 75.0192 43.0929 75.4103C43.5864 75.5379 44.1012 75.6017 44.667 75.6017C45.2329 75.6017 45.7902 75.5421 46.4539 75.4274C46.9474 75.6187 47.4707 75.7207 48.0025 75.7207C48.2407 75.7207 48.4832 75.6994 48.7215 75.6612C49.8914 75.4614 50.9253 74.7811 51.5719 73.7863C51.6272 73.7056 51.674 73.629 51.7251 73.5525C52.0782 74.8577 52.661 76.0055 53.4694 76.9833C54.4649 78.1865 55.7455 79.1303 57.2728 79.7935C58.4215 80.2909 59.7021 80.7033 61.072 81.0179C61.3868 81.0901 61.7017 81.1242 62.0207 81.1242C62.7227 81.1242 63.4204 80.9499 64.0458 80.6097C65.369 79.8913 66.3177 79.1983 67.0239 78.4246C67.3302 78.0887 67.594 77.7358 67.828 77.3702C67.8706 77.4637 67.9131 77.5573 67.9556 77.6508C69.1384 80.0698 71.7676 83.1988 77.5834 84.3467C78.4513 84.5167 79.3532 84.606 80.2594 84.606C81.5059 84.606 82.7993 84.4402 84.1011 84.1171C86.2326 83.5899 88.3385 82.6291 90.3679 81.2729C91.2996 80.648 92.1973 79.9423 93.0609 79.1515C93.2311 79.9465 93.4395 80.6055 93.7076 81.1837C94.4351 83.4156 95.3923 84.8909 96.7027 85.8134C97.3791 86.2895 98.0981 86.7317 98.8426 87.1356C99.5744 87.5522 100.366 87.7308 101.51 87.9093L102.765 88.1006C103.118 88.1516 103.476 88.1814 103.833 88.1814C104.922 88.1814 106.011 87.9348 107.079 87.4502C107.054 87.6202 107.037 87.7903 107.032 87.9646C106.986 89.6184 107.411 92.1011 109.7 94.5457C111.419 96.3865 113.597 97.5173 115.988 97.8192C116.69 97.9085 117.392 97.951 118.081 97.951C119.536 97.951 120.97 97.7554 122.348 97.3643C124.369 96.7904 126.186 95.8763 127.747 94.6392C129.287 93.4191 130.559 91.9396 131.538 90.2348C132.533 88.496 133.15 86.5659 133.367 84.5082C133.729 81.0646 133.359 77.7953 132.265 74.7939C131.389 72.3834 130.398 69.9091 129.33 67.4433L129.325 67.4306Z" fill="#F9D75F"/>
<path d="M159.949 29.5468C159.608 28.4542 158.77 26.9237 156.698 25.8226C156.328 25.6271 155.933 25.4868 155.52 25.406C154.707 25.2487 154.299 25.1679 153.49 25.0064C152.593 24.8278 151.793 24.7385 151.044 24.7385C147.003 24.7385 145.131 27.3744 144.756 29.6318C144.531 30.988 144.161 32.4037 143.65 33.8322C143.046 35.5242 142.289 37.3608 141.395 39.2909C140.353 41.5441 139.34 43.6783 138.302 45.8167C137.422 47.6278 136.839 48.9585 136.52 49.8767C135.273 53.4564 136.677 56.7087 140.013 58.0436C140.868 58.439 141.812 58.6855 142.833 58.7706C143.084 58.7918 143.339 58.8046 143.59 58.8046C149.202 58.8046 152.384 53.8135 154.065 49.6259C154.095 49.5579 154.116 49.4899 154.141 49.4219C154.158 49.3793 154.312 48.9627 155.048 47.5513C155.652 46.3864 156.486 44.7964 157.536 42.8153C159.302 39.4865 160.238 36.6423 160.395 34.1213C160.476 32.7991 160.361 31.3876 160.047 29.9252C160.021 29.8019 159.987 29.6743 159.949 29.5553V29.5468Z" fill="#F9D75F"/>
<path d="M313.928 61.7721C313.392 60.4882 312.733 59.4806 311.908 58.6941C311.189 58.0097 309.912 57.1977 307.891 57.1977C307.232 57.1977 306.526 57.2827 305.743 57.457C305.084 57.6015 304.322 57.8694 303.339 58.2945C302.603 58.6133 301.791 58.979 300.923 59.3913C300.497 59.5912 300.068 59.7825 299.638 59.9653C299.234 57.9671 298.885 55.9903 298.6 54.0899C298.306 52.1471 298.017 50.1532 297.745 48.1593C297.472 46.1909 297.221 44.0822 296.996 41.8928C296.766 39.6481 296.49 37.0973 296.171 34.3169C296.158 34.1979 296.136 34.0618 296.111 33.9428C296.111 33.9343 296.064 33.7005 296.022 33.033C295.988 32.4761 295.971 31.8511 295.975 31.1794C295.975 30.6437 296.022 30.0826 296.111 29.5129C296.175 29.1005 296.251 28.8794 296.29 28.7901C296.349 28.6796 296.392 28.6243 296.409 28.6031C296.787 28.1184 297.106 27.5998 297.366 27.0641C297.681 26.4136 297.898 25.6909 298.017 24.9257C298.145 24.0669 298.094 23.1188 297.864 22.0263C297.583 20.7126 296.796 19.5945 295.524 18.7017C294.826 18.2128 294.026 17.8132 293.141 17.5156C292.516 17.3073 291.882 17.1244 291.261 16.9842C290.627 16.8396 290.048 16.7673 289.487 16.7673C289.074 16.7673 288.67 16.8056 288.287 16.8864C286.232 17.3073 284.539 18.3786 283.382 19.9899C282.756 20.8571 282.195 21.7499 281.701 22.6342C281.693 22.6469 281.425 23.1486 281.425 23.1486C280.667 24.5048 280.212 26.1798 280.038 28.2672C279.902 29.9125 279.872 31.7108 279.961 33.6154C280.042 35.4478 280.199 37.3311 280.421 39.2145C280.642 41.1021 280.897 42.8111 281.178 44.2906C281.769 47.4366 282.331 51.1862 282.846 55.4376C283.297 59.1703 283.824 62.8434 284.352 66.3678C283.931 66.5294 283.518 66.6952 283.118 66.8652C282.076 67.3116 281.148 67.8473 280.365 68.451C280.157 68.6125 279.965 68.7826 279.783 68.9611C279.651 68.536 279.519 68.1151 279.404 67.6985C278.902 65.8747 278.298 63.9063 277.655 61.8231C277.455 61.1684 277.247 60.5052 277.043 59.825C276.485 58.0054 275.92 56.4537 275.307 55.0805C274.324 52.8825 272.801 51.2033 270.776 50.0937C270.716 50.0639 270.661 50.0299 270.602 50.0044C269.917 49.6685 269.125 49.3327 268.249 49.0096C267.292 48.6524 266.288 48.3719 265.275 48.1763C264.36 47.9977 263.45 47.8617 262.578 47.7767C262.071 47.7257 261.586 47.7001 261.123 47.7001C260.595 47.7001 260.089 47.7342 259.612 47.7979C256.039 48.2868 252.805 50.0001 250.006 52.8868C248.521 54.4215 247.16 56.1136 245.934 57.9501C246.037 57.5973 246.117 57.2487 246.164 56.9001C246.288 55.9903 246.113 55.0677 245.666 54.2642C244.594 52.3341 243.135 50.9397 241.34 50.1149C240.051 49.524 238.557 49.2264 236.898 49.2264C236.443 49.2264 235.966 49.2476 235.481 49.2944C234.111 49.4177 232.903 49.7791 231.882 50.37C231.64 50.5103 231.41 50.6761 231.197 50.8631C230.121 51.8154 229.1 52.9803 228.168 54.3322C228.036 54.5236 227.904 54.7191 227.772 54.9147C227.692 54.7744 227.607 54.6383 227.517 54.5066C226.764 53.3587 225.722 52.4319 224.42 51.7474C223.258 51.1395 221.889 50.8291 220.353 50.8291C220.11 50.8291 219.859 50.8376 219.6 50.8504C217.332 50.9864 215.647 51.6624 214.452 52.9165C213.537 53.8731 212.873 55.1017 212.478 56.5727C212.359 57.0063 212.312 57.457 212.337 57.9076C212.401 59.1108 212.72 60.2416 213.286 61.2704L213.295 61.4192C213.295 61.4873 213.303 61.5553 213.312 61.6233C213.448 62.9285 213.605 64.2761 213.78 65.6196C213.937 66.81 214.048 68.0173 214.116 69.1992L214.282 72.1241C214.286 72.2219 214.299 72.409 214.422 73.6716C214.499 74.4539 214.584 75.3849 214.677 76.4563C214.771 77.5404 214.873 78.7307 214.979 80.0189C214.996 80.2145 215.009 80.4058 215.026 80.6013C213.537 79.6193 211.886 78.5734 210.087 77.4893C207.564 75.9674 205.428 74.76 203.369 73.6886C202.084 73.0212 200.787 72.3665 199.502 71.7203C198.694 71.3121 197.889 70.9082 197.098 70.5044C196.617 70.2578 196.141 70.0112 195.66 69.7646C197.319 67.9153 199.106 66.1127 200.855 64.3484C201.833 63.3579 202.846 62.3375 203.816 61.33C207.615 57.372 211.886 52.653 214.511 46.7096C214.822 46.0081 214.933 45.2386 214.843 44.4776C214.49 41.5825 212.269 38.4917 207.105 38.4917C206.934 38.4917 206.76 38.4917 206.581 38.5002C205.462 38.5427 204.267 38.7936 202.927 39.2697C202.199 39.5291 201.557 39.9797 201.068 40.5706C199.8 42.1096 198.489 43.6614 197.179 45.1833C196.349 46.1484 195.456 47.1475 194.592 48.1168C194.09 48.678 193.593 49.2391 193.095 49.8003C192.584 50.3785 192.01 51.0247 191.402 51.6837C191.189 48.3378 190.887 45.0473 190.593 41.8163C190.58 41.6845 190.563 41.5527 190.538 41.4209C190.151 39.3547 188.794 37.7265 186.717 36.8294C185.884 36.4723 185.024 36.1492 184.156 35.8729C183.633 35.6561 183.067 35.537 182.48 35.5285C182.459 35.5285 182.442 35.5285 182.42 35.5285C182.216 35.5285 182.012 35.5413 181.812 35.571C180.902 35.7028 180.446 35.7666 179.536 35.8941C179.285 35.9282 179.034 35.9877 178.791 36.0685C174.933 37.3396 174.58 40.3581 174.563 41.2508C174.563 41.4932 174.575 41.7355 174.614 41.9736C174.979 44.3543 175.252 46.8329 175.418 49.3454C175.588 51.9047 175.647 54.7489 175.605 57.7928C175.588 58.7877 175.554 60.0588 175.503 61.568C175.447 63.1283 175.371 64.9479 175.277 66.98C175.179 69.0674 175.103 70.8827 175.048 72.4345V72.596C174.988 74.0798 174.941 75.3594 174.937 76.3882C174.92 81.12 174.984 86.634 175.979 92.1735C175.984 92.2075 175.992 92.2415 175.996 92.2713C176.545 94.9581 178.213 97.02 180.744 98.1764C181.587 98.8566 182.837 99.4348 184.658 99.4475H184.735C185.743 99.4475 187.134 99.3498 188.394 98.627C191.159 97.3984 192.793 94.9241 192.788 91.9142C192.788 91.285 192.708 90.4474 192.542 89.2783C192.401 88.2963 192.384 87.8031 192.38 87.6756C192.367 86.9486 192.346 86.2514 192.325 85.5839C192.874 85.8687 197.919 88.5003 197.919 88.5003C200.791 89.9968 203.624 91.4465 206.351 92.8069C207.275 93.3979 208.368 93.7082 209.547 93.7082C209.636 93.7082 209.725 93.7082 209.815 93.704C210.797 93.6657 211.818 93.3596 213.022 92.7432C213.124 92.7517 213.231 92.7559 213.333 92.7559C213.988 92.7559 214.643 92.6029 215.239 92.3053C215.558 92.1437 215.847 91.9439 216.115 91.7143C216.609 92.6199 217.285 93.4276 218.14 94.0909C219.604 95.2345 221.45 95.8382 223.475 95.8382C223.701 95.8382 223.935 95.8297 224.169 95.8169C225.994 95.7021 227.568 95.2132 228.845 94.3629C230.061 93.5552 231.027 92.5093 231.716 91.2637C232.346 90.1201 232.737 88.8787 232.878 87.5693C232.984 86.5745 233.001 85.5839 232.933 84.6231C232.895 84.0874 232.822 83.3647 232.72 82.4719C232.631 81.6854 232.571 81.069 232.542 80.6863C232.542 80.6693 232.546 80.257 232.903 79.1771C233.282 78.025 233.784 76.7666 234.392 75.4317C234.992 74.1138 235.69 72.7831 236.468 71.4822C237.2 70.2535 237.936 69.2077 238.655 68.3702C238.791 68.2086 238.919 68.0386 239.03 67.86C239.438 67.2096 239.944 66.5166 240.544 65.8024C241.28 64.9224 241.982 64.0763 242.65 63.2558C242.944 62.8987 243.224 62.5416 243.492 62.1887C241.982 65.1774 240.808 68.2171 240.017 71.2314C239.093 74.7472 238.762 77.6466 239.008 80.0954C239.123 81.2475 239.374 82.4719 239.749 83.7303C240.208 85.2651 240.927 86.6467 241.884 87.8414C242.956 89.1805 244.399 90.2264 246.16 90.9449C247.453 91.4763 248.917 91.7441 250.504 91.7441C251.082 91.7441 251.686 91.7101 252.303 91.6378C255.12 91.319 257.8 90.1456 260.272 88.1602C262.399 86.4512 264.305 84.4403 265.939 82.1913C266.224 81.796 266.5 81.4006 266.764 81.001C266.947 81.4431 267.13 81.881 267.317 82.3104C268.321 84.6061 269.525 86.5362 270.899 88.0539C273.069 90.4559 275.452 90.9576 277.068 90.9576C277.489 90.9576 277.919 90.9236 278.345 90.8556C279.008 90.7493 279.697 90.5665 280.399 90.3157C281.118 90.0563 281.808 89.7247 282.459 89.3336C283.339 88.7979 284.08 88.1262 284.658 87.3355C285.586 86.0728 285.951 84.4956 285.683 82.9013C285.53 81.9915 285.203 81.103 284.722 80.257C285.318 80.3632 285.943 80.4185 286.598 80.4185C286.777 80.4185 286.96 80.4185 287.143 80.4058C287.202 80.7586 287.258 81.1115 287.317 81.4686C287.53 82.7993 287.751 84.0874 287.977 85.2948C288.287 86.9613 288.696 88.6151 289.181 90.2094C289.58 91.5145 289.921 92.9132 290.193 94.3672L290.423 95.5873C290.653 96.8032 290.959 98.2529 291.342 99.8897C291.776 101.76 292.393 103.554 293.171 105.225C294.06 107.13 295.201 108.737 296.558 110.004C298.076 111.424 299.987 112.172 302.084 112.172C302.684 112.172 303.305 112.108 303.926 111.985C305.258 111.721 306.517 111.266 307.679 110.624C310.129 109.277 311.214 106.641 310.589 103.576C310.355 102.423 309.921 100.757 309.266 98.4782C308.644 96.3228 307.968 93.8655 307.249 91.1829C306.496 88.3558 305.709 85.3586 304.918 82.2764C304.245 79.6533 303.628 77.0217 303.084 74.4411C303.999 73.8672 305.007 73.289 306.1 72.7151C307.713 71.8691 309.249 70.938 310.661 69.9432C313.975 67.6177 314.341 64.7268 314.269 63.2133C314.243 62.7244 314.137 62.244 313.945 61.7891L313.928 61.7721Z" fill="#F9D75F"/>
<path d="M365.424 58.3454C364.352 55.0463 362.671 52.2064 360.433 49.9107C358.642 48.0699 356.719 46.2205 354.724 44.401L354.171 43.8738C354.039 43.7463 353.894 43.6272 353.745 43.5209C353.669 43.4657 353.358 43.2276 352.656 42.5771C352.107 42.067 351.525 41.4888 350.929 40.8596C350.346 40.2431 349.802 39.6352 349.312 39.0528C349.185 38.8997 349.104 38.7934 349.053 38.7212L348.508 36.9441C348.287 36.2214 348.176 35.4561 348.172 34.6696C348.172 34.0999 348.261 33.5558 348.444 33.0116C348.547 32.85 348.653 32.6842 348.768 32.5269C349.785 31.0942 350.061 29.2917 349.525 27.5826C349.363 27.064 349.104 26.5836 348.759 26.1627C348.223 25.5037 347.53 24.8618 346.649 24.1858C345.475 23.293 344.139 22.8211 342.773 22.8211C342.212 22.8211 341.654 22.9019 341.11 23.0592C340.744 23.1102 340.365 23.1952 339.991 23.3058C337.498 24.0668 335.571 25.4059 334.256 27.2893C333.967 27.7017 333.703 28.1353 333.465 28.5774C332.652 28.1693 331.746 27.9482 330.793 27.9482C330.18 27.9482 329.546 28.0375 328.912 28.2161C327.109 28.722 325.513 29.4405 324.16 30.3503C324.105 30.1207 324.045 29.8954 323.99 29.6743C323.765 28.807 323.552 27.9397 323.36 27.098C323.148 26.1627 322.914 25.2019 322.663 24.2411C322.416 23.3015 322.127 22.3365 321.808 21.3757C321.548 20.5977 321.267 19.6411 320.982 18.5358C320.757 17.6685 320.442 16.797 320.046 15.9424C319.531 14.8243 318.838 13.8508 317.987 13.0473C317.013 12.1247 315.809 11.47 314.413 11.1002C313.758 10.9258 313.065 10.8408 312.346 10.8408C311.525 10.8408 310.648 10.9556 309.738 11.1852C308.683 11.4488 307.772 11.8867 307.028 12.4861L306.934 12.5499C306.347 12.958 305.369 13.6382 304.798 14.8966C304.007 16.6439 304.467 18.506 304.798 19.8622L307.006 28.8495C307.228 29.7593 307.474 30.6861 307.734 31.6087C307.968 32.4419 308.189 33.2752 308.389 34.0872C308.734 35.4816 309.01 36.536 309.236 37.314C309.385 37.8241 309.551 38.4406 309.729 39.1548C309.312 39.4821 308.998 39.6692 308.798 39.7755C308.257 40.0561 307.717 40.3154 307.194 40.5365C306.585 40.7958 305.956 41.0594 305.318 41.3272L305.049 41.4335C303.765 41.9479 302.161 42.5899 301.208 44.1586C300.672 45.0387 300.042 46.5862 300.765 49.8257C301.004 50.8843 301.633 51.8111 302.531 52.4147C303.212 52.8739 304.126 53.4053 305.322 54.0345C306.619 54.7147 308.023 55.0591 309.487 55.0591C310.223 55.0591 310.976 54.9698 311.729 54.7955C312.324 54.6552 312.89 54.4809 313.426 54.2683C313.592 54.8763 313.758 55.4842 313.924 56.0837C314.167 56.9764 314.413 57.865 314.652 58.7493C315.32 61.2235 316.094 63.8339 317.157 67.2222C317.579 68.5614 318.093 69.9388 318.685 71.3162C319.48 73.1613 320.153 74.509 321.059 75.5251C322.033 76.6219 323.39 77.519 325.096 78.1949C326.13 78.6073 327.202 78.8156 328.287 78.8156C329.01 78.8156 329.738 78.7221 330.448 78.5393C331.086 78.3735 331.865 78.0249 332.405 77.757C333.626 77.1576 334.741 76.2265 335.63 75.0617C336.898 73.3994 337.268 71.2525 336.672 69.012C336.379 67.9024 335.868 66.7801 335.154 65.6747C334.754 65.0583 334.384 64.4291 334.043 63.8041C332.912 61.4956 331.776 59.0086 330.669 56.4238C329.627 53.9835 328.785 51.5347 328.164 49.154C328.087 48.8691 328.028 48.5928 327.985 48.3335C327.9 47.8403 327.798 47.3599 327.679 46.8923C327.572 46.4841 327.449 46.0802 327.313 45.6849C327.747 45.3533 328.236 45.0302 328.768 44.7283C329.512 44.3074 330.146 43.8653 330.61 43.5464L330.878 43.3636C331.099 43.2106 331.508 42.998 331.903 42.794L332.239 42.6154C332.363 42.5516 332.482 42.4794 332.605 42.4113C332.69 42.7599 332.78 43.1043 332.878 43.4444C333.528 45.6934 334.681 47.7765 336.302 49.6344C337.617 51.1393 339.119 52.7038 340.774 54.2811C342.288 55.7266 343.918 57.3336 345.611 59.0554C347.07 60.5391 348.466 62.2991 349.763 64.2973C349.78 64.3568 349.793 64.4078 349.797 64.4461C349.329 64.276 348.836 64.191 348.347 64.191C347.64 64.191 346.934 64.3653 346.3 64.7139C344.862 65.5004 343.999 66.2316 343.411 67.1457C342.978 67.8216 342.65 68.6379 342.407 69.637C342.199 70.5085 342.267 71.4268 342.612 72.2558C343.246 73.7863 344.654 75.8864 347.755 77.1874C349.112 77.757 350.508 78.0461 351.899 78.0461C352.89 78.0461 353.886 77.8973 354.852 77.604C356.966 76.9663 358.872 75.9545 360.506 74.6025C362.135 73.2549 363.433 71.6819 364.364 69.9176C365.288 68.1745 365.858 66.2997 366.066 64.344C366.279 62.3416 366.058 60.3265 365.415 58.3496L365.424 58.3454Z" fill="#F9D75F"/>
<path d="M84.5563 36.1662C84.7393 35.8388 84.9137 35.5072 85.0754 35.1628C85.0158 35.5625 84.969 35.8558 84.9392 36.0344C84.8073 36.0726 84.684 36.1236 84.5563 36.1662Z" fill="white"/>
<path d="M30.9508 37.9051C32.5122 37.2079 34.231 36.3959 36.1071 35.4734C37.9833 34.5508 39.9744 33.3902 42.0548 32.1276C43.8417 31.0435 45.6583 29.9721 47.3898 28.888C49.1214 27.8039 50.8487 26.6986 52.5717 25.5677C53.546 25.5252 54.3628 25.589 55.0222 25.7633C57.3579 26.384 58.3875 27.4681 58.1109 29.0496C54.3841 33.3434 49.5 36.2684 44.6755 38.9595C39.7532 41.7058 34.3458 44.2524 29.7128 47.645C31.3294 49.3115 32.9716 50.9398 34.6351 52.5298C36.2986 54.1198 38.0386 55.7438 39.7362 57.3976C41.6166 59.2256 43.3481 61.075 44.918 62.8095C46.4879 64.5441 47.9089 66.1808 49.1767 67.7283C49.4915 68.1152 49.5851 68.5659 49.4532 69.0803C49.4107 69.2503 48.9299 70.0453 48.011 71.461C47.8919 71.3717 47.6706 71.2825 47.3473 71.1974C46.9559 71.0954 46.4113 71.1082 45.7178 71.2357C45.0201 71.359 44.5096 71.3802 44.182 71.2952C43.7225 71.1762 43.3949 70.9636 43.195 70.666C41.2933 68.8762 38.9321 66.6272 36.1454 63.9064C32.8227 60.6669 29.4915 57.4231 26.1731 54.1793C25.9689 55.2931 25.6753 56.5983 25.2924 58.0863C24.9053 59.5785 24.4671 61.3641 23.9055 63.3239C23.7779 63.7703 23.6247 64.4761 23.4758 65.4199C23.3312 66.3637 23.195 67.0354 23.0759 67.4307C22.6632 68.7912 21.6932 69.5182 20.1616 69.6032C19.8298 69.7477 19.2384 69.6882 18.3918 69.4246C17.609 69.1823 17.1793 68.8294 17.107 68.3703C15.6349 67.35 14.9755 66.0491 15.1202 64.4803C15.7073 59.4637 17.0985 54.5747 18.5662 49.8302C18.8598 48.8821 19.281 47.6662 19.7872 46.2123C20.2935 44.7583 20.8934 43.0535 21.5911 41.1021C22.2888 39.1508 22.893 37.4332 23.4077 35.9495C23.9183 34.47 24.3309 33.2457 24.6373 32.2891C25.6158 29.2451 26.4114 26.4222 27.0197 23.8204C27.6281 21.2186 28.1089 18.6678 28.4662 16.168C28.6322 15.6621 29.1682 15.4027 30.0872 15.3857C31.0146 15.5345 31.4783 15.6068 32.4058 15.7514C32.4654 15.7684 32.5037 15.7981 32.5249 15.8364C32.5462 15.8746 32.5845 15.9002 32.6441 15.9214C33.3375 16.3891 34.0055 16.895 34.6479 17.4349C35.2903 17.9748 35.5753 18.5743 35.503 19.2332C34.2948 25.0448 33.0823 30.8521 31.3677 36.5362C31.2018 37.0804 31.1167 37.3525 30.9508 37.8924V37.9051Z" fill="black"/>
<path d="M64.5819 74.2582C64.4798 74.7216 64.2415 75.1553 63.8757 75.5549C63.5098 75.9588 62.8886 76.3924 62.0207 76.8643C60.8976 76.6092 59.8808 76.2819 58.9703 75.8865C58.0556 75.4911 57.3154 74.9512 56.7495 74.2667C56.1837 73.5823 55.8221 72.7065 55.6689 71.6309C55.5158 70.5596 55.6391 69.1906 56.0476 67.5199C56.2858 66.542 56.4092 65.5387 56.4219 64.5056C56.4347 63.4726 56.5623 62.4692 56.8006 61.4914C57.5196 58.558 58.0088 55.7224 58.2811 52.9887C58.5534 50.2551 59.0554 47.4195 59.7787 44.4903C60.0765 43.2829 60.8295 42.4964 62.0335 42.118C62.6929 42.0968 63.3141 42.1095 63.8884 42.1563C64.4628 42.2031 65.1052 42.2498 65.8157 42.2966C66.624 42.7302 67.1983 43.2149 67.5302 43.7463C67.862 44.2777 68.1684 44.7921 68.4491 45.281C68.2534 45.8422 68.0748 46.4119 67.9131 46.9773C67.7472 47.547 67.594 48.1507 67.4494 48.7842C66.9431 50.9779 66.5304 53.3416 66.2156 55.8797C65.9008 58.4177 65.6455 60.8495 65.454 63.175C65.2626 65.4962 65.1052 67.6176 64.9818 69.5307C64.8584 71.4438 64.7478 72.9063 64.6627 73.9181C64.6329 74.0584 64.6159 74.1264 64.5861 74.2667L64.5819 74.2582ZM67.6706 23.6587C68.0365 23.4419 68.6066 23.4291 69.3809 23.6119C69.9765 23.7522 70.5636 23.9988 71.1422 24.3474C71.7208 24.696 72.2356 25.1212 72.6865 25.6186C73.1375 26.116 73.4779 26.6346 73.6991 27.1703C73.9246 27.706 73.9799 28.2331 73.8608 28.7561C73.614 29.8529 73.1588 30.5246 72.4993 30.7669C71.8399 31.0135 70.9933 31.0135 69.968 30.7754C69.3043 30.6181 68.6448 30.3588 68.0024 29.9932C67.3558 29.6276 66.7984 29.2322 66.3262 28.8156C65.854 28.3989 65.4923 27.9866 65.2371 27.5912C64.9861 27.1958 64.8925 26.8515 64.9648 26.5666C65.135 25.8779 65.3562 25.2912 65.6327 24.8108C65.9093 24.3304 66.5857 23.9478 67.6663 23.6587H67.6706Z" fill="black"/>
<path d="M104.173 67.031C104.135 67.2648 104.165 67.8388 104.254 68.7486C104.348 69.6583 104.492 70.6404 104.701 71.6905C104.905 72.7406 105.105 73.7566 105.292 74.7429C105.48 75.7293 105.645 76.4137 105.79 76.7921C106.088 77.4978 106.284 78.212 106.377 78.9433C106.471 79.6745 106.815 80.5545 106.862 81.1667C106.93 82.0893 106.241 83.1096 105.505 83.4795C104.769 83.8493 104.071 83.9854 103.408 83.8833C103.271 83.8621 102.859 83.8026 102.161 83.692C101.463 83.5858 101.051 83.488 100.927 83.4114C100.298 83.0756 99.7105 82.71 99.1575 82.3231C98.6086 81.9362 98.1066 81.0179 97.6684 79.564C97.4046 79.1006 97.1962 78.3013 97.0473 77.1662C96.8984 76.0311 96.775 74.828 96.6856 73.5526C96.5963 72.2772 96.4942 71.0783 96.3836 69.9474C96.273 68.8208 96.1283 68.0003 95.9496 67.4902C95.0264 69.7944 93.8777 71.8053 92.5036 73.5186C91.1294 75.2318 89.6276 76.6348 88.0024 77.7231C86.3772 78.8115 84.735 79.564 83.0801 79.9721C81.4251 80.3845 79.868 80.444 78.413 80.1549C75.103 79.5002 72.8865 78.025 71.7846 75.7675C70.6827 73.5101 70.4572 70.9337 71.0784 68.0386C71.44 66.3593 72.1164 64.5695 73.095 62.6606C74.0735 60.7518 75.2647 58.9152 76.6602 57.1509C78.0556 55.3866 79.6255 53.7753 81.3613 52.3171C83.0971 50.8589 84.8754 49.762 86.7006 49.0265C86.9728 48.9585 87.4663 48.7545 88.1811 48.4058C88.8916 48.0615 89.8701 48.002 91.1209 48.2358C91.993 48.3973 92.8312 48.6694 93.631 49.0563C94.4308 49.4389 95.2179 49.8215 95.9922 50.1957C96.3496 48.155 96.6091 46.1271 96.7707 44.112C96.9324 42.0968 97.1792 40.1582 97.511 38.2919C97.5408 38.1176 97.6599 37.3693 97.8599 36.0557C98.0598 34.7378 98.3151 33.2073 98.6257 31.4557C98.7278 30.8733 98.8341 30.2738 98.9405 29.6617C99.0468 29.0495 99.0468 28.2927 99.183 27.7656C99.2851 27.3744 99.5063 26.8175 99.5446 26.2521C99.5829 25.6909 99.8935 25.2445 100.336 24.9044C100.906 24.4623 101.595 24.0881 102.387 23.9521C103.174 23.8161 103.922 23.8076 104.637 23.9266C105.705 24.1051 106.475 24.6366 106.943 25.5208C107.411 26.4051 107.573 27.3149 107.424 28.2502C107.105 30.2356 106.726 32.1104 106.292 33.8662C105.854 35.6263 105.458 37.5862 105.114 39.7459C104.897 41.0893 104.731 42.6963 104.624 44.5669C104.514 46.4375 104.45 48.1635 104.378 49.6983C104.322 50.9312 104.216 52.3128 104.114 53.7923C104.007 55.2718 103.931 56.7767 103.888 58.2945C103.842 59.8165 103.842 61.2959 103.876 62.7414C103.91 64.1826 104.037 65.492 104.254 66.6611C104.233 66.8014 104.22 66.8737 104.199 67.014L104.173 67.031ZM79.1277 73.4293C80.5019 73.7014 81.7654 73.493 82.9141 72.8086C84.0628 72.1241 85.1051 71.2356 86.0496 70.1472C86.9941 69.0589 87.845 67.894 88.6065 66.6484C89.3681 65.407 90.2445 64.3016 90.789 63.4344C91.2315 62.7244 91.6484 61.7848 92.1249 60.9686C92.6014 60.1523 92.9247 59.2468 93.1034 58.2562C93.1332 58.0819 93.0396 57.9586 92.8226 57.8906C92.6057 57.8226 92.3419 57.7461 92.0271 57.6568C91.7165 57.5718 91.4059 57.4697 91.0996 57.3549C90.7933 57.2402 90.6018 57.0233 90.5295 56.7087C90.5848 56.4196 90.6529 56.1305 90.738 55.8457C90.8231 55.5609 90.8911 55.2718 90.9465 54.9827C90.755 54.9487 90.5848 54.9019 90.4317 54.8424C90.2785 54.7829 90.0743 54.7319 89.8233 54.6851C88.7129 55.7437 87.4919 56.7342 86.1645 57.6568C84.8371 58.5793 83.731 59.7654 82.8461 61.2194C82.259 62.1887 81.7399 63.039 81.2932 63.766C80.8507 64.493 80.4764 65.1902 80.1743 65.8534C79.8765 66.5166 79.6042 67.2053 79.3617 67.9068C79.1192 68.6125 78.9107 69.399 78.7363 70.2705C78.6427 70.7339 78.6767 71.2526 78.8299 71.8265C78.9873 72.4005 79.0809 72.9319 79.1235 73.425L79.1277 73.4293Z" fill="black"/>
<path d="M125.407 69.08C126.445 71.465 127.398 73.85 128.266 76.2308C129.134 78.6158 129.432 81.2219 129.134 84.0448C128.981 85.5157 128.551 86.8719 127.845 88.1048C127.139 89.3377 126.224 90.4005 125.105 91.2891C123.986 92.1776 122.68 92.8323 121.191 93.2532C119.702 93.6741 118.145 93.7846 116.52 93.5806C115.099 93.402 113.861 92.7473 112.81 91.6249C111.759 90.5026 111.253 89.3122 111.287 88.0623C111.619 87.6287 111.916 87.3268 112.176 87.1525C112.435 86.9782 112.98 86.8592 113.805 86.7869C114.516 87.5947 115.273 88.0538 116.077 88.1558C117.213 88.3004 118.277 87.9858 119.255 87.212C120.23 86.4383 120.8 85.3712 120.961 84.0193C121.017 83.5516 121.021 83.254 120.97 83.1265C120.557 80.3929 119.927 77.8888 119.081 75.6059C118.234 73.3229 117.405 71.1717 116.584 69.1566C115.762 67.1414 115.086 65.2411 114.541 63.464C113.997 61.6869 113.852 59.9524 114.09 58.2476C114.286 56.8404 114.614 55.4077 115.073 53.9452C115.528 52.487 116.162 51.1521 116.962 49.9447C117.762 48.7416 118.728 47.7935 119.859 47.1048C120.991 46.4161 122.357 46.1738 123.969 46.3736C124.156 46.3948 124.327 46.4331 124.475 46.4799C124.624 46.5266 124.795 46.5649 124.982 46.5862C125.603 46.6627 126.092 47.0325 126.454 47.7C126.815 48.3675 127.066 48.9499 127.198 49.4388C127.143 49.9107 126.926 50.2593 126.556 50.4804C126.181 50.7057 125.82 50.9438 125.471 51.2031C124.607 52.0534 123.931 53.0312 123.446 54.1323C122.961 55.2334 122.642 56.3728 122.497 57.5504C122.395 58.3964 122.34 58.8173 122.238 59.6633C122.187 60.0757 122.272 60.6836 122.497 61.4829C122.723 62.2864 122.991 63.1409 123.305 64.0379C123.62 64.9392 123.944 65.7852 124.275 66.5675C124.607 67.3497 124.884 67.9364 125.101 68.319C125.224 68.6209 125.284 68.7697 125.407 69.0673V69.08Z" fill="black"/>
<path d="M154.699 29.5767C155.337 29.9168 155.733 30.3249 155.886 30.8095C156.12 31.8936 156.209 32.9055 156.149 33.8493C156.03 35.7411 155.235 38.0708 153.776 40.813C152.716 42.8069 151.882 44.4096 151.27 45.5787C150.657 46.7521 150.27 47.5684 150.112 48.0318C148.283 52.5892 145.956 54.7574 143.186 54.5236C142.62 54.4768 142.123 54.345 141.702 54.1282C140.412 53.6605 140.034 52.6997 140.536 51.2628C140.795 50.5188 141.327 49.3157 142.127 47.6619C142.927 46.0081 143.982 43.8102 145.254 41.068C146.232 38.9551 147.028 37.0123 147.658 35.248C148.283 33.4879 148.7 31.8299 148.951 30.3164C149.155 29.0963 150.398 28.7094 152.652 29.1643C153.469 29.3301 153.882 29.4109 154.699 29.5682V29.5767Z" fill="black"/>
<path d="M187.419 61.381C188.691 60.2586 190.087 58.9832 191.593 57.5505C193.099 56.1178 194.652 54.43 196.256 52.6147C197.63 51.0545 199.042 49.5027 200.374 47.9595C201.701 46.4205 203.02 44.856 204.326 43.2745C205.241 42.9514 206.032 42.7728 206.709 42.7473C209.104 42.6581 210.397 43.3978 210.593 44.992C208.304 50.1744 204.522 54.4258 200.719 58.3838C196.856 62.4056 192.457 66.4741 189.066 71.0571C191.078 72.1794 193.103 73.255 195.137 74.2966C197.17 75.3339 199.289 76.3797 201.378 77.4638C203.692 78.667 205.871 79.9296 207.862 81.1327C209.853 82.3359 211.678 83.488 213.329 84.5976C213.741 84.8739 213.958 85.2778 213.984 85.8135C213.992 85.992 213.767 86.8891 213.303 88.5088C213.167 88.4578 212.929 88.4366 212.597 88.4493C212.197 88.4663 211.682 88.6364 211.061 88.9595C210.436 89.2826 209.955 89.4484 209.623 89.4611C209.155 89.4781 208.781 89.3761 208.504 89.1465C206.181 87.9859 203.293 86.5235 199.864 84.7336C195.779 82.6037 191.691 80.4738 187.607 78.3354C187.738 79.462 187.836 80.7926 187.904 82.3316C187.968 83.8706 188.07 85.7072 188.104 87.7478C188.113 88.2155 188.172 88.934 188.309 89.8778C188.445 90.8216 188.513 91.506 188.513 91.9184C188.513 93.3384 187.807 94.3162 186.386 94.8476C186.113 95.0814 185.539 95.2005 184.658 95.1962C183.846 95.192 183.339 94.9794 183.139 94.5628C181.455 94.0143 180.455 92.9642 180.14 91.421C179.247 86.4512 179.149 81.3708 179.166 76.401C179.166 75.4062 179.217 74.1223 179.276 72.5833C179.332 71.0485 179.408 69.2417 179.506 67.1713C179.604 65.1009 179.676 63.2813 179.736 61.7126C179.791 60.1481 179.825 58.8599 179.842 57.8524C179.889 54.6554 179.825 51.7262 179.647 49.0606C179.472 46.395 179.187 43.8144 178.804 41.3231C178.813 40.7917 179.247 40.3836 180.11 40.103C181.029 39.9754 181.489 39.9117 182.408 39.7756C182.467 39.7756 182.514 39.7926 182.544 39.8224C182.574 39.8522 182.62 39.8692 182.68 39.8692C183.471 40.1157 184.25 40.4006 185.011 40.7322C185.773 41.0595 186.215 41.5527 186.339 42.2032C186.875 48.1125 187.407 54.0219 187.428 59.961C187.428 60.5307 187.428 60.8113 187.428 61.381H187.419Z" fill="black"/>
<path d="M219.408 87.9265C219.523 87.6246 219.578 87.0719 219.566 86.2727C219.553 85.4734 219.515 84.4829 219.447 83.301C219.383 82.1786 219.298 80.967 219.191 79.6703C219.085 78.3737 218.983 77.179 218.889 76.0865C218.796 74.9981 218.711 74.0501 218.63 73.2551C218.553 72.4601 218.511 72.0009 218.502 71.8819C218.438 70.7127 218.404 70.1261 218.336 68.9569C218.264 67.656 218.14 66.3594 217.975 65.067C217.804 63.7745 217.651 62.4779 217.519 61.1812C217.511 61.0409 217.507 60.9687 217.498 60.8284C217.468 60.2969 217.311 59.7868 217.03 59.2979C216.749 58.809 216.592 58.2691 216.562 57.6781C216.771 56.8959 217.09 56.2879 217.507 55.85C217.923 55.4121 218.698 55.1613 219.834 55.0933C220.902 55.0295 221.765 55.1656 222.42 55.5099C223.076 55.8543 223.582 56.2922 223.935 56.8321C224.288 57.372 224.539 57.9927 224.684 58.6942C224.828 59.3957 224.956 60.0716 225.062 60.7136C225.309 62.5842 225.433 63.5195 225.679 65.3858C226.288 64.8671 226.909 64.1274 227.547 63.1581C228.181 62.193 228.84 61.1472 229.521 60.0249C230.202 58.9025 230.908 57.8099 231.648 56.7386C232.384 55.6672 233.167 54.7702 233.988 54.0432C234.469 53.7626 235.086 53.5883 235.843 53.5203C237.349 53.3843 238.583 53.5331 239.544 53.9752C240.506 54.4173 241.301 55.1996 241.927 56.3262C241.855 56.8704 241.569 57.5081 241.067 58.2435C240.565 58.979 239.983 59.7485 239.323 60.5563C238.664 61.364 237.97 62.2016 237.243 63.0688C236.515 63.9361 235.898 64.7821 235.388 65.5984C234.507 66.6272 233.639 67.8601 232.784 69.297C231.925 70.734 231.159 72.188 230.487 73.6674C229.815 75.1427 229.261 76.5371 228.832 77.8423C228.402 79.1517 228.211 80.189 228.266 80.9542C228.3 81.4261 228.364 82.0894 228.462 82.9439C228.559 83.7984 228.623 84.4616 228.657 84.9335C228.708 85.6435 228.696 86.3705 228.615 87.1187C228.534 87.8669 228.317 88.5642 227.96 89.2146C227.602 89.8651 227.1 90.405 226.454 90.8344C225.807 91.2638 224.943 91.5146 223.867 91.5826C222.586 91.6634 221.54 91.3828 220.727 90.7494C219.915 90.1159 219.485 89.2954 219.425 88.2878C219.417 88.1475 219.413 88.0752 219.404 87.935L219.408 87.9265Z" fill="black"/>
<path d="M280.085 80.8563C280.361 81.2899 280.642 81.7406 280.923 82.204C281.204 82.6674 281.386 83.1308 281.463 83.5984C281.54 84.0661 281.455 84.47 281.204 84.8101C280.952 85.1502 280.625 85.4478 280.217 85.6943C279.812 85.9409 279.383 86.145 278.927 86.3108C278.472 86.4766 278.047 86.5871 277.647 86.6509C276.307 86.8635 275.098 86.3788 274.031 85.1969C272.963 84.0151 272.014 82.4803 271.193 80.6012C270.368 78.7221 269.615 76.707 268.934 74.5643C268.249 72.4216 267.619 70.4958 267.041 68.7867C267.028 70.0451 266.619 71.6904 265.811 73.7183C264.998 75.7462 263.888 77.7401 262.476 79.6914C261.059 81.6428 259.429 83.3646 257.583 84.8441C255.741 86.3278 253.805 87.1823 251.797 87.4119C250.193 87.5947 248.84 87.4587 247.743 87.008C246.649 86.5616 245.79 85.9494 245.173 85.1799C244.556 84.4104 244.097 83.5219 243.795 82.5101C243.492 81.4983 243.297 80.5545 243.212 79.6702C243.016 77.7273 243.322 75.2743 244.101 72.3069C244.879 69.3394 246.041 66.406 247.564 63.4981C249.087 60.5901 250.916 58.0393 253.048 55.8414C255.179 53.6434 257.545 52.368 260.178 52.0067C260.744 51.9301 261.395 51.9301 262.144 52.0024C262.888 52.0747 263.658 52.1895 264.45 52.3468C265.241 52.4998 266.011 52.7166 266.76 52.993C267.509 53.2693 268.16 53.5457 268.717 53.8177C269.912 54.4724 270.81 55.4715 271.414 56.8149C272.014 58.1584 272.52 59.5996 272.967 61.062C273.831 63.8892 274.656 66.4995 275.298 68.825C275.937 71.1505 276.83 73.5695 277.983 76.0778C278.43 77.3362 278.655 77.9654 279.106 79.2238C279.497 79.8785 279.697 80.2059 280.089 80.8606L280.085 80.8563ZM251.478 80.2059C251.486 80.2654 251.508 80.3079 251.542 80.3334C251.576 80.3589 251.601 80.4014 251.606 80.4609C252.457 80.3036 253.388 79.6744 254.392 78.5691C255.392 77.468 256.366 76.1671 257.307 74.6748C258.247 73.1869 259.089 71.6266 259.829 70.0069C260.57 68.3871 261.084 66.9587 261.374 65.7258C261.557 65.1646 261.782 64.5354 262.046 63.8424C262.31 63.1494 262.569 62.4395 262.829 61.7167C263.084 60.994 263.284 60.3223 263.424 59.7059C263.565 59.0894 263.603 58.575 263.548 58.1626C263.212 58.0903 262.91 58.0138 262.642 57.933C262.374 57.8523 262.076 57.831 261.761 57.8778C260.365 58.0733 259.195 58.7365 258.247 59.8759C257.294 61.0153 256.498 62.2524 255.856 63.5873C255.209 64.9223 254.699 66.1934 254.324 67.4008C253.95 68.6082 253.678 69.3734 253.52 69.688C252.788 71.2653 252.214 72.9446 251.793 74.7216C251.372 76.4987 251.248 78.1822 251.427 79.768L251.478 80.2101V80.2059Z" fill="black"/>
<path d="M294.354 93.568C294.048 91.9398 293.669 90.3965 293.226 88.9468C292.78 87.4971 292.418 86.0134 292.137 84.4999C291.92 83.335 291.703 82.0979 291.495 80.78C291.282 79.4663 291.07 78.2249 290.853 77.06C290.729 76.3968 290.665 76.0652 290.542 75.402C290.159 75.5338 289.806 75.6443 289.483 75.7336C289.159 75.8229 288.836 75.8994 288.504 75.9589C286.666 76.2948 285.224 76.1885 284.182 75.6486C283.139 75.1087 282.527 74.2839 282.335 73.1743C282.246 72.6514 282.45 72.1922 282.956 71.8054C283.458 71.4185 284.067 71.0699 284.786 70.7638C285.5 70.4577 286.254 70.1729 287.045 69.905C287.832 69.6414 288.504 69.3651 289.057 69.0845C288.334 64.3698 287.628 59.6508 287.053 54.919C286.513 50.4509 285.934 46.6374 285.343 43.4957C285.079 42.1012 284.845 40.5027 284.633 38.7044C284.42 36.9103 284.275 35.1418 284.199 33.4115C284.122 31.6812 284.143 30.0784 284.267 28.6074C284.39 27.1407 284.679 25.9971 285.139 25.1851C285.249 24.981 285.305 24.8833 285.411 24.6792C285.824 23.9352 286.292 23.1955 286.824 22.4557C287.355 21.716 288.121 21.2441 289.125 21.04C289.419 20.9805 289.814 21.006 290.299 21.1166C290.784 21.2271 291.278 21.3674 291.776 21.5332C292.274 21.699 292.707 21.9116 293.069 22.1666C293.431 22.4217 293.639 22.6683 293.69 22.8979C293.814 23.4761 293.848 23.9395 293.797 24.2838C293.746 24.6282 293.656 24.9343 293.524 25.2021C293.392 25.4699 293.231 25.7335 293.035 25.9844C292.839 26.2394 292.652 26.5328 292.473 26.8729C292.21 27.4128 292.018 28.0718 291.899 28.8498C291.78 29.632 291.716 30.4015 291.716 31.154C291.716 31.9107 291.733 32.6165 291.771 33.2712C291.81 33.9301 291.865 34.4318 291.937 34.7761C292.252 37.5523 292.525 40.0648 292.754 42.3095C292.984 44.5585 293.244 46.6969 293.52 48.7206C293.801 50.7485 294.086 52.7423 294.384 54.7065C294.682 56.6706 295.039 58.6942 295.46 60.7859C295.541 61.194 295.63 61.7042 295.72 62.3206C295.809 62.9371 295.89 63.4175 295.962 63.7661C296.115 64.5228 296.285 64.9565 296.473 65.067C296.66 65.1775 297.175 65.152 298.013 64.982C298.655 64.8502 299.4 64.6206 300.238 64.2975C301.076 63.9701 301.91 63.613 302.731 63.2262C303.556 62.8393 304.318 62.4907 305.024 62.1846C305.73 61.8785 306.275 61.6829 306.658 61.5979C307.811 61.3428 308.581 61.3981 308.968 61.7637C309.355 62.1336 309.695 62.6777 309.997 63.3962C310.053 64.5356 309.453 65.5559 308.193 66.4402C306.93 67.3287 305.569 68.1535 304.105 68.923C302.641 69.6882 301.31 70.4662 300.114 71.257C298.919 72.0477 298.417 72.932 298.617 73.9183C299.238 76.992 299.957 80.1253 300.774 83.3095C301.591 86.4938 302.373 89.4782 303.114 92.2544C303.854 95.0305 304.535 97.492 305.152 99.6305C305.768 101.769 306.185 103.363 306.398 104.405C306.649 105.621 306.385 106.445 305.603 106.875C304.824 107.304 303.977 107.61 303.075 107.789C301.616 108.078 300.399 107.768 299.438 106.87C298.472 105.969 297.664 104.813 297.004 103.401C296.345 101.99 295.83 100.489 295.464 98.9035C295.094 97.3177 294.801 95.9403 294.584 94.7797C294.49 94.2908 294.448 94.0484 294.354 93.5595V93.568Z" fill="black"/>
<path d="M308.959 18.9569C308.789 18.2681 308.479 17.0778 308.674 16.6484C308.798 16.372 309.423 16.0234 309.683 15.8066C309.938 15.5898 310.304 15.424 310.772 15.305C311.767 15.0541 312.618 15.0201 313.32 15.2072C314.022 15.3942 314.605 15.7003 315.06 16.134C315.515 16.5633 315.89 17.0948 316.179 17.724C316.468 18.3532 316.698 18.9824 316.86 19.6116C317.175 20.8147 317.477 21.852 317.77 22.7236C318.064 23.5951 318.319 24.4624 318.544 25.3211C318.783 26.2394 319.004 27.145 319.208 28.0377C319.408 28.9348 319.629 29.8403 319.872 30.7543C320.038 31.3835 320.195 32.0468 320.344 32.7397C320.493 33.4327 320.667 34.1554 320.859 34.8994C320.948 35.2438 321.063 35.5499 321.199 35.822C321.335 36.094 321.646 36.1621 322.139 36.0345C323.731 35.6179 325.054 35.0014 326.113 34.1937C327.168 33.3859 328.487 32.761 330.065 32.3188C330.916 32.0808 331.58 32.2296 332.065 32.7695C332.546 33.3094 332.878 33.8918 333.056 34.5168C333.269 35.2565 333.252 35.8942 333.005 36.4256C332.758 36.9571 332.393 37.4162 331.903 37.7988C331.414 38.1815 330.865 38.5343 330.261 38.8574C329.657 39.1805 329.01 39.4994 328.496 39.848C328.011 40.1753 327.398 40.6217 326.679 41.0299C325.96 41.438 325.296 41.8759 324.692 42.3393C324.088 42.8069 323.594 43.3341 323.22 43.9208C322.841 44.5117 322.744 45.1452 322.922 45.8339C323.029 46.2335 323.139 46.6034 323.258 46.9392C323.377 47.2751 323.484 47.6152 323.573 47.9596C323.663 48.3039 323.739 48.6653 323.807 49.0479C323.871 49.4305 323.956 49.8216 324.062 50.2213C324.73 52.7976 325.632 55.4249 326.772 58.0948C327.913 60.7646 329.078 63.3197 330.278 65.7557C330.682 66.5082 331.125 67.2479 331.593 67.9791C332.065 68.7104 332.393 69.4204 332.575 70.1048C332.835 71.0784 332.729 71.8691 332.261 72.4856C331.793 73.0978 331.206 73.6164 330.542 73.9438C329.942 74.2371 329.534 74.3859 329.402 74.4199C328.479 74.658 327.572 74.5985 326.679 74.2456C325.785 73.8928 324.845 73.3741 324.25 72.7024C323.709 72.0987 323.173 70.9551 322.603 69.6372C322.033 68.315 321.582 67.0779 321.229 65.9555C320.365 63.2006 319.523 60.416 318.77 57.6441C318.021 54.8722 317.23 52.0621 316.511 49.286C316.451 49.0607 316.387 48.8438 316.307 48.6525C316.226 48.4612 316.094 48.2614 315.915 48.0616C314.83 48.508 313.954 48.9969 313.286 49.5198C312.618 50.047 311.776 50.4253 310.776 50.6634C309.517 50.9568 308.364 50.8292 307.313 50.2765C306.266 49.7281 305.471 49.269 304.93 48.9034C304.79 48.2699 304.556 46.8627 304.854 46.3738C305.109 45.9572 306.296 45.532 306.955 45.2599C307.611 44.9879 308.253 44.72 308.878 44.4522C309.504 44.1844 310.133 43.8825 310.776 43.5509C311.414 43.215 312.091 42.7517 312.797 42.1522C313.784 41.9141 314.269 41.4125 314.248 40.6557C314.226 39.899 314.15 39.2613 314.022 38.7469C313.767 37.7138 313.537 36.838 313.329 36.1281C313.12 35.4181 312.856 34.402 312.529 33.0798C312.316 32.2168 312.086 31.3453 311.835 30.461C311.584 29.5767 311.355 28.7052 311.142 27.8422C310.27 24.288 309.831 22.5152 308.959 18.9611V18.9569Z" fill="black"/>
<path d="M351.827 47.5216C353.754 49.2732 355.609 51.0587 357.387 52.8826C359.161 54.7064 360.501 56.9639 361.378 59.6635C361.837 61.0707 361.99 62.4821 361.842 63.8978C361.693 65.3135 361.28 66.6569 360.608 67.9281C359.936 69.1992 359 70.3344 357.796 71.3249C356.596 72.3197 355.2 73.0552 353.622 73.5356C352.239 73.9522 350.831 73.863 349.402 73.2678C347.976 72.6683 347.023 71.7883 346.547 70.6362C346.675 70.1048 346.823 69.7051 346.994 69.4416C347.164 69.178 347.615 68.8421 348.347 68.4425C349.329 68.8931 350.214 68.9994 350.997 68.7656C352.103 68.434 352.954 67.7113 353.541 66.6017C354.124 65.4963 354.213 64.2889 353.813 62.988C353.673 62.5374 353.554 62.2653 353.456 62.1675C351.959 59.842 350.355 57.8099 348.644 56.0711C346.934 54.3323 345.292 52.7083 343.709 51.199C342.131 49.6941 340.731 48.2358 339.51 46.8329C338.289 45.43 337.443 43.9037 336.966 42.2542C336.57 40.8895 336.29 39.4441 336.115 37.9263C335.941 36.4043 335.979 34.9334 336.221 33.5049C336.464 32.0807 336.97 30.8181 337.732 29.7297C338.493 28.6371 339.655 27.8591 341.225 27.3787C341.408 27.3235 341.578 27.2852 341.735 27.2682C341.893 27.2512 342.063 27.2129 342.246 27.1577C342.846 26.9706 343.454 27.1109 344.058 27.5743C344.662 28.0377 345.13 28.4628 345.454 28.8582C345.594 29.3088 345.539 29.717 345.283 30.0741C345.028 30.4312 344.794 30.8011 344.577 31.1752C344.13 32.306 343.905 33.4752 343.905 34.6783C343.905 35.8857 344.079 37.0548 344.424 38.1857C344.675 39.0019 344.798 39.41 345.045 40.2221C345.169 40.6174 345.496 41.1403 346.028 41.778C346.564 42.42 347.16 43.0875 347.819 43.7804C348.478 44.4734 349.121 45.1154 349.746 45.6935C350.372 46.2717 350.865 46.6926 351.223 46.9519C351.457 47.1773 351.576 47.2878 351.814 47.5131L351.827 47.5216Z" fill="black"/>
</g>
<defs>
<clipPath id="clip0_652_91">
<rect width="377" height="123" fill="white"/>
</clipPath>
</defs>
</svg>
